SplineFontDB: 3.2
FontName: CSUnplugged-Headings
FullName: CS Unplugged Headings
FamilyName: CS Unplugged
Weight: Regular
Copyright: OFL 1.1\nCopyright (c) 2008, Haley Fiege (haley@kingdomofawesome.com), \nCopyright (c) 2012, Brenda Gallo (gbrenda1987@gmail.com)\nCopyright (c) 2013, Pablo Impallari (www.impallari.com|impallari@gmail.com), \nwith no Reserved Font Name.\nCopyright (c) 2022, University of Canterbury Computer Science Education Research Group (https://github.com/uccser/cs-unplugged-font|csse-education-research@canterbury.ac.nz)
Version: 2.000; ttfautohint (v0.95) -l 8 -r 50 -G 200 -x 14 -w "G"
ItalicAngle: 0
UnderlinePosition: -100
UnderlineWidth: 50
Ascent: 800
Descent: 200
InvalidEm: 0
sfntRevision: 0x00020000
LayerCount: 2
Layer: 0 1 "Back" 1
Layer: 1 1 "Fore" 0
XUID: [1021 299 893611525 3534063]
StyleMap: 0x0040
FSType: 0
OS2Version: 3
OS2_WeightWidthSlopeOnly: 0
OS2_UseTypoMetrics: 0
CreationTime: 1373551920
ModificationTime: 1660012740
PfmFamily: 81
TTFWeight: 400
TTFWidth: 5
LineGap: 0
VLineGap: 0
Panose: 4 7 5 5 3 1 0 2 0 0
OS2TypoAscent: 956
OS2TypoAOffset: 0
OS2TypoDescent: -289
OS2TypoDOffset: 0
OS2TypoLinegap: 0
OS2WinAscent: 956
OS2WinAOffset: 0
OS2WinDescent: 289
OS2WinDOffset: 0
HheadAscent: 956
HheadAOffset: 0
HheadDescent: -289
HheadDOffset: 0
OS2SubXSize: 700
OS2SubYSize: 650
OS2SubXOff: 0
OS2SubYOff: 140
OS2SupXSize: 700
OS2SupYSize: 650
OS2SupXOff: 0
OS2SupYOff: 477
OS2StrikeYSize: 50
OS2StrikeYPos: 250
OS2CapHeight: 700
OS2XHeight: 500
OS2Vendor: 'pyrs'
OS2CodePages: 00000001.00000000
OS2UnicodeRanges: 800000af.4000004b.00000000.00000000
Lookup: 4 0 1 "'liga' Standard Ligatures in Latin lookup 0" { "'liga' Standard Ligatures in Latin lookup 0 subtable"  } ['liga' ('latn' <'dflt' > ) ]

StartChar: .notdef
Encoding: 65536 -1 0
Width: 554
Flags: W
LayerCount: 2
Fore
SplineSet
85 597 m 0,0,1
 87 637 87 637 98.5 649.5 c 128,-1,2
 110 662 110 662 128 663 c 1,3,4
 151 676 151 676 187.5 684 c 128,-1,5
 224 692 224 692 261 696 c 128,-1,6
 298 700 298 700 329.5 701.5 c 128,-1,7
 361 703 361 703 373 703 c 0,8,9
 409 703 409 703 429 698.5 c 128,-1,10
 449 694 449 694 459 671.5 c 128,-1,11
 469 649 469 649 471.5 603 c 128,-1,12
 474 557 474 557 474 473 c 0,13,14
 474 392 474 392 474 335.5 c 128,-1,15
 474 279 474 279 473 236.5 c 128,-1,16
 472 194 472 194 471 161 c 128,-1,17
 470 128 470 128 469 96 c 0,18,19
 467 55 467 55 455 42.5 c 128,-1,20
 443 30 443 30 426 30 c 1,21,22
 402 17 402 17 365.5 9 c 128,-1,23
 329 1 329 1 292 -3 c 128,-1,24
 255 -7 255 -7 224 -8.5 c 128,-1,25
 193 -10 193 -10 181 -10 c 0,26,27
 145 -10 145 -10 125 -5.5 c 128,-1,28
 105 -1 105 -1 95 21.5 c 128,-1,29
 85 44 85 44 82.5 90 c 128,-1,30
 80 136 80 136 80 220 c 0,31,32
 80 301 80 301 80 357.5 c 128,-1,33
 80 414 80 414 81 456.5 c 128,-1,34
 82 499 82 499 82.5 532 c 128,-1,35
 83 565 83 565 85 597 c 0,0,1
374 414 m 0,36,37
 374 446 374 446 374 470.5 c 128,-1,38
 374 495 374 495 374.5 517 c 128,-1,39
 375 539 375 539 376 561 c 128,-1,40
 377 583 377 583 378 610 c 1,41,42
 327 604 327 604 292.5 599.5 c 128,-1,43
 258 595 258 595 235.5 592 c 128,-1,44
 213 589 213 589 199 587.5 c 128,-1,45
 185 586 185 586 174 585 c 1,46,47
 176 543 176 543 177 507.5 c 128,-1,48
 178 472 178 472 179 436.5 c 128,-1,49
 180 401 180 401 180 363 c 128,-1,50
 180 325 180 325 180 279 c 0,51,52
 180 247 180 247 180 222.5 c 128,-1,53
 180 198 180 198 179.5 176 c 128,-1,54
 179 154 179 154 178 132 c 128,-1,55
 177 110 177 110 176 83 c 1,56,57
 227 89 227 89 261 93 c 128,-1,58
 295 97 295 97 317.5 100 c 128,-1,59
 340 103 340 103 354 105 c 128,-1,60
 368 107 368 107 379 108 c 1,61,62
 377 150 377 150 376.5 185.5 c 128,-1,63
 376 221 376 221 375 256.5 c 128,-1,64
 374 292 374 292 374 329.5 c 128,-1,65
 374 367 374 367 374 414 c 0,36,37
EndSplineSet
Validated: 1
EndChar

StartChar: Acircumflex
Encoding: 194 194 4
Width: 597
Flags: W
LayerCount: 2
Fore
SplineSet
479 51 m 0,0,1
 469 75 469 75 457.5 106.5 c 128,-1,2
 446 138 446 138 433 173 c 1,3,4
 403 172 403 172 370 171.5 c 128,-1,5
 337 171 337 171 303 171 c 0,6,7
 260 171 260 171 225 171 c 128,-1,8
 190 171 190 171 161 172 c 1,9,10
 149 137 149 137 138 106 c 128,-1,11
 127 75 127 75 117 51 c 0,12,13
 97 0 97 0 59 0 c 0,14,15
 45 0 45 0 32.5 9 c 128,-1,16
 20 18 20 18 20 35 c 256,17,18
 20 52 20 52 26 79.5 c 128,-1,19
 32 107 32 107 41.5 138.5 c 128,-1,20
 51 170 51 170 62 203.5 c 128,-1,21
 73 237 73 237 83 266 c 0,22,23
 93 298 93 298 111.5 347.5 c 128,-1,24
 130 397 130 397 151 451 c 128,-1,25
 172 505 172 505 193 557.5 c 128,-1,26
 214 610 214 610 231 649 c 0,27,28
 235 659 235 659 241 671.5 c 128,-1,29
 247 684 247 684 255.5 695 c 128,-1,30
 264 706 264 706 274.5 714 c 128,-1,31
 285 722 285 722 298 722 c 256,32,33
 311 722 311 722 322 713.5 c 128,-1,34
 333 705 333 705 341.5 693 c 128,-1,35
 350 681 350 681 356.5 668 c 128,-1,36
 363 655 363 655 367 645 c 0,37,38
 383 605 383 605 403.5 553 c 128,-1,39
 424 501 424 501 444.5 448 c 128,-1,40
 465 395 465 395 483 347 c 128,-1,41
 501 299 501 299 512 266 c 0,42,43
 521 237 521 237 532.5 204 c 128,-1,44
 544 171 544 171 554 139 c 128,-1,45
 564 107 564 107 570.5 79.5 c 128,-1,46
 577 52 577 52 577 35 c 256,47,48
 577 18 577 18 564.5 9 c 128,-1,49
 552 0 552 0 538 0 c 0,50,51
 520 0 520 0 505 12.5 c 128,-1,52
 490 25 490 25 479 51 c 0,0,1
302 271 m 0,53,54
 326 271 326 271 350 270.5 c 128,-1,55
 374 270 374 270 398 269 c 1,56,57
 386 304 386 304 374 339 c 128,-1,58
 362 374 362 374 351.5 406 c 128,-1,59
 341 438 341 438 332.5 465.5 c 128,-1,60
 324 493 324 493 318 514 c 0,61,62
 314 527 314 527 309 535 c 128,-1,63
 304 543 304 543 296 543 c 256,64,65
 288 543 288 543 283 534.5 c 128,-1,66
 278 526 278 526 274 513 c 0,67,68
 262 472 262 472 240.5 406.5 c 128,-1,69
 219 341 219 341 195 269 c 1,70,71
 222 270 222 270 249 270.5 c 128,-1,72
 276 271 276 271 302 271 c 0,53,54
299 952 m 0,73,74
 309 952 309 952 326.5 943.5 c 128,-1,75
 344 935 344 935 363 922.5 c 128,-1,76
 382 910 382 910 400.5 894.5 c 128,-1,77
 419 879 419 879 432 866 c 0,78,79
 443 854 443 854 449.5 842.5 c 128,-1,80
 456 831 456 831 456 818 c 0,81,82
 456 801 456 801 445.5 788 c 128,-1,83
 435 775 435 775 415 775 c 0,84,85
 398 775 398 775 376.5 790 c 128,-1,86
 355 805 355 805 320 837 c 2,87,-1
 299 856 l 1,88,-1
 278 837 l 2,89,90
 243 805 243 805 220.5 790.5 c 128,-1,91
 198 776 198 776 181 776 c 0,92,93
 163 776 163 776 151.5 787.5 c 128,-1,94
 140 799 140 799 140 816 c 0,95,96
 140 825 140 825 145.5 837.5 c 128,-1,97
 151 850 151 850 166 866 c 0,98,99
 179 879 179 879 197.5 894.5 c 128,-1,100
 216 910 216 910 235 922.5 c 128,-1,101
 254 935 254 935 271 943.5 c 128,-1,102
 288 952 288 952 299 952 c 0,73,74
EndSplineSet
Validated: 1
EndChar

StartChar: Adieresis
Encoding: 196 196 5
Width: 597
Flags: W
LayerCount: 2
Fore
SplineSet
479 51 m 0,0,1
 469 75 469 75 457.5 106.5 c 128,-1,2
 446 138 446 138 433 173 c 1,3,4
 403 172 403 172 370 171.5 c 128,-1,5
 337 171 337 171 303 171 c 0,6,7
 260 171 260 171 225 171 c 128,-1,8
 190 171 190 171 161 172 c 1,9,10
 149 137 149 137 138 106 c 128,-1,11
 127 75 127 75 117 51 c 0,12,13
 97 0 97 0 59 0 c 0,14,15
 45 0 45 0 32.5 9 c 128,-1,16
 20 18 20 18 20 35 c 256,17,18
 20 52 20 52 26 79.5 c 128,-1,19
 32 107 32 107 41.5 138.5 c 128,-1,20
 51 170 51 170 62 203.5 c 128,-1,21
 73 237 73 237 83 266 c 0,22,23
 93 298 93 298 111.5 347.5 c 128,-1,24
 130 397 130 397 151 451 c 128,-1,25
 172 505 172 505 193 557.5 c 128,-1,26
 214 610 214 610 231 649 c 0,27,28
 235 659 235 659 241 671.5 c 128,-1,29
 247 684 247 684 255.5 695 c 128,-1,30
 264 706 264 706 274.5 714 c 128,-1,31
 285 722 285 722 298 722 c 256,32,33
 311 722 311 722 322 713.5 c 128,-1,34
 333 705 333 705 341.5 693 c 128,-1,35
 350 681 350 681 356.5 668 c 128,-1,36
 363 655 363 655 367 645 c 0,37,38
 383 605 383 605 403.5 553 c 128,-1,39
 424 501 424 501 444.5 448 c 128,-1,40
 465 395 465 395 483 347 c 128,-1,41
 501 299 501 299 512 266 c 0,42,43
 521 237 521 237 532.5 204 c 128,-1,44
 544 171 544 171 554 139 c 128,-1,45
 564 107 564 107 570.5 79.5 c 128,-1,46
 577 52 577 52 577 35 c 256,47,48
 577 18 577 18 564.5 9 c 128,-1,49
 552 0 552 0 538 0 c 0,50,51
 520 0 520 0 505 12.5 c 128,-1,52
 490 25 490 25 479 51 c 0,0,1
302 271 m 0,53,54
 326 271 326 271 350 270.5 c 128,-1,55
 374 270 374 270 398 269 c 1,56,57
 386 304 386 304 374 339 c 128,-1,58
 362 374 362 374 351.5 406 c 128,-1,59
 341 438 341 438 332.5 465.5 c 128,-1,60
 324 493 324 493 318 514 c 0,61,62
 314 527 314 527 309 535 c 128,-1,63
 304 543 304 543 296 543 c 256,64,65
 288 543 288 543 283 534.5 c 128,-1,66
 278 526 278 526 274 513 c 0,67,68
 262 472 262 472 240.5 406.5 c 128,-1,69
 219 341 219 341 195 269 c 1,70,71
 222 270 222 270 249 270.5 c 128,-1,72
 276 271 276 271 302 271 c 0,53,54
209 932 m 0,73,74
 232 932 232 932 251.5 914 c 128,-1,75
 271 896 271 896 271 871 c 0,76,77
 271 847 271 847 251 829.5 c 128,-1,78
 231 812 231 812 206 812 c 0,79,80
 185 812 185 812 166.5 829.5 c 128,-1,81
 148 847 148 847 148 873 c 0,82,83
 148 897 148 897 166.5 914.5 c 128,-1,84
 185 932 185 932 209 932 c 0,73,74
389 932 m 0,85,86
 412 932 412 932 431.5 914 c 128,-1,87
 451 896 451 896 451 871 c 0,88,89
 451 847 451 847 431 829.5 c 128,-1,90
 411 812 411 812 386 812 c 0,91,92
 365 812 365 812 346.5 829.5 c 128,-1,93
 328 847 328 847 328 873 c 0,94,95
 328 897 328 897 346.5 914.5 c 128,-1,96
 365 932 365 932 389 932 c 0,85,86
EndSplineSet
Validated: 1
EndChar

StartChar: Agrave
Encoding: 192 192 6
Width: 597
Flags: W
LayerCount: 2
Fore
SplineSet
479 51 m 0,0,1
 469 75 469 75 457.5 106.5 c 128,-1,2
 446 138 446 138 433 173 c 1,3,4
 403 172 403 172 370 171.5 c 128,-1,5
 337 171 337 171 303 171 c 0,6,7
 260 171 260 171 225 171 c 128,-1,8
 190 171 190 171 161 172 c 1,9,10
 149 137 149 137 138 106 c 128,-1,11
 127 75 127 75 117 51 c 0,12,13
 97 0 97 0 59 0 c 0,14,15
 45 0 45 0 32.5 9 c 128,-1,16
 20 18 20 18 20 35 c 256,17,18
 20 52 20 52 26 79.5 c 128,-1,19
 32 107 32 107 41.5 138.5 c 128,-1,20
 51 170 51 170 62 203.5 c 128,-1,21
 73 237 73 237 83 266 c 0,22,23
 93 298 93 298 111.5 347.5 c 128,-1,24
 130 397 130 397 151 451 c 128,-1,25
 172 505 172 505 193 557.5 c 128,-1,26
 214 610 214 610 231 649 c 0,27,28
 235 659 235 659 241 671.5 c 128,-1,29
 247 684 247 684 255.5 695 c 128,-1,30
 264 706 264 706 274.5 714 c 128,-1,31
 285 722 285 722 298 722 c 256,32,33
 311 722 311 722 322 713.5 c 128,-1,34
 333 705 333 705 341.5 693 c 128,-1,35
 350 681 350 681 356.5 668 c 128,-1,36
 363 655 363 655 367 645 c 0,37,38
 383 605 383 605 403.5 553 c 128,-1,39
 424 501 424 501 444.5 448 c 128,-1,40
 465 395 465 395 483 347 c 128,-1,41
 501 299 501 299 512 266 c 0,42,43
 521 237 521 237 532.5 204 c 128,-1,44
 544 171 544 171 554 139 c 128,-1,45
 564 107 564 107 570.5 79.5 c 128,-1,46
 577 52 577 52 577 35 c 256,47,48
 577 18 577 18 564.5 9 c 128,-1,49
 552 0 552 0 538 0 c 0,50,51
 520 0 520 0 505 12.5 c 128,-1,52
 490 25 490 25 479 51 c 0,0,1
302 271 m 0,53,54
 326 271 326 271 350 270.5 c 128,-1,55
 374 270 374 270 398 269 c 1,56,57
 386 304 386 304 374 339 c 128,-1,58
 362 374 362 374 351.5 406 c 128,-1,59
 341 438 341 438 332.5 465.5 c 128,-1,60
 324 493 324 493 318 514 c 0,61,62
 314 527 314 527 309 535 c 128,-1,63
 304 543 304 543 296 543 c 256,64,65
 288 543 288 543 283 534.5 c 128,-1,66
 278 526 278 526 274 513 c 0,67,68
 262 472 262 472 240.5 406.5 c 128,-1,69
 219 341 219 341 195 269 c 1,70,71
 222 270 222 270 249 270.5 c 128,-1,72
 276 271 276 271 302 271 c 0,53,54
359 779 m 0,73,74
 344 779 344 779 321 786 c 128,-1,75
 298 793 298 793 272.5 804 c 128,-1,76
 247 815 247 815 221 829.5 c 128,-1,77
 195 844 195 844 174 859 c 128,-1,78
 153 874 153 874 140 888.5 c 128,-1,79
 127 903 127 903 127 915 c 0,80,81
 127 934 127 934 139 943 c 128,-1,82
 151 952 151 952 168 952 c 0,83,84
 187 952 187 952 223.5 936 c 128,-1,85
 260 920 260 920 296.5 897 c 128,-1,86
 333 874 333 874 360.5 849 c 128,-1,87
 388 824 388 824 390 805 c 0,88,89
 390 790 390 790 380 785.5 c 128,-1,90
 370 781 370 781 359 779 c 0,73,74
EndSplineSet
Validated: 1
EndChar

StartChar: Aring
Encoding: 197 197 7
Width: 597
Flags: W
LayerCount: 2
Fore
SplineSet
418 807 m 0,0,1
 418 769 418 769 395.5 740 c 128,-1,2
 373 711 373 711 337 699 c 1,3,4
 348 686 348 686 355 671 c 128,-1,5
 362 656 362 656 367 645 c 0,6,7
 383 605 383 605 403.5 553 c 128,-1,8
 424 501 424 501 444.5 448 c 128,-1,9
 465 395 465 395 483 347 c 128,-1,10
 501 299 501 299 512 266 c 0,11,12
 521 237 521 237 532.5 204 c 128,-1,13
 544 171 544 171 554 139 c 128,-1,14
 564 107 564 107 570.5 79.5 c 128,-1,15
 577 52 577 52 577 35 c 256,16,17
 577 18 577 18 564.5 9 c 128,-1,18
 552 0 552 0 538 0 c 0,19,20
 520 0 520 0 505 12.5 c 128,-1,21
 490 25 490 25 479 51 c 0,22,23
 469 75 469 75 457.5 106.5 c 128,-1,24
 446 138 446 138 433 173 c 1,25,26
 403 172 403 172 370 171.5 c 128,-1,27
 337 171 337 171 303 171 c 0,28,29
 260 171 260 171 225 171 c 128,-1,30
 190 171 190 171 161 172 c 1,31,32
 149 137 149 137 138 106 c 128,-1,33
 127 75 127 75 117 51 c 0,34,35
 97 0 97 0 59 0 c 0,36,37
 45 0 45 0 32.5 9 c 128,-1,38
 20 18 20 18 20 35 c 256,39,40
 20 52 20 52 26 79.5 c 128,-1,41
 32 107 32 107 41.5 138.5 c 128,-1,42
 51 170 51 170 62 203.5 c 128,-1,43
 73 237 73 237 83 266 c 0,44,45
 93 298 93 298 111.5 347.5 c 128,-1,46
 130 397 130 397 151 451 c 128,-1,47
 172 505 172 505 193 557.5 c 128,-1,48
 214 610 214 610 231 649 c 0,49,50
 236 660 236 660 242 673 c 128,-1,51
 248 686 248 686 257 698 c 1,52,53
 221 709 221 709 197 739 c 128,-1,54
 173 769 173 769 173 807 c 0,55,56
 173 832 173 832 183.5 853 c 128,-1,57
 194 874 194 874 211 889.5 c 128,-1,58
 228 905 228 905 250.5 913.5 c 128,-1,59
 273 922 273 922 296 922 c 0,60,61
 320 922 320 922 342.5 913 c 128,-1,62
 365 904 365 904 381.5 888.5 c 128,-1,63
 398 873 398 873 408 852 c 128,-1,64
 418 831 418 831 418 807 c 0,0,1
302 271 m 0,65,66
 326 271 326 271 350 270.5 c 128,-1,67
 374 270 374 270 398 269 c 1,68,69
 386 304 386 304 374 339 c 128,-1,70
 362 374 362 374 351.5 406 c 128,-1,71
 341 438 341 438 332.5 465.5 c 128,-1,72
 324 493 324 493 318 514 c 0,73,74
 314 527 314 527 309 535 c 128,-1,75
 304 543 304 543 296 543 c 256,76,77
 288 543 288 543 283 534.5 c 128,-1,78
 278 526 278 526 274 513 c 0,79,80
 262 472 262 472 240.5 406.5 c 128,-1,81
 219 341 219 341 195 269 c 1,82,83
 222 270 222 270 249 270.5 c 128,-1,84
 276 271 276 271 302 271 c 0,65,66
230 806 m 0,85,86
 230 776 230 776 249.5 761 c 128,-1,87
 269 746 269 746 295 746 c 0,88,89
 325 746 325 746 342 763.5 c 128,-1,90
 359 781 359 781 359 808 c 0,91,92
 359 834 359 834 342.5 853 c 128,-1,93
 326 872 326 872 300 872 c 0,94,95
 266 872 266 872 248 853.5 c 128,-1,96
 230 835 230 835 230 806 c 0,85,86
EndSplineSet
Validated: 1
EndChar

StartChar: Atilde
Encoding: 195 195 8
Width: 597
Flags: W
LayerCount: 2
Fore
SplineSet
479 51 m 0,0,1
 469 75 469 75 457.5 106.5 c 128,-1,2
 446 138 446 138 433 173 c 1,3,4
 403 172 403 172 370 171.5 c 128,-1,5
 337 171 337 171 303 171 c 0,6,7
 260 171 260 171 225 171 c 128,-1,8
 190 171 190 171 161 172 c 1,9,10
 149 137 149 137 138 106 c 128,-1,11
 127 75 127 75 117 51 c 0,12,13
 97 0 97 0 59 0 c 0,14,15
 45 0 45 0 32.5 9 c 128,-1,16
 20 18 20 18 20 35 c 256,17,18
 20 52 20 52 26 79.5 c 128,-1,19
 32 107 32 107 41.5 138.5 c 128,-1,20
 51 170 51 170 62 203.5 c 128,-1,21
 73 237 73 237 83 266 c 0,22,23
 93 298 93 298 111.5 347.5 c 128,-1,24
 130 397 130 397 151 451 c 128,-1,25
 172 505 172 505 193 557.5 c 128,-1,26
 214 610 214 610 231 649 c 0,27,28
 235 659 235 659 241 671.5 c 128,-1,29
 247 684 247 684 255.5 695 c 128,-1,30
 264 706 264 706 274.5 714 c 128,-1,31
 285 722 285 722 298 722 c 256,32,33
 311 722 311 722 322 713.5 c 128,-1,34
 333 705 333 705 341.5 693 c 128,-1,35
 350 681 350 681 356.5 668 c 128,-1,36
 363 655 363 655 367 645 c 0,37,38
 383 605 383 605 403.5 553 c 128,-1,39
 424 501 424 501 444.5 448 c 128,-1,40
 465 395 465 395 483 347 c 128,-1,41
 501 299 501 299 512 266 c 0,42,43
 521 237 521 237 532.5 204 c 128,-1,44
 544 171 544 171 554 139 c 128,-1,45
 564 107 564 107 570.5 79.5 c 128,-1,46
 577 52 577 52 577 35 c 256,47,48
 577 18 577 18 564.5 9 c 128,-1,49
 552 0 552 0 538 0 c 0,50,51
 520 0 520 0 505 12.5 c 128,-1,52
 490 25 490 25 479 51 c 0,0,1
302 271 m 0,53,54
 326 271 326 271 350 270.5 c 128,-1,55
 374 270 374 270 398 269 c 1,56,57
 386 304 386 304 374 339 c 128,-1,58
 362 374 362 374 351.5 406 c 128,-1,59
 341 438 341 438 332.5 465.5 c 128,-1,60
 324 493 324 493 318 514 c 0,61,62
 314 527 314 527 309 535 c 128,-1,63
 304 543 304 543 296 543 c 256,64,65
 288 543 288 543 283 534.5 c 128,-1,66
 278 526 278 526 274 513 c 0,67,68
 262 472 262 472 240.5 406.5 c 128,-1,69
 219 341 219 341 195 269 c 1,70,71
 222 270 222 270 249 270.5 c 128,-1,72
 276 271 276 271 302 271 c 0,53,54
224 843 m 0,73,74
 208 843 208 843 196 836 c 128,-1,75
 184 829 184 829 173.5 820 c 128,-1,76
 163 811 163 811 152.5 804 c 128,-1,77
 142 797 142 797 130 797 c 0,78,79
 117 797 117 797 108.5 807.5 c 128,-1,80
 100 818 100 818 100 835 c 256,81,82
 100 852 100 852 107 871 c 128,-1,83
 114 890 114 890 128.5 905.5 c 128,-1,84
 143 921 143 921 164 931.5 c 128,-1,85
 185 942 185 942 213 942 c 0,86,87
 242 942 242 942 262 934.5 c 128,-1,88
 282 927 282 927 297.5 917.5 c 128,-1,89
 313 908 313 908 328 900.5 c 128,-1,90
 343 893 343 893 363 893 c 0,91,92
 393 893 393 893 407.5 900 c 128,-1,93
 422 907 422 907 429.5 916 c 128,-1,94
 437 925 437 925 442 932 c 128,-1,95
 447 939 447 939 458 939 c 0,96,97
 472 939 472 939 484 931 c 128,-1,98
 496 923 496 923 496 908 c 0,99,100
 496 885 496 885 487.5 864.5 c 128,-1,101
 479 844 479 844 462 828 c 128,-1,102
 445 812 445 812 419.5 802.5 c 128,-1,103
 394 793 394 793 361 793 c 0,104,105
 340 793 340 793 323 801 c 128,-1,106
 306 809 306 809 290 818 c 128,-1,107
 274 827 274 827 258 835 c 128,-1,108
 242 843 242 843 224 843 c 0,73,74
EndSplineSet
Validated: 1
EndChar

StartChar: B
Encoding: 66 66 9
Width: 582
Flags: W
LayerCount: 2
Fore
SplineSet
243 0 m 0,0,1
 187 0 187 0 153 9 c 128,-1,2
 119 18 119 18 100.5 34.5 c 128,-1,3
 82 51 82 51 75.5 75 c 128,-1,4
 69 99 69 99 66 129 c 0,5,6
 63 164 63 164 61.5 221.5 c 128,-1,7
 60 279 60 279 60 341 c 0,8,9
 60 371 60 371 60.5 404.5 c 128,-1,10
 61 438 61 438 61.5 470.5 c 128,-1,11
 62 503 62 503 63 531 c 128,-1,12
 64 559 64 559 66 579 c 0,13,14
 69 610 69 610 76 635 c 128,-1,15
 83 660 83 660 102.5 678 c 128,-1,16
 122 696 122 696 157.5 705.5 c 128,-1,17
 193 715 193 715 252 715 c 0,18,19
 386 715 386 715 452.5 665.5 c 128,-1,20
 519 616 519 616 519 525 c 0,21,22
 519 478 519 478 498.5 438 c 128,-1,23
 478 398 478 398 428 378 c 1,24,25
 456 373 456 373 479 357 c 128,-1,26
 502 341 502 341 518.5 318.5 c 128,-1,27
 535 296 535 296 543.5 268.5 c 128,-1,28
 552 241 552 241 552 213 c 0,29,30
 552 177 552 177 537 139.5 c 128,-1,31
 522 102 522 102 486 71 c 128,-1,32
 450 40 450 40 390.5 20 c 128,-1,33
 331 0 331 0 243 0 c 0,0,1
452 216 m 0,34,35
 452 252 452 252 435.5 274 c 128,-1,36
 419 296 419 296 393 307.5 c 128,-1,37
 367 319 367 319 335 323 c 128,-1,38
 303 327 303 327 271 327 c 0,39,40
 246 327 246 327 219 327 c 128,-1,41
 192 327 192 327 169 326 c 1,42,43
 168 305 168 305 167 283 c 128,-1,44
 166 261 166 261 165.5 241.5 c 128,-1,45
 165 222 165 222 165 207.5 c 128,-1,46
 165 193 165 193 165 187 c 0,47,48
 165 160 165 160 169 142 c 128,-1,49
 173 124 173 124 184 113 c 128,-1,50
 195 102 195 102 215.5 97.5 c 128,-1,51
 236 93 236 93 268 93 c 0,52,53
 356 93 356 93 404 124 c 128,-1,54
 452 155 452 155 452 216 c 0,34,35
267 620 m 0,55,56
 234 620 234 620 213.5 614.5 c 128,-1,57
 193 609 193 609 182.5 600 c 128,-1,58
 172 591 172 591 168.5 578 c 128,-1,59
 165 565 165 565 165 550 c 2,60,-1
 165 410 l 1,61,62
 179 409 179 409 194.5 409 c 128,-1,63
 210 409 210 409 224 409 c 0,64,65
 260 409 260 409 294.5 414 c 128,-1,66
 329 419 329 419 357 431 c 128,-1,67
 385 443 385 443 402 464 c 128,-1,68
 419 485 419 485 419 518 c 0,69,70
 419 563 419 563 382.5 591.5 c 128,-1,71
 346 620 346 620 267 620 c 0,55,56
EndSplineSet
Validated: 1
EndChar

StartChar: C
Encoding: 67 67 10
Width: 599
Flags: W
LayerCount: 2
Fore
SplineSet
351 708 m 0,0,1
 384 708 384 708 417.5 702.5 c 128,-1,2
 451 697 451 697 478 685.5 c 128,-1,3
 505 674 505 674 522.5 657.5 c 128,-1,4
 540 641 540 641 540 619 c 0,5,6
 540 596 540 596 528 584 c 128,-1,7
 516 572 516 572 498 572 c 0,8,9
 481 572 481 572 468 577.5 c 128,-1,10
 455 583 455 583 438.5 590 c 128,-1,11
 422 597 422 597 399 602.5 c 128,-1,12
 376 608 376 608 338 608 c 256,13,14
 300 608 300 608 265.5 588.5 c 128,-1,15
 231 569 231 569 205.5 534.5 c 128,-1,16
 180 500 180 500 165 453 c 128,-1,17
 150 406 150 406 150 351 c 0,18,19
 150 283 150 283 167.5 234 c 128,-1,20
 185 185 185 185 213 153.5 c 128,-1,21
 241 122 241 122 276.5 106.5 c 128,-1,22
 312 91 312 91 348 91 c 0,23,24
 391 91 391 91 420 100 c 128,-1,25
 449 109 449 109 469.5 120 c 128,-1,26
 490 131 490 131 505 140 c 128,-1,27
 520 149 520 149 534 149 c 0,28,29
 551 149 551 149 561 139.5 c 128,-1,30
 571 130 571 130 571 106 c 0,31,32
 571 86 571 86 555.5 65.5 c 128,-1,33
 540 45 540 45 510.5 28.5 c 128,-1,34
 481 12 481 12 440 1.5 c 128,-1,35
 399 -9 399 -9 348 -9 c 0,36,37
 292 -9 292 -9 236.5 13 c 128,-1,38
 181 35 181 35 137.5 78.5 c 128,-1,39
 94 122 94 122 67 187.5 c 128,-1,40
 40 253 40 253 40 340 c 256,41,42
 40 427 40 427 64.5 495 c 128,-1,43
 89 563 89 563 131.5 610.5 c 128,-1,44
 174 658 174 658 230.5 683 c 128,-1,45
 287 708 287 708 351 708 c 0,0,1
EndSplineSet
Validated: 1
EndChar

StartChar: AE
Encoding: 198 198 11
Width: 898
Flags: W
LayerCount: 2
Fore
SplineSet
403 172 m 1,0,1
 353 169 353 169 304 169 c 0,2,3
 247 169 247 169 187 172 c 1,4,5
 171 147 171 147 152.5 116.5 c 128,-1,6
 134 86 134 86 116 59.5 c 128,-1,7
 98 33 98 33 81.5 15 c 128,-1,8
 65 -3 65 -3 53 -3 c 0,9,10
 36 -3 36 -3 23 8.5 c 128,-1,11
 10 20 10 20 10 39 c 0,12,13
 10 47 10 47 13.5 58 c 128,-1,14
 17 69 17 69 25 85 c 0,15,16
 44 122 44 122 71.5 170.5 c 128,-1,17
 99 219 99 219 132.5 275.5 c 128,-1,18
 166 332 166 332 203 394 c 128,-1,19
 240 456 240 456 279 521 c 0,20,21
 310 572 310 572 331.5 605 c 128,-1,22
 353 638 353 638 369.5 657 c 128,-1,23
 386 676 386 676 399 684 c 128,-1,24
 412 692 412 692 425 694 c 0,25,26
 445 697 445 697 463.5 699 c 128,-1,27
 482 701 482 701 503 701.5 c 128,-1,28
 524 702 524 702 550.5 702.5 c 128,-1,29
 577 703 577 703 613 703 c 0,30,31
 614 703 614 703 634.5 703 c 128,-1,32
 655 703 655 703 684 702.5 c 128,-1,33
 713 702 713 702 744.5 701 c 128,-1,34
 776 700 776 700 797 699 c 0,35,36
 819 697 819 697 832.5 693.5 c 128,-1,37
 846 690 846 690 853 684.5 c 128,-1,38
 860 679 860 679 862 671.5 c 128,-1,39
 864 664 864 664 864 655 c 0,40,41
 864 632 864 632 851 621.5 c 128,-1,42
 838 611 838 611 798 608 c 0,43,44
 778 606 778 606 739.5 605.5 c 128,-1,45
 701 605 701 605 661 605 c 128,-1,46
 621 605 621 605 589 604.5 c 128,-1,47
 557 604 557 604 549 604 c 0,48,49
 523 603 523 603 512.5 592.5 c 128,-1,50
 502 582 502 582 502 543 c 0,51,52
 502 534 502 534 503.5 499.5 c 128,-1,53
 505 465 505 465 505 403 c 1,54,-1
 588 403 l 2,55,56
 641 403 641 403 674.5 401.5 c 128,-1,57
 708 400 708 400 726.5 395 c 128,-1,58
 745 390 745 390 752 379 c 128,-1,59
 759 368 759 368 759 350 c 0,60,61
 759 335 759 335 751.5 326 c 128,-1,62
 744 317 744 317 724.5 311.5 c 128,-1,63
 705 306 705 306 672 304.5 c 128,-1,64
 639 303 639 303 587 303 c 2,65,-1
 503 303 l 1,66,67
 503 288 503 288 503 267 c 128,-1,68
 503 246 503 246 503 224 c 128,-1,69
 503 202 503 202 503.5 181 c 128,-1,70
 504 160 504 160 505 147 c 0,71,72
 506 131 506 131 509.5 120 c 128,-1,73
 513 109 513 109 522.5 102 c 128,-1,74
 532 95 532 95 550.5 92 c 128,-1,75
 569 89 569 89 600 89 c 2,76,-1
 815 89 l 2,77,78
 850 89 850 89 859 76 c 128,-1,79
 868 63 868 63 868 41 c 0,80,81
 868 23 868 23 860 13.5 c 128,-1,82
 852 4 852 4 821.5 -0.5 c 128,-1,83
 791 -5 791 -5 730.5 -6 c 128,-1,84
 670 -7 670 -7 564 -7 c 0,85,86
 519 -7 519 -7 490 1 c 128,-1,87
 461 9 461 9 443 28 c 128,-1,88
 425 47 425 47 416.5 77.5 c 128,-1,89
 408 108 408 108 405 152 c 2,90,-1
 403 172 l 1,0,1
328 271 m 0,91,92
 346 271 346 271 364 270.5 c 128,-1,93
 382 270 382 270 400 269 c 1,94,95
 398 289 398 289 398 310 c 128,-1,96
 398 331 398 331 398 351 c 0,97,98
 398 396 398 396 399.5 441 c 128,-1,99
 401 486 401 486 402 534 c 1,100,101
 364 467 364 467 326 401.5 c 128,-1,102
 288 336 288 336 248 270 c 1,103,104
 268 271 268 271 288 271 c 128,-1,105
 308 271 308 271 328 271 c 0,91,92
EndSplineSet
Validated: 1
EndChar

StartChar: Ccedilla
Encoding: 199 199 12
Width: 599
Flags: W
LayerCount: 2
Fore
SplineSet
351 708 m 0,0,1
 384 708 384 708 417.5 702.5 c 128,-1,2
 451 697 451 697 478 685.5 c 128,-1,3
 505 674 505 674 522.5 657.5 c 128,-1,4
 540 641 540 641 540 619 c 0,5,6
 540 596 540 596 528 584 c 128,-1,7
 516 572 516 572 498 572 c 0,8,9
 481 572 481 572 468 577.5 c 128,-1,10
 455 583 455 583 438.5 590 c 128,-1,11
 422 597 422 597 399 602.5 c 128,-1,12
 376 608 376 608 338 608 c 256,13,14
 300 608 300 608 265.5 588.5 c 128,-1,15
 231 569 231 569 205.5 534.5 c 128,-1,16
 180 500 180 500 165 453 c 128,-1,17
 150 406 150 406 150 351 c 0,18,19
 150 283 150 283 167.5 234 c 128,-1,20
 185 185 185 185 213 153.5 c 128,-1,21
 241 122 241 122 276.5 106.5 c 128,-1,22
 312 91 312 91 348 91 c 0,23,24
 391 91 391 91 420 100 c 128,-1,25
 449 109 449 109 469.5 120 c 128,-1,26
 490 131 490 131 505 140 c 128,-1,27
 520 149 520 149 534 149 c 0,28,29
 551 149 551 149 561 139.5 c 128,-1,30
 571 130 571 130 571 106 c 0,31,32
 571 87 571 87 556.5 67.5 c 128,-1,33
 542 48 542 48 515.5 32 c 128,-1,34
 489 16 489 16 451 5 c 128,-1,35
 413 -6 413 -6 366 -8 c 1,36,-1
 366 -14 l 2,37,38
 366 -34 366 -34 376 -42.5 c 128,-1,39
 386 -51 386 -51 405 -58 c 0,40,41
 434 -69 434 -69 449 -87.5 c 128,-1,42
 464 -106 464 -106 464 -141 c 0,43,44
 464 -155 464 -155 460.5 -172.5 c 128,-1,45
 457 -190 457 -190 444 -205 c 128,-1,46
 431 -220 431 -220 407 -230.5 c 128,-1,47
 383 -241 383 -241 343 -241 c 0,48,49
 314 -241 314 -241 292.5 -233 c 128,-1,50
 271 -225 271 -225 271 -201 c 0,51,52
 271 -181 271 -181 284.5 -173.5 c 128,-1,53
 298 -166 298 -166 313 -166 c 0,54,55
 322 -166 322 -166 336.5 -167.5 c 128,-1,56
 351 -169 351 -169 360 -169 c 0,57,58
 372 -169 372 -169 381.5 -164 c 128,-1,59
 391 -159 391 -159 391 -145 c 0,60,61
 391 -127 391 -127 375 -119.5 c 128,-1,62
 359 -112 359 -112 340.5 -103.5 c 128,-1,63
 322 -95 322 -95 306 -81 c 128,-1,64
 290 -67 290 -67 290 -37 c 0,65,66
 290 -34 290 -34 290.5 -27.5 c 128,-1,67
 291 -21 291 -21 293 -4 c 1,68,69
 243 5 243 5 197.5 31.5 c 128,-1,70
 152 58 152 58 117 101 c 128,-1,71
 82 144 82 144 61 203.5 c 128,-1,72
 40 263 40 263 40 340 c 0,73,74
 40 427 40 427 64.5 495 c 128,-1,75
 89 563 89 563 131.5 610.5 c 128,-1,76
 174 658 174 658 230.5 683 c 128,-1,77
 287 708 287 708 351 708 c 0,0,1
EndSplineSet
Validated: 1
EndChar

StartChar: D
Encoding: 68 68 13
Width: 619
Flags: W
LayerCount: 2
Fore
SplineSet
265 707 m 0,0,1
 368 707 368 707 430 676 c 128,-1,2
 492 645 492 645 525 594 c 128,-1,3
 558 543 558 543 568.5 478 c 128,-1,4
 579 413 579 413 579 346 c 0,5,6
 579 273 579 273 560.5 208 c 128,-1,7
 542 143 542 143 503.5 94.5 c 128,-1,8
 465 46 465 46 405 17.5 c 128,-1,9
 345 -11 345 -11 262 -11 c 0,10,11
 196 -11 196 -11 156.5 -1.5 c 128,-1,12
 117 8 117 8 95.5 27 c 128,-1,13
 74 46 74 46 67 75 c 128,-1,14
 60 104 60 104 60 143 c 2,15,-1
 60 519 l 2,16,17
 60 562 60 562 67.5 597 c 128,-1,18
 75 632 75 632 97 656.5 c 128,-1,19
 119 681 119 681 159.5 694 c 128,-1,20
 200 707 200 707 265 707 c 0,0,1
269 89 m 0,21,22
 331 89 331 89 371.5 111.5 c 128,-1,23
 412 134 412 134 436 171 c 128,-1,24
 460 208 460 208 469.5 255 c 128,-1,25
 479 302 479 302 479 351 c 0,26,27
 479 396 479 396 472 441.5 c 128,-1,28
 465 487 465 487 443 524 c 128,-1,29
 421 561 421 561 380 584 c 128,-1,30
 339 607 339 607 271 607 c 0,31,32
 209 607 209 607 185 589 c 128,-1,33
 161 571 161 571 161 534 c 2,34,-1
 161 151 l 2,35,36
 161 120 161 120 183.5 104.5 c 128,-1,37
 206 89 206 89 269 89 c 0,21,22
EndSplineSet
Validated: 1
EndChar

StartChar: E
Encoding: 69 69 14
Width: 559
Flags: W
LayerCount: 2
Fore
SplineSet
66 152 m 0,0,1
 64 184 64 184 62 239 c 128,-1,2
 60 294 60 294 60 352 c 0,3,4
 60 385 60 385 60.5 420.5 c 128,-1,5
 61 456 61 456 62 493 c 0,6,7
 64 567 64 567 71.5 609 c 128,-1,8
 79 651 79 651 101.5 672 c 128,-1,9
 124 693 124 693 165 698 c 128,-1,10
 206 703 206 703 274 703 c 0,11,12
 275 703 275 703 295.5 703 c 128,-1,13
 316 703 316 703 345 702.5 c 128,-1,14
 374 702 374 702 405.5 701 c 128,-1,15
 437 700 437 700 458 699 c 0,16,17
 480 697 480 697 493.5 693.5 c 128,-1,18
 507 690 507 690 514 684.5 c 128,-1,19
 521 679 521 679 523 671.5 c 128,-1,20
 525 664 525 664 525 655 c 0,21,22
 525 632 525 632 512 621.5 c 128,-1,23
 499 611 499 611 459 608 c 0,24,25
 439 606 439 606 400.5 605.5 c 128,-1,26
 362 605 362 605 322 605 c 128,-1,27
 282 605 282 605 250 604.5 c 128,-1,28
 218 604 218 604 210 604 c 0,29,30
 184 603 184 603 173.5 592.5 c 128,-1,31
 163 582 163 582 163 543 c 0,32,33
 163 534 163 534 164.5 499.5 c 128,-1,34
 166 465 166 465 166 403 c 1,35,-1
 249 403 l 2,36,37
 302 403 302 403 335.5 401.5 c 128,-1,38
 369 400 369 400 387.5 395 c 128,-1,39
 406 390 406 390 413 379 c 128,-1,40
 420 368 420 368 420 350 c 0,41,42
 420 341 420 341 418.5 333.5 c 128,-1,43
 417 326 417 326 410 320.5 c 128,-1,44
 403 315 403 315 390 311.5 c 128,-1,45
 377 308 377 308 353 306 c 0,46,47
 324 304 324 304 298.5 303.5 c 128,-1,48
 273 303 273 303 248 303 c 2,49,-1
 164 303 l 1,50,51
 164 288 164 288 164 267 c 128,-1,52
 164 246 164 246 164 224 c 128,-1,53
 164 202 164 202 164.5 181 c 128,-1,54
 165 160 165 160 166 147 c 0,55,56
 167 131 167 131 170.5 120 c 128,-1,57
 174 109 174 109 183.5 102 c 128,-1,58
 193 95 193 95 211.5 92 c 128,-1,59
 230 89 230 89 261 89 c 2,60,-1
 476 89 l 2,61,62
 511 89 511 89 520 76 c 128,-1,63
 529 63 529 63 529 41 c 0,64,65
 529 23 529 23 521 13.5 c 128,-1,66
 513 4 513 4 482.5 -0.5 c 128,-1,67
 452 -5 452 -5 391.5 -6 c 128,-1,68
 331 -7 331 -7 225 -7 c 0,69,70
 180 -7 180 -7 151 1 c 128,-1,71
 122 9 122 9 104 28 c 128,-1,72
 86 47 86 47 77.5 77.5 c 128,-1,73
 69 108 69 108 66 152 c 0,0,1
EndSplineSet
Validated: 1
EndChar

StartChar: Eacute
Encoding: 201 201 15
Width: 559
Flags: W
LayerCount: 2
Fore
SplineSet
66 152 m 0,0,1
 64 184 64 184 62 239 c 128,-1,2
 60 294 60 294 60 352 c 0,3,4
 60 385 60 385 60.5 420.5 c 128,-1,5
 61 456 61 456 62 493 c 0,6,7
 64 567 64 567 71.5 609 c 128,-1,8
 79 651 79 651 101.5 672 c 128,-1,9
 124 693 124 693 165 698 c 128,-1,10
 206 703 206 703 274 703 c 0,11,12
 275 703 275 703 295.5 703 c 128,-1,13
 316 703 316 703 345 702.5 c 128,-1,14
 374 702 374 702 405.5 701 c 128,-1,15
 437 700 437 700 458 699 c 0,16,17
 480 697 480 697 493.5 693.5 c 128,-1,18
 507 690 507 690 514 684.5 c 128,-1,19
 521 679 521 679 523 671.5 c 128,-1,20
 525 664 525 664 525 655 c 0,21,22
 525 632 525 632 512 621.5 c 128,-1,23
 499 611 499 611 459 608 c 0,24,25
 439 606 439 606 400.5 605.5 c 128,-1,26
 362 605 362 605 322 605 c 128,-1,27
 282 605 282 605 250 604.5 c 128,-1,28
 218 604 218 604 210 604 c 0,29,30
 184 603 184 603 173.5 592.5 c 128,-1,31
 163 582 163 582 163 543 c 0,32,33
 163 534 163 534 164.5 499.5 c 128,-1,34
 166 465 166 465 166 403 c 1,35,-1
 249 403 l 2,36,37
 302 403 302 403 335.5 401.5 c 128,-1,38
 369 400 369 400 387.5 395 c 128,-1,39
 406 390 406 390 413 379 c 128,-1,40
 420 368 420 368 420 350 c 0,41,42
 420 341 420 341 418.5 333.5 c 128,-1,43
 417 326 417 326 410 320.5 c 128,-1,44
 403 315 403 315 390 311.5 c 128,-1,45
 377 308 377 308 353 306 c 0,46,47
 324 304 324 304 298.5 303.5 c 128,-1,48
 273 303 273 303 248 303 c 2,49,-1
 164 303 l 1,50,51
 164 288 164 288 164 267 c 128,-1,52
 164 246 164 246 164 224 c 128,-1,53
 164 202 164 202 164.5 181 c 128,-1,54
 165 160 165 160 166 147 c 0,55,56
 167 131 167 131 170.5 120 c 128,-1,57
 174 109 174 109 183.5 102 c 128,-1,58
 193 95 193 95 211.5 92 c 128,-1,59
 230 89 230 89 261 89 c 2,60,-1
 476 89 l 2,61,62
 511 89 511 89 520 76 c 128,-1,63
 529 63 529 63 529 41 c 0,64,65
 529 23 529 23 521 13.5 c 128,-1,66
 513 4 513 4 482.5 -0.5 c 128,-1,67
 452 -5 452 -5 391.5 -6 c 128,-1,68
 331 -7 331 -7 225 -7 c 0,69,70
 180 -7 180 -7 151 1 c 128,-1,71
 122 9 122 9 104 28 c 128,-1,72
 86 47 86 47 77.5 77.5 c 128,-1,73
 69 108 69 108 66 152 c 0,0,1
261 758 m 0,74,75
 250 760 250 760 239.5 765.5 c 128,-1,76
 229 771 229 771 229 786 c 0,77,78
 230 798 230 798 243.5 814 c 128,-1,79
 257 830 257 830 277 846.5 c 128,-1,80
 297 863 297 863 322 878.5 c 128,-1,81
 347 894 347 894 371.5 906 c 128,-1,82
 396 918 396 918 417 925.5 c 128,-1,83
 438 933 438 933 451 933 c 0,84,85
 468 933 468 933 480.5 923 c 128,-1,86
 493 913 493 913 493 894 c 0,87,88
 493 882 493 882 480 867.5 c 128,-1,89
 467 853 467 853 446 838 c 128,-1,90
 425 823 425 823 399 808.5 c 128,-1,91
 373 794 373 794 347.5 783 c 128,-1,92
 322 772 322 772 299 765 c 128,-1,93
 276 758 276 758 261 758 c 0,74,75
EndSplineSet
Validated: 1
EndChar

StartChar: Ecircumflex
Encoding: 202 202 16
Width: 559
Flags: W
LayerCount: 2
Fore
SplineSet
66 152 m 0,0,1
 64 184 64 184 62 239 c 128,-1,2
 60 294 60 294 60 352 c 0,3,4
 60 385 60 385 60.5 420.5 c 128,-1,5
 61 456 61 456 62 493 c 0,6,7
 64 567 64 567 71.5 609 c 128,-1,8
 79 651 79 651 101.5 672 c 128,-1,9
 124 693 124 693 165 698 c 128,-1,10
 206 703 206 703 274 703 c 0,11,12
 275 703 275 703 295.5 703 c 128,-1,13
 316 703 316 703 345 702.5 c 128,-1,14
 374 702 374 702 405.5 701 c 128,-1,15
 437 700 437 700 458 699 c 0,16,17
 480 697 480 697 493.5 693.5 c 128,-1,18
 507 690 507 690 514 684.5 c 128,-1,19
 521 679 521 679 523 671.5 c 128,-1,20
 525 664 525 664 525 655 c 0,21,22
 525 632 525 632 512 621.5 c 128,-1,23
 499 611 499 611 459 608 c 0,24,25
 439 606 439 606 400.5 605.5 c 128,-1,26
 362 605 362 605 322 605 c 128,-1,27
 282 605 282 605 250 604.5 c 128,-1,28
 218 604 218 604 210 604 c 0,29,30
 184 603 184 603 173.5 592.5 c 128,-1,31
 163 582 163 582 163 543 c 0,32,33
 163 534 163 534 164.5 499.5 c 128,-1,34
 166 465 166 465 166 403 c 1,35,-1
 249 403 l 2,36,37
 302 403 302 403 335.5 401.5 c 128,-1,38
 369 400 369 400 387.5 395 c 128,-1,39
 406 390 406 390 413 379 c 128,-1,40
 420 368 420 368 420 350 c 0,41,42
 420 341 420 341 418.5 333.5 c 128,-1,43
 417 326 417 326 410 320.5 c 128,-1,44
 403 315 403 315 390 311.5 c 128,-1,45
 377 308 377 308 353 306 c 0,46,47
 324 304 324 304 298.5 303.5 c 128,-1,48
 273 303 273 303 248 303 c 2,49,-1
 164 303 l 1,50,51
 164 288 164 288 164 267 c 128,-1,52
 164 246 164 246 164 224 c 128,-1,53
 164 202 164 202 164.5 181 c 128,-1,54
 165 160 165 160 166 147 c 0,55,56
 167 131 167 131 170.5 120 c 128,-1,57
 174 109 174 109 183.5 102 c 128,-1,58
 193 95 193 95 211.5 92 c 128,-1,59
 230 89 230 89 261 89 c 2,60,-1
 476 89 l 2,61,62
 511 89 511 89 520 76 c 128,-1,63
 529 63 529 63 529 41 c 0,64,65
 529 23 529 23 521 13.5 c 128,-1,66
 513 4 513 4 482.5 -0.5 c 128,-1,67
 452 -5 452 -5 391.5 -6 c 128,-1,68
 331 -7 331 -7 225 -7 c 0,69,70
 180 -7 180 -7 151 1 c 128,-1,71
 122 9 122 9 104 28 c 128,-1,72
 86 47 86 47 77.5 77.5 c 128,-1,73
 69 108 69 108 66 152 c 0,0,1
310 925 m 0,74,75
 320 925 320 925 337.5 916.5 c 128,-1,76
 355 908 355 908 374 895.5 c 128,-1,77
 393 883 393 883 411.5 867.5 c 128,-1,78
 430 852 430 852 443 839 c 0,79,80
 454 827 454 827 460.5 815.5 c 128,-1,81
 467 804 467 804 467 791 c 0,82,83
 467 774 467 774 456.5 761 c 128,-1,84
 446 748 446 748 426 748 c 0,85,86
 409 748 409 748 387.5 763 c 128,-1,87
 366 778 366 778 331 810 c 2,88,-1
 310 829 l 1,89,-1
 289 810 l 2,90,91
 254 778 254 778 231.5 763.5 c 128,-1,92
 209 749 209 749 192 749 c 0,93,94
 174 749 174 749 162.5 760.5 c 128,-1,95
 151 772 151 772 151 789 c 0,96,97
 151 798 151 798 156.5 810.5 c 128,-1,98
 162 823 162 823 177 839 c 0,99,100
 190 852 190 852 208.5 867.5 c 128,-1,101
 227 883 227 883 246 895.5 c 128,-1,102
 265 908 265 908 282 916.5 c 128,-1,103
 299 925 299 925 310 925 c 0,74,75
EndSplineSet
Validated: 1
EndChar

StartChar: Edieresis
Encoding: 203 203 17
Width: 559
Flags: W
LayerCount: 2
Fore
SplineSet
66 152 m 0,0,1
 64 184 64 184 62 239 c 128,-1,2
 60 294 60 294 60 352 c 0,3,4
 60 385 60 385 60.5 420.5 c 128,-1,5
 61 456 61 456 62 493 c 0,6,7
 64 567 64 567 71.5 609 c 128,-1,8
 79 651 79 651 101.5 672 c 128,-1,9
 124 693 124 693 165 698 c 128,-1,10
 206 703 206 703 274 703 c 0,11,12
 275 703 275 703 295.5 703 c 128,-1,13
 316 703 316 703 345 702.5 c 128,-1,14
 374 702 374 702 405.5 701 c 128,-1,15
 437 700 437 700 458 699 c 0,16,17
 480 697 480 697 493.5 693.5 c 128,-1,18
 507 690 507 690 514 684.5 c 128,-1,19
 521 679 521 679 523 671.5 c 128,-1,20
 525 664 525 664 525 655 c 0,21,22
 525 632 525 632 512 621.5 c 128,-1,23
 499 611 499 611 459 608 c 0,24,25
 439 606 439 606 400.5 605.5 c 128,-1,26
 362 605 362 605 322 605 c 128,-1,27
 282 605 282 605 250 604.5 c 128,-1,28
 218 604 218 604 210 604 c 0,29,30
 184 603 184 603 173.5 592.5 c 128,-1,31
 163 582 163 582 163 543 c 0,32,33
 163 534 163 534 164.5 499.5 c 128,-1,34
 166 465 166 465 166 403 c 1,35,-1
 249 403 l 2,36,37
 302 403 302 403 335.5 401.5 c 128,-1,38
 369 400 369 400 387.5 395 c 128,-1,39
 406 390 406 390 413 379 c 128,-1,40
 420 368 420 368 420 350 c 0,41,42
 420 341 420 341 418.5 333.5 c 128,-1,43
 417 326 417 326 410 320.5 c 128,-1,44
 403 315 403 315 390 311.5 c 128,-1,45
 377 308 377 308 353 306 c 0,46,47
 324 304 324 304 298.5 303.5 c 128,-1,48
 273 303 273 303 248 303 c 2,49,-1
 164 303 l 1,50,51
 164 288 164 288 164 267 c 128,-1,52
 164 246 164 246 164 224 c 128,-1,53
 164 202 164 202 164.5 181 c 128,-1,54
 165 160 165 160 166 147 c 0,55,56
 167 131 167 131 170.5 120 c 128,-1,57
 174 109 174 109 183.5 102 c 128,-1,58
 193 95 193 95 211.5 92 c 128,-1,59
 230 89 230 89 261 89 c 2,60,-1
 476 89 l 2,61,62
 511 89 511 89 520 76 c 128,-1,63
 529 63 529 63 529 41 c 0,64,65
 529 23 529 23 521 13.5 c 128,-1,66
 513 4 513 4 482.5 -0.5 c 128,-1,67
 452 -5 452 -5 391.5 -6 c 128,-1,68
 331 -7 331 -7 225 -7 c 0,69,70
 180 -7 180 -7 151 1 c 128,-1,71
 122 9 122 9 104 28 c 128,-1,72
 86 47 86 47 77.5 77.5 c 128,-1,73
 69 108 69 108 66 152 c 0,0,1
212 919 m 0,74,75
 235 919 235 919 254.5 901 c 128,-1,76
 274 883 274 883 274 858 c 0,77,78
 274 834 274 834 254 816.5 c 128,-1,79
 234 799 234 799 209 799 c 0,80,81
 188 799 188 799 169.5 816.5 c 128,-1,82
 151 834 151 834 151 860 c 0,83,84
 151 884 151 884 169.5 901.5 c 128,-1,85
 188 919 188 919 212 919 c 0,74,75
392 919 m 0,86,87
 415 919 415 919 434.5 901 c 128,-1,88
 454 883 454 883 454 858 c 0,89,90
 454 834 454 834 434 816.5 c 128,-1,91
 414 799 414 799 389 799 c 0,92,93
 368 799 368 799 349.5 816.5 c 128,-1,94
 331 834 331 834 331 860 c 0,95,96
 331 884 331 884 349.5 901.5 c 128,-1,97
 368 919 368 919 392 919 c 0,86,87
EndSplineSet
Validated: 1
EndChar

StartChar: Egrave
Encoding: 200 200 18
Width: 559
Flags: W
LayerCount: 2
Fore
SplineSet
66 152 m 0,0,1
 64 184 64 184 62 239 c 128,-1,2
 60 294 60 294 60 352 c 0,3,4
 60 385 60 385 60.5 420.5 c 128,-1,5
 61 456 61 456 62 493 c 0,6,7
 64 567 64 567 71.5 609 c 128,-1,8
 79 651 79 651 101.5 672 c 128,-1,9
 124 693 124 693 165 698 c 128,-1,10
 206 703 206 703 274 703 c 0,11,12
 275 703 275 703 295.5 703 c 128,-1,13
 316 703 316 703 345 702.5 c 128,-1,14
 374 702 374 702 405.5 701 c 128,-1,15
 437 700 437 700 458 699 c 0,16,17
 480 697 480 697 493.5 693.5 c 128,-1,18
 507 690 507 690 514 684.5 c 128,-1,19
 521 679 521 679 523 671.5 c 128,-1,20
 525 664 525 664 525 655 c 0,21,22
 525 632 525 632 512 621.5 c 128,-1,23
 499 611 499 611 459 608 c 0,24,25
 439 606 439 606 400.5 605.5 c 128,-1,26
 362 605 362 605 322 605 c 128,-1,27
 282 605 282 605 250 604.5 c 128,-1,28
 218 604 218 604 210 604 c 0,29,30
 184 603 184 603 173.5 592.5 c 128,-1,31
 163 582 163 582 163 543 c 0,32,33
 163 534 163 534 164.5 499.5 c 128,-1,34
 166 465 166 465 166 403 c 1,35,-1
 249 403 l 2,36,37
 302 403 302 403 335.5 401.5 c 128,-1,38
 369 400 369 400 387.5 395 c 128,-1,39
 406 390 406 390 413 379 c 128,-1,40
 420 368 420 368 420 350 c 0,41,42
 420 341 420 341 418.5 333.5 c 128,-1,43
 417 326 417 326 410 320.5 c 128,-1,44
 403 315 403 315 390 311.5 c 128,-1,45
 377 308 377 308 353 306 c 0,46,47
 324 304 324 304 298.5 303.5 c 128,-1,48
 273 303 273 303 248 303 c 2,49,-1
 164 303 l 1,50,51
 164 288 164 288 164 267 c 128,-1,52
 164 246 164 246 164 224 c 128,-1,53
 164 202 164 202 164.5 181 c 128,-1,54
 165 160 165 160 166 147 c 0,55,56
 167 131 167 131 170.5 120 c 128,-1,57
 174 109 174 109 183.5 102 c 128,-1,58
 193 95 193 95 211.5 92 c 128,-1,59
 230 89 230 89 261 89 c 2,60,-1
 476 89 l 2,61,62
 511 89 511 89 520 76 c 128,-1,63
 529 63 529 63 529 41 c 0,64,65
 529 23 529 23 521 13.5 c 128,-1,66
 513 4 513 4 482.5 -0.5 c 128,-1,67
 452 -5 452 -5 391.5 -6 c 128,-1,68
 331 -7 331 -7 225 -7 c 0,69,70
 180 -7 180 -7 151 1 c 128,-1,71
 122 9 122 9 104 28 c 128,-1,72
 86 47 86 47 77.5 77.5 c 128,-1,73
 69 108 69 108 66 152 c 0,0,1
374 764 m 0,74,75
 359 764 359 764 336 771 c 128,-1,76
 313 778 313 778 287.5 789 c 128,-1,77
 262 800 262 800 236 814.5 c 128,-1,78
 210 829 210 829 189 844 c 128,-1,79
 168 859 168 859 155 873.5 c 128,-1,80
 142 888 142 888 142 900 c 0,81,82
 142 919 142 919 154 928 c 128,-1,83
 166 937 166 937 183 937 c 0,84,85
 202 937 202 937 238.5 921 c 128,-1,86
 275 905 275 905 311.5 882 c 128,-1,87
 348 859 348 859 375.5 834 c 128,-1,88
 403 809 403 809 405 790 c 0,89,90
 405 775 405 775 395 770.5 c 128,-1,91
 385 766 385 766 374 764 c 0,74,75
EndSplineSet
Validated: 1
EndChar

StartChar: Eth
Encoding: 208 208 19
Width: 659
Flags: W
LayerCount: 2
Fore
SplineSet
305 707 m 0,0,1
 408 707 408 707 470 676 c 128,-1,2
 532 645 532 645 565 594 c 128,-1,3
 598 543 598 543 608.5 478 c 128,-1,4
 619 413 619 413 619 346 c 0,5,6
 619 273 619 273 600.5 208 c 128,-1,7
 582 143 582 143 543.5 94.5 c 128,-1,8
 505 46 505 46 445 17.5 c 128,-1,9
 385 -11 385 -11 302 -11 c 0,10,11
 236 -11 236 -11 196.5 -1.5 c 128,-1,12
 157 8 157 8 135.5 27 c 128,-1,13
 114 46 114 46 107 75 c 128,-1,14
 100 104 100 104 100 143 c 2,15,-1
 100 287 l 1,16,17
 52 288 52 288 31 296 c 128,-1,18
 10 304 10 304 10 336 c 0,19,20
 10 359 10 359 30.5 370 c 128,-1,21
 51 381 51 381 100 385 c 1,22,-1
 100 519 l 2,23,24
 100 562 100 562 107.5 597 c 128,-1,25
 115 632 115 632 137 656.5 c 128,-1,26
 159 681 159 681 199.5 694 c 128,-1,27
 240 707 240 707 305 707 c 0,0,1
309 89 m 0,28,29
 371 89 371 89 411.5 111.5 c 128,-1,30
 452 134 452 134 476 171 c 128,-1,31
 500 208 500 208 509.5 255 c 128,-1,32
 519 302 519 302 519 351 c 0,33,34
 519 396 519 396 512 441.5 c 128,-1,35
 505 487 505 487 483 524 c 128,-1,36
 461 561 461 561 420 584 c 128,-1,37
 379 607 379 607 311 607 c 0,38,39
 249 607 249 607 225 589 c 128,-1,40
 201 571 201 571 201 534 c 2,41,-1
 201 387 l 1,42,43
 256 385 256 385 289 383 c 128,-1,44
 322 381 322 381 340 375.5 c 128,-1,45
 358 370 358 370 364 361 c 128,-1,46
 370 352 370 352 370 336 c 0,47,48
 370 321 370 321 362.5 312 c 128,-1,49
 355 303 355 303 336.5 297.5 c 128,-1,50
 318 292 318 292 285 290 c 128,-1,51
 252 288 252 288 201 287 c 1,52,-1
 201 151 l 2,53,54
 201 120 201 120 223.5 104.5 c 128,-1,55
 246 89 246 89 309 89 c 0,28,29
EndSplineSet
Validated: 1
EndChar

StartChar: Euro
Encoding: 8364 8364 20
Width: 682
Flags: W
LayerCount: 2
Fore
SplineSet
491 378 m 0,0,1
 442 375 442 375 378 374 c 128,-1,2
 314 373 314 373 233 373 c 1,3,-1
 233 351 l 2,4,5
 233 342 233 342 233 334 c 128,-1,6
 233 326 233 326 234 318 c 1,7,-1
 309 318 l 2,8,9
 356 318 356 318 396 317 c 128,-1,10
 436 316 436 316 480 314 c 0,11,12
 504 312 504 312 517 308.5 c 128,-1,13
 530 305 530 305 537 299 c 128,-1,14
 544 293 544 293 545.5 285 c 128,-1,15
 547 277 547 277 547 267 c 0,16,17
 547 249 547 249 534.5 237 c 128,-1,18
 522 225 522 225 481 223 c 0,19,20
 437 221 437 221 381.5 219.5 c 128,-1,21
 326 218 326 218 256 218 c 1,22,23
 283 152 283 152 331 121.5 c 128,-1,24
 379 91 379 91 431 91 c 0,25,26
 474 91 474 91 503 100 c 128,-1,27
 532 109 532 109 552.5 120 c 128,-1,28
 573 131 573 131 588 140 c 128,-1,29
 603 149 603 149 617 149 c 0,30,31
 634 149 634 149 644 139.5 c 128,-1,32
 654 130 654 130 654 106 c 0,33,34
 654 86 654 86 638.5 65.5 c 128,-1,35
 623 45 623 45 593.5 28.5 c 128,-1,36
 564 12 564 12 523 1.5 c 128,-1,37
 482 -9 482 -9 431 -9 c 0,38,39
 386 -9 386 -9 341 5 c 128,-1,40
 296 19 296 19 256.5 47.5 c 128,-1,41
 217 76 217 76 186.5 118.5 c 128,-1,42
 156 161 156 161 139 218 c 1,43,44
 107 218 107 218 85 219 c 128,-1,45
 63 220 63 220 49 224.5 c 128,-1,46
 35 229 35 229 28.5 239 c 128,-1,47
 22 249 22 249 22 267 c 0,48,49
 22 277 22 277 25.5 286 c 128,-1,50
 29 295 29 295 39.5 302 c 128,-1,51
 50 309 50 309 70 312.5 c 128,-1,52
 90 316 90 316 123 316 c 1,53,-1
 123 340 l 2,54,55
 123 348 123 348 123 356.5 c 128,-1,56
 123 365 123 365 124 373 c 1,57,58
 74 374 74 374 53 382 c 128,-1,59
 32 390 32 390 32 422 c 0,60,61
 32 430 32 430 34 438 c 128,-1,62
 36 446 36 446 43 452.5 c 128,-1,63
 50 459 50 459 62.5 463 c 128,-1,64
 75 467 75 467 95 469 c 2,65,-1
 140 472 l 1,66,67
 156 528 156 528 185 572 c 128,-1,68
 214 616 214 616 252 646 c 128,-1,69
 290 676 290 676 336.5 692 c 128,-1,70
 383 708 383 708 434 708 c 0,71,72
 467 708 467 708 500.5 702.5 c 128,-1,73
 534 697 534 697 561 685.5 c 128,-1,74
 588 674 588 674 605.5 657.5 c 128,-1,75
 623 641 623 641 623 619 c 0,76,77
 623 596 623 596 611 584 c 128,-1,78
 599 572 599 572 581 572 c 0,79,80
 564 572 564 572 551 577.5 c 128,-1,81
 538 583 538 583 521.5 590 c 128,-1,82
 505 597 505 597 482 602.5 c 128,-1,83
 459 608 459 608 421 608 c 0,84,85
 367 608 367 608 323 571 c 128,-1,86
 279 534 279 534 255 473 c 1,87,-1
 319 473 l 2,88,89
 366 473 366 473 406 472 c 128,-1,90
 446 471 446 471 490 469 c 0,91,92
 514 467 514 467 527 463.5 c 128,-1,93
 540 460 540 460 547 454 c 128,-1,94
 554 448 554 448 555.5 440 c 128,-1,95
 557 432 557 432 557 422 c 0,96,97
 557 404 557 404 544.5 392 c 128,-1,98
 532 380 532 380 491 378 c 0,0,1
EndSplineSet
Validated: 1
EndChar

StartChar: F
Encoding: 70 70 21
Width: 540
Flags: W
LayerCount: 2
Fore
SplineSet
60 465 m 0,0,1
 60 549 60 549 66 596.5 c 128,-1,2
 72 644 72 644 91 668 c 128,-1,3
 110 692 110 692 145 697.5 c 128,-1,4
 180 703 180 703 237 703 c 0,5,6
 269 703 269 703 295 703 c 128,-1,7
 321 703 321 703 345.5 702.5 c 128,-1,8
 370 702 370 702 394.5 701 c 128,-1,9
 419 700 419 700 448 699 c 0,10,11
 472 697 472 697 485 693.5 c 128,-1,12
 498 690 498 690 505 684 c 128,-1,13
 512 678 512 678 513.5 670 c 128,-1,14
 515 662 515 662 515 652 c 0,15,16
 515 634 515 634 502.5 622 c 128,-1,17
 490 610 490 610 449 608 c 0,18,19
 424 607 424 607 400.5 606 c 128,-1,20
 377 605 377 605 347.5 604.5 c 128,-1,21
 318 604 318 604 281 603.5 c 128,-1,22
 244 603 244 603 192 603 c 0,23,24
 174 603 174 603 167 590.5 c 128,-1,25
 160 578 160 578 160 559 c 0,26,27
 160 544 160 544 160.5 529 c 128,-1,28
 161 514 161 514 161.5 496 c 128,-1,29
 162 478 162 478 162.5 455.5 c 128,-1,30
 163 433 163 433 163 403 c 1,31,32
 200 403 200 403 227.5 402.5 c 128,-1,33
 255 402 255 402 275.5 401.5 c 128,-1,34
 296 401 296 401 312 400 c 128,-1,35
 328 399 328 399 343 398 c 0,36,37
 384 396 384 396 396.5 384 c 128,-1,38
 409 372 409 372 409 354 c 0,39,40
 409 344 409 344 407.5 336 c 128,-1,41
 406 328 406 328 399 322 c 128,-1,42
 392 316 392 316 379 312 c 128,-1,43
 366 308 366 308 342 306 c 0,44,45
 326 305 326 305 311.5 304.5 c 128,-1,46
 297 304 297 304 277.5 303.5 c 128,-1,47
 258 303 258 303 231 303 c 128,-1,48
 204 303 204 303 163 303 c 1,49,50
 162.333333333 263 162.333333333 263 162.333333333 221.888888889 c 0,51,52
 162.333333333 201.333333333 162.333333333 201.333333333 162.5 180.5 c 0,53,54
 162.555555556 173.555555556 162.555555556 173.555555556 162.555555556 166.567901235 c 0,55,56
 162.555555556 110.666666667 162.555555556 110.666666667 159 52 c 0,57,58
 157 13 157 13 145.5 4.5 c 128,-1,59
 134 -4 134 -4 111 -4 c 0,60,61
 89 -4 89 -4 78 5.5 c 128,-1,62
 67 15 67 15 65 51 c 0,63,64
 63 83 63 83 62.5 121.5 c 128,-1,65
 62 160 62 160 61 209.5 c 128,-1,66
 60 259 60 259 60 321.5 c 128,-1,67
 60 384 60 384 60 465 c 0,0,1
EndSplineSet
Validated: 1
EndChar

StartChar: G
Encoding: 71 71 22
Width: 635
Flags: W
LayerCount: 2
Fore
SplineSet
365 708 m 0,0,1
 398 708 398 708 433 702 c 128,-1,2
 468 696 468 696 497 684.5 c 128,-1,3
 526 673 526 673 545 656 c 128,-1,4
 564 639 564 639 564 617 c 0,5,6
 564 594 564 594 552 582 c 128,-1,7
 540 570 540 570 522 570 c 0,8,9
 505 570 505 570 490.5 576 c 128,-1,10
 476 582 476 582 458 589 c 128,-1,11
 440 596 440 596 415 602 c 128,-1,12
 390 608 390 608 352 608 c 0,13,14
 310 608 310 608 273.5 588.5 c 128,-1,15
 237 569 237 569 209 534.5 c 128,-1,16
 181 500 181 500 165 453 c 128,-1,17
 149 406 149 406 149 351 c 0,18,19
 149 284 149 284 166 235 c 128,-1,20
 183 186 183 186 210.5 154 c 128,-1,21
 238 122 238 122 272.5 106.5 c 128,-1,22
 307 91 307 91 342 91 c 0,23,24
 399 91 399 91 432.5 107.5 c 128,-1,25
 466 124 466 124 486 150 c 1,26,27
 487 171 487 171 487 200 c 128,-1,28
 487 229 487 229 487 263 c 0,29,30
 487 276 487 276 485 283.5 c 128,-1,31
 483 291 483 291 475 295 c 128,-1,32
 467 299 467 299 451.5 300 c 128,-1,33
 436 301 436 301 410 301 c 0,34,35
 378 301 378 301 358 309.5 c 128,-1,36
 338 318 338 318 338 346 c 0,37,38
 338 366 338 366 348.5 378.5 c 128,-1,39
 359 391 359 391 392 393 c 0,40,41
 398 393 398 393 411.5 393.5 c 128,-1,42
 425 394 425 394 440.5 394 c 128,-1,43
 456 394 456 394 471 394 c 128,-1,44
 486 394 486 394 495 394 c 0,45,46
 525 394 525 394 543 388.5 c 128,-1,47
 561 383 561 383 575 364 c 0,48,49
 582 354 582 354 583.5 329 c 128,-1,50
 585 304 585 304 585 271 c 2,51,-1
 585 13 l 2,52,53
 585 -14 585 -14 570.5 -27 c 128,-1,54
 556 -40 556 -40 537 -40 c 0,55,56
 514 -40 514 -40 499.5 -28.5 c 128,-1,57
 485 -17 485 -17 485 8 c 2,58,-1
 485 47 l 1,59,60
 459 17 459 17 423.5 4 c 128,-1,61
 388 -9 388 -9 334 -9 c 0,62,63
 279 -9 279 -9 226 13 c 128,-1,64
 173 35 173 35 132 78.5 c 128,-1,65
 91 122 91 122 65.5 187.5 c 128,-1,66
 40 253 40 253 40 340 c 256,67,68
 40 427 40 427 65.5 495 c 128,-1,69
 91 563 91 563 135 610.5 c 128,-1,70
 179 658 179 658 238 683 c 128,-1,71
 297 708 297 708 365 708 c 0,0,1
EndSplineSet
Validated: 1
EndChar

StartChar: H
Encoding: 72 72 23
Width: 610
Flags: W
LayerCount: 2
Fore
SplineSet
455 62 m 0,0,1
 453 116 453 116 451.5 175.5 c 128,-1,2
 450 235 450 235 450 313 c 1,3,4
 418 312 418 312 382 311.5 c 128,-1,5
 346 311 346 311 308 311 c 0,6,7
 263 311 263 311 226 311 c 128,-1,8
 189 311 189 311 160 312 c 1,9,10
 159 249 159 249 158 190.5 c 128,-1,11
 157 132 157 132 154 63 c 0,12,13
 153 39 153 39 149.5 26 c 128,-1,14
 146 13 146 13 140 6 c 128,-1,15
 134 -1 134 -1 126.5 -2.5 c 128,-1,16
 119 -4 119 -4 109 -4 c 0,17,18
 91 -4 91 -4 79 8.5 c 128,-1,19
 67 21 67 21 65 62 c 0,20,21
 63 98 63 98 62.5 137 c 128,-1,22
 62 176 62 176 61 221 c 128,-1,23
 60 266 60 266 60 318.5 c 128,-1,24
 60 371 60 371 60 436 c 0,25,26
 60 507 60 507 61 557.5 c 128,-1,27
 62 608 62 608 66.5 640 c 128,-1,28
 71 672 71 672 81 687 c 128,-1,29
 91 702 91 702 109 702 c 0,30,31
 126 702 126 702 139 691 c 128,-1,32
 152 680 152 680 154 640 c 0,33,34
 156 606 156 606 157 578.5 c 128,-1,35
 158 551 158 551 159 524.5 c 128,-1,36
 160 498 160 498 160 470 c 128,-1,37
 160 442 160 442 160 408 c 1,38,39
 235 411 235 411 307 411 c 0,40,41
 342 411 342 411 377.5 410 c 128,-1,42
 413 409 413 409 450 407 c 1,43,-1
 450 436 l 2,44,45
 450 507 450 507 451 557.5 c 128,-1,46
 452 608 452 608 456.5 640 c 128,-1,47
 461 672 461 672 471 687 c 128,-1,48
 481 702 481 702 499 702 c 0,49,50
 516 702 516 702 529 691 c 128,-1,51
 542 680 542 680 544 640 c 0,52,53
 546 604 546 604 547 576 c 128,-1,54
 548 548 548 548 549 520.5 c 128,-1,55
 550 493 550 493 550 463.5 c 128,-1,56
 550 434 550 434 550 397 c 0,57,58
 550 352 550 352 550 311 c 128,-1,59
 550 270 550 270 549 230 c 128,-1,60
 548 190 548 190 547 149 c 128,-1,61
 546 108 546 108 544 63 c 0,62,63
 543 39 543 39 539.5 26 c 128,-1,64
 536 13 536 13 530 6 c 128,-1,65
 524 -1 524 -1 516.5 -2.5 c 128,-1,66
 509 -4 509 -4 499 -4 c 0,67,68
 481 -4 481 -4 469 8.5 c 128,-1,69
 457 21 457 21 455 62 c 0,0,1
EndSplineSet
Validated: 1
EndChar

StartChar: I
Encoding: 73 73 24
Width: 244
Flags: W
LayerCount: 2
Fore
SplineSet
75 62 m 0,0,1
 73 98 73 98 72.5 137 c 128,-1,2
 72 176 72 176 71 221 c 128,-1,3
 70 266 70 266 70 318.5 c 128,-1,4
 70 371 70 371 70 436 c 0,5,6
 70 507 70 507 71 557.5 c 128,-1,7
 72 608 72 608 77 640 c 128,-1,8
 82 672 82 672 92.5 687 c 128,-1,9
 103 702 103 702 121 702 c 0,10,11
 130 702 130 702 138 700 c 128,-1,12
 146 698 146 698 152 691.5 c 128,-1,13
 158 685 158 685 162.5 672.5 c 128,-1,14
 167 660 167 660 168 640 c 0,15,16
 170 604 170 604 171 576 c 128,-1,17
 172 548 172 548 173 520.5 c 128,-1,18
 174 493 174 493 174 463.5 c 128,-1,19
 174 434 174 434 174 397 c 0,20,21
 174 352 174 352 174 311 c 128,-1,22
 174 270 174 270 173 230 c 128,-1,23
 172 190 172 190 171 149 c 128,-1,24
 170 108 170 108 168 63 c 0,25,26
 167 39 167 39 163 26 c 128,-1,27
 159 13 159 13 153 6 c 128,-1,28
 147 -1 147 -1 139 -2.5 c 128,-1,29
 131 -4 131 -4 121 -4 c 0,30,31
 103 -4 103 -4 90 8.5 c 128,-1,32
 77 21 77 21 75 62 c 0,0,1
EndSplineSet
Validated: 1
EndChar

StartChar: Iacute
Encoding: 205 205 25
Width: 244
Flags: W
LayerCount: 2
Fore
SplineSet
75 62 m 0,0,1
 73 98 73 98 72.5 137 c 128,-1,2
 72 176 72 176 71 221 c 128,-1,3
 70 266 70 266 70 318.5 c 128,-1,4
 70 371 70 371 70 436 c 0,5,6
 70 507 70 507 71 557.5 c 128,-1,7
 72 608 72 608 77 640 c 128,-1,8
 82 672 82 672 92.5 687 c 128,-1,9
 103 702 103 702 121 702 c 0,10,11
 130 702 130 702 138 700 c 128,-1,12
 146 698 146 698 152 691.5 c 128,-1,13
 158 685 158 685 162.5 672.5 c 128,-1,14
 167 660 167 660 168 640 c 0,15,16
 170 604 170 604 171 576 c 128,-1,17
 172 548 172 548 173 520.5 c 128,-1,18
 174 493 174 493 174 463.5 c 128,-1,19
 174 434 174 434 174 397 c 0,20,21
 174 352 174 352 174 311 c 128,-1,22
 174 270 174 270 173 230 c 128,-1,23
 172 190 172 190 171 149 c 128,-1,24
 170 108 170 108 168 63 c 0,25,26
 167 39 167 39 163 26 c 128,-1,27
 159 13 159 13 153 6 c 128,-1,28
 147 -1 147 -1 139 -2.5 c 128,-1,29
 131 -4 131 -4 121 -4 c 0,30,31
 103 -4 103 -4 90 8.5 c 128,-1,32
 77 21 77 21 75 62 c 0,0,1
64 773 m 0,33,34
 53 775 53 775 42.5 780.5 c 128,-1,35
 32 786 32 786 32 801 c 0,36,37
 33 813 33 813 46.5 829 c 128,-1,38
 60 845 60 845 80 861.5 c 128,-1,39
 100 878 100 878 125 893.5 c 128,-1,40
 150 909 150 909 174.5 921 c 128,-1,41
 199 933 199 933 220 940.5 c 128,-1,42
 241 948 241 948 254 948 c 0,43,44
 271 948 271 948 283.5 938 c 128,-1,45
 296 928 296 928 296 909 c 0,46,47
 296 897 296 897 283 882.5 c 128,-1,48
 270 868 270 868 249 853 c 128,-1,49
 228 838 228 838 202 823.5 c 128,-1,50
 176 809 176 809 150.5 798 c 128,-1,51
 125 787 125 787 102 780 c 128,-1,52
 79 773 79 773 64 773 c 0,33,34
EndSplineSet
Validated: 1
EndChar

StartChar: Icircumflex
Encoding: 206 206 26
Width: 244
Flags: W
LayerCount: 2
Fore
SplineSet
75 62 m 0,0,1
 73 98 73 98 72.5 137 c 128,-1,2
 72 176 72 176 71 221 c 128,-1,3
 70 266 70 266 70 318.5 c 128,-1,4
 70 371 70 371 70 436 c 0,5,6
 70 507 70 507 71 557.5 c 128,-1,7
 72 608 72 608 77 640 c 128,-1,8
 82 672 82 672 92.5 687 c 128,-1,9
 103 702 103 702 121 702 c 0,10,11
 130 702 130 702 138 700 c 128,-1,12
 146 698 146 698 152 691.5 c 128,-1,13
 158 685 158 685 162.5 672.5 c 128,-1,14
 167 660 167 660 168 640 c 0,15,16
 170 604 170 604 171 576 c 128,-1,17
 172 548 172 548 173 520.5 c 128,-1,18
 174 493 174 493 174 463.5 c 128,-1,19
 174 434 174 434 174 397 c 0,20,21
 174 352 174 352 174 311 c 128,-1,22
 174 270 174 270 173 230 c 128,-1,23
 172 190 172 190 171 149 c 128,-1,24
 170 108 170 108 168 63 c 0,25,26
 167 39 167 39 163 26 c 128,-1,27
 159 13 159 13 153 6 c 128,-1,28
 147 -1 147 -1 139 -2.5 c 128,-1,29
 131 -4 131 -4 121 -4 c 0,30,31
 103 -4 103 -4 90 8.5 c 128,-1,32
 77 21 77 21 75 62 c 0,0,1
120 947 m 0,33,34
 130 947 130 947 147.5 938.5 c 128,-1,35
 165 930 165 930 184 917.5 c 128,-1,36
 203 905 203 905 221.5 889.5 c 128,-1,37
 240 874 240 874 253 861 c 0,38,39
 264 849 264 849 270.5 837.5 c 128,-1,40
 277 826 277 826 277 813 c 0,41,42
 277 796 277 796 266.5 783 c 128,-1,43
 256 770 256 770 236 770 c 0,44,45
 219 770 219 770 197.5 785 c 128,-1,46
 176 800 176 800 141 832 c 2,47,-1
 120 851 l 1,48,-1
 99 832 l 2,49,50
 64 800 64 800 41.5 785.5 c 128,-1,51
 19 771 19 771 2 771 c 0,52,53
 -16 771 -16 771 -27.5 782.5 c 128,-1,54
 -39 794 -39 794 -39 811 c 0,55,56
 -39 820 -39 820 -33.5 832.5 c 128,-1,57
 -28 845 -28 845 -13 861 c 0,58,59
 0 874 0 874 18.5 889.5 c 128,-1,60
 37 905 37 905 56 917.5 c 128,-1,61
 75 930 75 930 92 938.5 c 128,-1,62
 109 947 109 947 120 947 c 0,33,34
EndSplineSet
Validated: 1
EndChar

StartChar: Idieresis
Encoding: 207 207 27
Width: 244
Flags: W
LayerCount: 2
Fore
SplineSet
75 62 m 0,0,1
 73 98 73 98 72.5 137 c 128,-1,2
 72 176 72 176 71 221 c 128,-1,3
 70 266 70 266 70 318.5 c 128,-1,4
 70 371 70 371 70 436 c 0,5,6
 70 507 70 507 71 557.5 c 128,-1,7
 72 608 72 608 77 640 c 128,-1,8
 82 672 82 672 92.5 687 c 128,-1,9
 103 702 103 702 121 702 c 0,10,11
 130 702 130 702 138 700 c 128,-1,12
 146 698 146 698 152 691.5 c 128,-1,13
 158 685 158 685 162.5 672.5 c 128,-1,14
 167 660 167 660 168 640 c 0,15,16
 170 604 170 604 171 576 c 128,-1,17
 172 548 172 548 173 520.5 c 128,-1,18
 174 493 174 493 174 463.5 c 128,-1,19
 174 434 174 434 174 397 c 0,20,21
 174 352 174 352 174 311 c 128,-1,22
 174 270 174 270 173 230 c 128,-1,23
 172 190 172 190 171 149 c 128,-1,24
 170 108 170 108 168 63 c 0,25,26
 167 39 167 39 163 26 c 128,-1,27
 159 13 159 13 153 6 c 128,-1,28
 147 -1 147 -1 139 -2.5 c 128,-1,29
 131 -4 131 -4 121 -4 c 0,30,31
 103 -4 103 -4 90 8.5 c 128,-1,32
 77 21 77 21 75 62 c 0,0,1
29 910 m 0,33,34
 52 910 52 910 71.5 892 c 128,-1,35
 91 874 91 874 91 849 c 0,36,37
 91 825 91 825 71 807.5 c 128,-1,38
 51 790 51 790 26 790 c 0,39,40
 5 790 5 790 -13.5 807.5 c 128,-1,41
 -32 825 -32 825 -32 851 c 0,42,43
 -32 875 -32 875 -13.5 892.5 c 128,-1,44
 5 910 5 910 29 910 c 0,33,34
209 910 m 0,45,46
 232 910 232 910 251.5 892 c 128,-1,47
 271 874 271 874 271 849 c 0,48,49
 271 825 271 825 251 807.5 c 128,-1,50
 231 790 231 790 206 790 c 0,51,52
 185 790 185 790 166.5 807.5 c 128,-1,53
 148 825 148 825 148 851 c 0,54,55
 148 875 148 875 166.5 892.5 c 128,-1,56
 185 910 185 910 209 910 c 0,45,46
EndSplineSet
Validated: 1
EndChar

StartChar: Igrave
Encoding: 204 204 28
Width: 244
Flags: W
LayerCount: 2
Fore
SplineSet
75 62 m 0,0,1
 73 98 73 98 72.5 137 c 128,-1,2
 72 176 72 176 71 221 c 128,-1,3
 70 266 70 266 70 318.5 c 128,-1,4
 70 371 70 371 70 436 c 0,5,6
 70 507 70 507 71 557.5 c 128,-1,7
 72 608 72 608 77 640 c 128,-1,8
 82 672 82 672 92.5 687 c 128,-1,9
 103 702 103 702 121 702 c 0,10,11
 130 702 130 702 138 700 c 128,-1,12
 146 698 146 698 152 691.5 c 128,-1,13
 158 685 158 685 162.5 672.5 c 128,-1,14
 167 660 167 660 168 640 c 0,15,16
 170 604 170 604 171 576 c 128,-1,17
 172 548 172 548 173 520.5 c 128,-1,18
 174 493 174 493 174 463.5 c 128,-1,19
 174 434 174 434 174 397 c 0,20,21
 174 352 174 352 174 311 c 128,-1,22
 174 270 174 270 173 230 c 128,-1,23
 172 190 172 190 171 149 c 128,-1,24
 170 108 170 108 168 63 c 0,25,26
 167 39 167 39 163 26 c 128,-1,27
 159 13 159 13 153 6 c 128,-1,28
 147 -1 147 -1 139 -2.5 c 128,-1,29
 131 -4 131 -4 121 -4 c 0,30,31
 103 -4 103 -4 90 8.5 c 128,-1,32
 77 21 77 21 75 62 c 0,0,1
160 777 m 0,33,34
 145 777 145 777 122 784 c 128,-1,35
 99 791 99 791 73.5 802 c 128,-1,36
 48 813 48 813 22 827.5 c 128,-1,37
 -4 842 -4 842 -25 857 c 128,-1,38
 -46 872 -46 872 -59 886.5 c 128,-1,39
 -72 901 -72 901 -72 913 c 0,40,41
 -72 932 -72 932 -60 941 c 128,-1,42
 -48 950 -48 950 -31 950 c 0,43,44
 -12 950 -12 950 24.5 934 c 128,-1,45
 61 918 61 918 97.5 895 c 128,-1,46
 134 872 134 872 161.5 847 c 128,-1,47
 189 822 189 822 191 803 c 0,48,49
 191 788 191 788 181 783.5 c 128,-1,50
 171 779 171 779 160 777 c 0,33,34
EndSplineSet
Validated: 1
EndChar

StartChar: J
Encoding: 74 74 29
Width: 426
Flags: W
LayerCount: 2
Fore
SplineSet
266 648 m 2,0,1
 266 672 266 672 270 685 c 128,-1,2
 274 698 274 698 281 705 c 128,-1,3
 288 712 288 712 297 713.5 c 128,-1,4
 306 715 306 715 316 715 c 256,5,6
 326 715 326 715 335 712.5 c 128,-1,7
 344 710 344 710 351 702.5 c 128,-1,8
 358 695 358 695 362 682 c 128,-1,9
 366 669 366 669 366 649 c 2,10,-1
 366 229 l 2,11,12
 366 169 366 169 356.5 125 c 128,-1,13
 347 81 347 81 325 52.5 c 128,-1,14
 303 24 303 24 267 10 c 128,-1,15
 231 -4 231 -4 177 -4 c 0,16,17
 158 -4 158 -4 131 2 c 128,-1,18
 104 8 104 8 79.5 20.5 c 128,-1,19
 55 33 55 33 37.5 53.5 c 128,-1,20
 20 74 20 74 20 103 c 0,21,22
 20 126 20 126 35.5 135 c 128,-1,23
 51 144 51 144 70 144 c 0,24,25
 84 144 84 144 96 136.5 c 128,-1,26
 108 129 108 129 120.5 120 c 128,-1,27
 133 111 133 111 147 103.5 c 128,-1,28
 161 96 161 96 179 96 c 0,29,30
 201 96 201 96 217 102 c 128,-1,31
 233 108 233 108 243.5 125 c 128,-1,32
 254 142 254 142 259.5 172.5 c 128,-1,33
 265 203 265 203 265 251 c 2,34,-1
 266 648 l 2,0,1
EndSplineSet
Validated: 1
EndChar

StartChar: K
Encoding: 75 75 30
Width: 570
Flags: W
LayerCount: 2
Fore
SplineSet
65 62 m 0,0,1
 63 98 63 98 62.5 137 c 128,-1,2
 62 176 62 176 61 221 c 128,-1,3
 60 266 60 266 60 318.5 c 128,-1,4
 60 371 60 371 60 436 c 0,5,6
 60 507 60 507 61 557.5 c 128,-1,7
 62 608 62 608 66.5 640 c 128,-1,8
 71 672 71 672 81 687 c 128,-1,9
 91 702 91 702 109 702 c 0,10,11
 126 702 126 702 139 691 c 128,-1,12
 152 680 152 680 154 640 c 0,13,14
 156 604 156 604 157 576 c 128,-1,15
 158 548 158 548 159 520.5 c 128,-1,16
 160 493 160 493 160 463.5 c 128,-1,17
 160 434 160 434 160 397 c 2,18,-1
 160 345 l 1,19,-1
 374 590 l 2,20,21
 416 638 416 638 439 653.5 c 128,-1,22
 462 669 462 669 479 669 c 0,23,24
 499 669 499 669 508.5 659 c 128,-1,25
 518 649 518 649 518 634 c 0,26,27
 518 628 518 628 516 622 c 128,-1,28
 514 616 514 616 507.5 605.5 c 128,-1,29
 501 595 501 595 488 579.5 c 128,-1,30
 475 564 475 564 453 540 c 2,31,-1
 314 389 l 1,32,-1
 533 77 l 2,33,34
 541 66 541 66 545.5 54 c 128,-1,35
 550 42 550 42 550 31 c 0,36,37
 550 12 550 12 539.5 -0.5 c 128,-1,38
 529 -13 529 -13 503 -13 c 0,39,40
 482 -13 482 -13 465.5 -1.5 c 128,-1,41
 449 10 449 10 435 32 c 2,42,-1
 245 313 l 1,43,-1
 159 219 l 1,44,45
 158 181 158 181 157 143 c 128,-1,46
 156 105 156 105 154 63 c 0,47,48
 153 39 153 39 149.5 26 c 128,-1,49
 146 13 146 13 140 6 c 128,-1,50
 134 -1 134 -1 126.5 -2.5 c 128,-1,51
 119 -4 119 -4 109 -4 c 0,52,53
 91 -4 91 -4 79 8.5 c 128,-1,54
 67 21 67 21 65 62 c 0,0,1
EndSplineSet
Validated: 1
EndChar

StartChar: L
Encoding: 76 76 31
Width: 454
Flags: W
LayerCount: 2
Fore
SplineSet
160 279 m 0,0,1
 160 247 160 247 160 222.5 c 128,-1,2
 160 198 160 198 159.5 176 c 128,-1,3
 159 154 159 154 158 132 c 128,-1,4
 157 110 157 110 156 83 c 1,5,6
 225 91 225 91 264 96 c 128,-1,7
 303 101 303 101 325.5 104 c 128,-1,8
 348 107 348 107 360.5 108 c 128,-1,9
 373 109 373 109 390 109 c 0,10,11
 434 109 434 109 434 66 c 0,12,13
 434 49 434 49 416.5 37 c 128,-1,14
 399 25 399 25 372.5 16.5 c 128,-1,15
 346 8 346 8 313.5 2.5 c 128,-1,16
 281 -3 281 -3 250.5 -5.5 c 128,-1,17
 220 -8 220 -8 195.5 -9 c 128,-1,18
 171 -10 171 -10 161 -10 c 0,19,20
 125 -10 125 -10 105 -5.5 c 128,-1,21
 85 -1 85 -1 75 21.5 c 128,-1,22
 65 44 65 44 62.5 90 c 128,-1,23
 60 136 60 136 60 220 c 0,24,25
 60 301 60 301 60 364 c 128,-1,26
 60 427 60 427 61 477 c 128,-1,27
 62 527 62 527 62.5 566 c 128,-1,28
 63 605 63 605 65 637 c 0,29,30
 67 678 67 678 79 690.5 c 128,-1,31
 91 703 91 703 109 703 c 0,32,33
 119 703 119 703 126.5 701.5 c 128,-1,34
 134 700 134 700 140 693 c 128,-1,35
 146 686 146 686 149.5 673 c 128,-1,36
 153 660 153 660 154 636 c 0,37,38
 158 548 158 548 159 462 c 128,-1,39
 160 376 160 376 160 279 c 0,0,1
EndSplineSet
Validated: 1
EndChar

StartChar: M
Encoding: 77 77 32
Width: 737
Flags: W
LayerCount: 2
Fore
SplineSet
328 170 m 0,0,1
 282 271 282 271 246.5 365.5 c 128,-1,2
 211 460 211 460 186 534 c 1,3,4
 163 410 163 410 147.5 284 c 128,-1,5
 132 158 132 158 108 43 c 0,6,7
 102 17 102 17 86 8.5 c 128,-1,8
 70 0 70 0 59 0 c 0,9,10
 41 0 41 0 30.5 11 c 128,-1,11
 20 22 20 22 20 39 c 0,12,13
 20 62 20 62 25.5 109.5 c 128,-1,14
 31 157 31 157 39.5 217 c 128,-1,15
 48 277 48 277 59 343 c 128,-1,16
 70 409 70 409 81.5 470.5 c 128,-1,17
 93 532 93 532 103.5 582 c 128,-1,18
 114 632 114 632 122 659 c 0,19,20
 135 705 135 705 175 705 c 0,21,22
 199 705 199 705 216 681.5 c 128,-1,23
 233 658 233 658 252.5 609.5 c 128,-1,24
 272 561 272 561 299.5 487 c 128,-1,25
 327 413 327 413 371 313 c 1,26,27
 414 413 414 413 440.5 486.5 c 128,-1,28
 467 560 467 560 485.5 608.5 c 128,-1,29
 504 657 504 657 521 680.5 c 128,-1,30
 538 704 538 704 563 704 c 0,31,32
 586 704 586 704 598 692.5 c 128,-1,33
 610 681 610 681 616 658 c 0,34,35
 623 630 623 630 633 580.5 c 128,-1,36
 643 531 643 531 654.5 470.5 c 128,-1,37
 666 410 666 410 677 344 c 128,-1,38
 688 278 688 278 697 218 c 128,-1,39
 706 158 706 158 711.5 109.5 c 128,-1,40
 717 61 717 61 717 35 c 0,41,42
 717 19 717 19 706 9.5 c 128,-1,43
 695 0 695 0 678 0 c 0,44,45
 667 0 667 0 651 8.5 c 128,-1,46
 635 17 635 17 629 43 c 0,47,48
 617 100 617 100 607.5 161 c 128,-1,49
 598 222 598 222 589.5 284.5 c 128,-1,50
 581 347 581 347 573 409.5 c 128,-1,51
 565 472 565 472 556 534 c 1,52,53
 543 494 543 494 526 446 c 128,-1,54
 509 398 509 398 490 349.5 c 128,-1,55
 471 301 471 301 451 254 c 128,-1,56
 431 207 431 207 412 169 c 0,57,58
 405 156 405 156 393.5 149.5 c 128,-1,59
 382 143 382 143 370 143 c 0,60,61
 357 143 357 143 345.5 149.5 c 128,-1,62
 334 156 334 156 328 170 c 0,0,1
EndSplineSet
Validated: 1
EndChar

StartChar: N
Encoding: 78 78 33
Width: 631
Flags: W
LayerCount: 2
Fore
SplineSet
456 47 m 0,0,1
 424 91 424 91 395.5 134.5 c 128,-1,2
 367 178 367 178 334.5 230 c 128,-1,3
 302 282 302 282 260.5 345.5 c 128,-1,4
 219 409 219 409 161 494 c 1,5,6
 161 419 161 419 161 359.5 c 128,-1,7
 161 300 161 300 160 249 c 128,-1,8
 159 198 159 198 158 153 c 128,-1,9
 157 108 157 108 155 63 c 0,10,11
 154 39 154 39 150.5 26 c 128,-1,12
 147 13 147 13 141 6 c 128,-1,13
 135 -1 135 -1 127.5 -2.5 c 128,-1,14
 120 -4 120 -4 110 -4 c 0,15,16
 92 -4 92 -4 80 8.5 c 128,-1,17
 68 21 68 21 66 62 c 0,18,19
 61 172 61 172 60.5 282.5 c 128,-1,20
 60 393 60 393 60 511 c 0,21,22
 60 578 60 578 61.5 616 c 128,-1,23
 63 654 63 654 68.5 673 c 128,-1,24
 74 692 74 692 83.5 697 c 128,-1,25
 93 702 93 702 109 702 c 256,26,27
 125 702 125 702 151 677.5 c 128,-1,28
 177 653 177 653 208 613 c 128,-1,29
 239 573 239 573 274.5 521 c 128,-1,30
 310 469 310 469 345 414 c 128,-1,31
 380 359 380 359 412.5 305 c 128,-1,32
 445 251 445 251 472 207 c 1,33,34
 471 254 471 254 471 310.5 c 128,-1,35
 471 367 471 367 471 436 c 0,36,37
 471 515 471 515 472 566.5 c 128,-1,38
 473 618 473 618 477.5 648 c 128,-1,39
 482 678 482 678 492 690 c 128,-1,40
 502 702 502 702 520 702 c 0,41,42
 537 702 537 702 550 691 c 128,-1,43
 563 680 563 680 565 640 c 0,44,45
 567 604 567 604 568 576 c 128,-1,46
 569 548 569 548 570 520.5 c 128,-1,47
 571 493 571 493 571 463.5 c 128,-1,48
 571 434 571 434 571 397 c 0,49,50
 571 352 571 352 571 311 c 128,-1,51
 571 270 571 270 570 230 c 128,-1,52
 569 190 569 190 568 149 c 128,-1,53
 567 108 567 108 565 63 c 0,54,55
 564 39 564 39 560.5 26 c 128,-1,56
 557 13 557 13 551 6 c 128,-1,57
 545 -1 545 -1 537.5 -2.5 c 128,-1,58
 530 -4 530 -4 520 -4 c 0,59,60
 503 -4 503 -4 491 6 c 128,-1,61
 479 16 479 16 456 47 c 0,0,1
EndSplineSet
Validated: 1
EndChar

StartChar: A
Encoding: 65 65 34
Width: 597
Flags: W
LayerCount: 2
Fore
SplineSet
479 51 m 0,0,1
 469 75 469 75 457.5 106.5 c 128,-1,2
 446 138 446 138 433 173 c 1,3,4
 403 172 403 172 370 171.5 c 128,-1,5
 337 171 337 171 303 171 c 0,6,7
 260 171 260 171 225 171 c 128,-1,8
 190 171 190 171 161 172 c 1,9,10
 149 137 149 137 138 106 c 128,-1,11
 127 75 127 75 117 51 c 0,12,13
 97 0 97 0 59 0 c 0,14,15
 45 0 45 0 32.5 9 c 128,-1,16
 20 18 20 18 20 35 c 256,17,18
 20 52 20 52 26 79.5 c 128,-1,19
 32 107 32 107 41.5 138.5 c 128,-1,20
 51 170 51 170 62 203.5 c 128,-1,21
 73 237 73 237 83 266 c 0,22,23
 93 298 93 298 111.5 347.5 c 128,-1,24
 130 397 130 397 151 451 c 128,-1,25
 172 505 172 505 193 557.5 c 128,-1,26
 214 610 214 610 231 649 c 0,27,28
 235 659 235 659 241 671.5 c 128,-1,29
 247 684 247 684 255.5 695 c 128,-1,30
 264 706 264 706 274.5 714 c 128,-1,31
 285 722 285 722 298 722 c 256,32,33
 311 722 311 722 322 713.5 c 128,-1,34
 333 705 333 705 341.5 693 c 128,-1,35
 350 681 350 681 356.5 668 c 128,-1,36
 363 655 363 655 367 645 c 0,37,38
 383 605 383 605 403.5 553 c 128,-1,39
 424 501 424 501 444.5 448 c 128,-1,40
 465 395 465 395 483 347 c 128,-1,41
 501 299 501 299 512 266 c 0,42,43
 521 237 521 237 532.5 204 c 128,-1,44
 544 171 544 171 554 139 c 128,-1,45
 564 107 564 107 570.5 79.5 c 128,-1,46
 577 52 577 52 577 35 c 256,47,48
 577 18 577 18 564.5 9 c 128,-1,49
 552 0 552 0 538 0 c 0,50,51
 520 0 520 0 505 12.5 c 128,-1,52
 490 25 490 25 479 51 c 0,0,1
302 271 m 0,53,54
 326 271 326 271 350 270.5 c 128,-1,55
 374 270 374 270 398 269 c 1,56,57
 386 304 386 304 374 339 c 128,-1,58
 362 374 362 374 351.5 406 c 128,-1,59
 341 438 341 438 332.5 465.5 c 128,-1,60
 324 493 324 493 318 514 c 0,61,62
 314 527 314 527 309 535 c 128,-1,63
 304 543 304 543 296 543 c 256,64,65
 288 543 288 543 283 534.5 c 128,-1,66
 278 526 278 526 274 513 c 0,67,68
 262 472 262 472 240.5 406.5 c 128,-1,69
 219 341 219 341 195 269 c 1,70,71
 222 270 222 270 249 270.5 c 128,-1,72
 276 271 276 271 302 271 c 0,53,54
EndSplineSet
Validated: 1
EndChar

StartChar: Ntilde
Encoding: 209 209 35
Width: 631
Flags: W
LayerCount: 2
Fore
SplineSet
456 47 m 0,0,1
 424 91 424 91 395.5 134.5 c 128,-1,2
 367 178 367 178 334.5 230 c 128,-1,3
 302 282 302 282 260.5 345.5 c 128,-1,4
 219 409 219 409 161 494 c 1,5,6
 161 419 161 419 161 359.5 c 128,-1,7
 161 300 161 300 160 249 c 128,-1,8
 159 198 159 198 158 153 c 128,-1,9
 157 108 157 108 155 63 c 0,10,11
 154 39 154 39 150.5 26 c 128,-1,12
 147 13 147 13 141 6 c 128,-1,13
 135 -1 135 -1 127.5 -2.5 c 128,-1,14
 120 -4 120 -4 110 -4 c 0,15,16
 92 -4 92 -4 80 8.5 c 128,-1,17
 68 21 68 21 66 62 c 0,18,19
 61 172 61 172 60.5 282.5 c 128,-1,20
 60 393 60 393 60 511 c 0,21,22
 60 578 60 578 61.5 616 c 128,-1,23
 63 654 63 654 68.5 673 c 128,-1,24
 74 692 74 692 83.5 697 c 128,-1,25
 93 702 93 702 109 702 c 256,26,27
 125 702 125 702 151 677.5 c 128,-1,28
 177 653 177 653 208 613 c 128,-1,29
 239 573 239 573 274.5 521 c 128,-1,30
 310 469 310 469 345 414 c 128,-1,31
 380 359 380 359 412.5 305 c 128,-1,32
 445 251 445 251 472 207 c 1,33,34
 471 254 471 254 471 310.5 c 128,-1,35
 471 367 471 367 471 436 c 0,36,37
 471 515 471 515 472 566.5 c 128,-1,38
 473 618 473 618 477.5 648 c 128,-1,39
 482 678 482 678 492 690 c 128,-1,40
 502 702 502 702 520 702 c 0,41,42
 537 702 537 702 550 691 c 128,-1,43
 563 680 563 680 565 640 c 0,44,45
 567 604 567 604 568 576 c 128,-1,46
 569 548 569 548 570 520.5 c 128,-1,47
 571 493 571 493 571 463.5 c 128,-1,48
 571 434 571 434 571 397 c 0,49,50
 571 352 571 352 571 311 c 128,-1,51
 571 270 571 270 570 230 c 128,-1,52
 569 190 569 190 568 149 c 128,-1,53
 567 108 567 108 565 63 c 0,54,55
 564 39 564 39 560.5 26 c 128,-1,56
 557 13 557 13 551 6 c 128,-1,57
 545 -1 545 -1 537.5 -2.5 c 128,-1,58
 530 -4 530 -4 520 -4 c 0,59,60
 503 -4 503 -4 491 6 c 128,-1,61
 479 16 479 16 456 47 c 0,0,1
237 843 m 0,62,63
 221 843 221 843 209 836 c 128,-1,64
 197 829 197 829 186.5 820 c 128,-1,65
 176 811 176 811 165.5 804 c 128,-1,66
 155 797 155 797 143 797 c 0,67,68
 130 797 130 797 121.5 807.5 c 128,-1,69
 113 818 113 818 113 835 c 256,70,71
 113 852 113 852 120 871 c 128,-1,72
 127 890 127 890 141.5 905.5 c 128,-1,73
 156 921 156 921 177 931.5 c 128,-1,74
 198 942 198 942 226 942 c 0,75,76
 255 942 255 942 275 934.5 c 128,-1,77
 295 927 295 927 310.5 917.5 c 128,-1,78
 326 908 326 908 341 900.5 c 128,-1,79
 356 893 356 893 376 893 c 0,80,81
 406 893 406 893 420.5 900 c 128,-1,82
 435 907 435 907 442.5 916 c 128,-1,83
 450 925 450 925 455 932 c 128,-1,84
 460 939 460 939 471 939 c 0,85,86
 485 939 485 939 497 931 c 128,-1,87
 509 923 509 923 509 908 c 0,88,89
 509 885 509 885 500.5 864.5 c 128,-1,90
 492 844 492 844 475 828 c 128,-1,91
 458 812 458 812 432.5 802.5 c 128,-1,92
 407 793 407 793 374 793 c 0,93,94
 353 793 353 793 336 801 c 128,-1,95
 319 809 319 809 303 818 c 128,-1,96
 287 827 287 827 271 835 c 128,-1,97
 255 843 255 843 237 843 c 0,62,63
EndSplineSet
Validated: 1
EndChar

StartChar: O
Encoding: 79 79 36
Width: 687
Flags: W
LayerCount: 2
Fore
SplineSet
328 -10 m 0,0,1
 268 -10 268 -10 215.5 14 c 128,-1,2
 163 38 163 38 124 83.5 c 128,-1,3
 85 129 85 129 62.5 195 c 128,-1,4
 40 261 40 261 40 345 c 0,5,6
 40 424 40 424 59.5 490 c 128,-1,7
 79 556 79 556 117.5 604 c 128,-1,8
 156 652 156 652 213 678.5 c 128,-1,9
 270 705 270 705 345 705 c 0,10,11
 406 705 406 705 461 683 c 128,-1,12
 516 661 516 661 557.5 617 c 128,-1,13
 599 573 599 573 623 507 c 128,-1,14
 647 441 647 441 647 353 c 0,15,16
 647 280 647 280 627.5 214 c 128,-1,17
 608 148 608 148 568.5 98.5 c 128,-1,18
 529 49 529 49 469 19.5 c 128,-1,19
 409 -10 409 -10 328 -10 c 0,0,1
330 84 m 0,20,21
 385 84 385 84 426 106.5 c 128,-1,22
 467 129 467 129 494 166 c 128,-1,23
 521 203 521 203 534 251.5 c 128,-1,24
 547 300 547 300 547 351 c 0,25,26
 547 413 547 413 530.5 461.5 c 128,-1,27
 514 510 514 510 486 543 c 128,-1,28
 458 576 458 576 421 593.5 c 128,-1,29
 384 611 384 611 342 611 c 0,30,31
 292 611 292 611 254.5 590 c 128,-1,32
 217 569 217 569 191.5 533 c 128,-1,33
 166 497 166 497 153 448.5 c 128,-1,34
 140 400 140 400 140 345 c 0,35,36
 140 286 140 286 155 237.5 c 128,-1,37
 170 189 170 189 195.5 155 c 128,-1,38
 221 121 221 121 256 102.5 c 128,-1,39
 291 84 291 84 330 84 c 0,20,21
EndSplineSet
Validated: 1
EndChar

StartChar: OE
Encoding: 338 338 37
Width: 937
Flags: W
LayerCount: 2
Fore
SplineSet
351 708 m 0,0,1
 387 708 387 708 424 701 c 128,-1,2
 461 694 461 694 490 680 c 1,3,4
 513 695 513 695 552 699 c 128,-1,5
 591 703 591 703 652 703 c 0,6,7
 653 703 653 703 673.5 703 c 128,-1,8
 694 703 694 703 723 702.5 c 128,-1,9
 752 702 752 702 783.5 701 c 128,-1,10
 815 700 815 700 836 699 c 0,11,12
 858 697 858 697 871.5 693.5 c 128,-1,13
 885 690 885 690 892 684.5 c 128,-1,14
 899 679 899 679 901 671.5 c 128,-1,15
 903 664 903 664 903 655 c 0,16,17
 903 632 903 632 890 621.5 c 128,-1,18
 877 611 877 611 837 608 c 0,19,20
 817 606 817 606 778.5 605.5 c 128,-1,21
 740 605 740 605 700 605 c 128,-1,22
 660 605 660 605 628 604.5 c 128,-1,23
 596 604 596 604 588 604 c 0,24,25
 562 603 562 603 551.5 592.5 c 128,-1,26
 541 582 541 582 541 543 c 0,27,28
 541 534 541 534 542.5 499.5 c 128,-1,29
 544 465 544 465 544 403 c 1,30,-1
 627 403 l 2,31,32
 680 403 680 403 713.5 401.5 c 128,-1,33
 747 400 747 400 765.5 395 c 128,-1,34
 784 390 784 390 791 379 c 128,-1,35
 798 368 798 368 798 350 c 0,36,37
 798 341 798 341 796.5 333.5 c 128,-1,38
 795 326 795 326 788 320.5 c 128,-1,39
 781 315 781 315 768 311.5 c 128,-1,40
 755 308 755 308 731 306 c 0,41,42
 702 304 702 304 676.5 303.5 c 128,-1,43
 651 303 651 303 626 303 c 2,44,-1
 542 303 l 1,45,46
 542 288 542 288 542 267 c 128,-1,47
 542 246 542 246 542 224 c 128,-1,48
 542 202 542 202 542.5 181 c 128,-1,49
 543 160 543 160 544 147 c 0,50,51
 545 131 545 131 548.5 120 c 128,-1,52
 552 109 552 109 561.5 102 c 128,-1,53
 571 95 571 95 589.5 92 c 128,-1,54
 608 89 608 89 639 89 c 2,55,-1
 854 89 l 2,56,57
 889 89 889 89 898 76 c 128,-1,58
 907 63 907 63 907 41 c 0,59,60
 907 23 907 23 899 13.5 c 128,-1,61
 891 4 891 4 860.5 -0.5 c 128,-1,62
 830 -5 830 -5 769.5 -6 c 128,-1,63
 709 -7 709 -7 603 -7 c 0,64,65
 564 -7 564 -7 537 -1 c 128,-1,66
 510 5 510 5 492 19 c 1,67,68
 463 6 463 6 427 -1.5 c 128,-1,69
 391 -9 391 -9 348 -9 c 0,70,71
 292 -9 292 -9 236.5 13 c 128,-1,72
 181 35 181 35 137.5 78.5 c 128,-1,73
 94 122 94 122 67 187.5 c 128,-1,74
 40 253 40 253 40 340 c 256,75,76
 40 427 40 427 64.5 495 c 128,-1,77
 89 563 89 563 131.5 610.5 c 128,-1,78
 174 658 174 658 230.5 683 c 128,-1,79
 287 708 287 708 351 708 c 0,0,1
444 152 m 0,80,81
 442 184 442 184 440 239 c 128,-1,82
 438 294 438 294 438 352 c 0,83,84
 438 385 438 385 438.5 420.5 c 128,-1,85
 439 456 439 456 440 493 c 0,86,87
 441 521 441 521 442 544 c 128,-1,88
 443 567 443 567 446 587 c 1,89,90
 429 595 429 595 404.5 601.5 c 128,-1,91
 380 608 380 608 338 608 c 0,92,93
 300 608 300 608 265.5 588.5 c 128,-1,94
 231 569 231 569 205.5 534.5 c 128,-1,95
 180 500 180 500 165 453 c 128,-1,96
 150 406 150 406 150 351 c 0,97,98
 150 283 150 283 167.5 234 c 128,-1,99
 185 185 185 185 213 153.5 c 128,-1,100
 241 122 241 122 276.5 106.5 c 128,-1,101
 312 91 312 91 348 91 c 0,102,103
 380 91 380 91 404.5 96.5 c 128,-1,104
 429 102 429 102 448 110 c 1,105,106
 446 120 446 120 445.5 130 c 128,-1,107
 445 140 445 140 444 152 c 0,80,81
EndSplineSet
Validated: 1
EndChar

StartChar: Oacute
Encoding: 211 211 38
Width: 687
Flags: W
LayerCount: 2
Fore
SplineSet
328 -10 m 0,0,1
 268 -10 268 -10 215.5 14 c 128,-1,2
 163 38 163 38 124 83.5 c 128,-1,3
 85 129 85 129 62.5 195 c 128,-1,4
 40 261 40 261 40 345 c 0,5,6
 40 424 40 424 59.5 490 c 128,-1,7
 79 556 79 556 117.5 604 c 128,-1,8
 156 652 156 652 213 678.5 c 128,-1,9
 270 705 270 705 345 705 c 0,10,11
 406 705 406 705 461 683 c 128,-1,12
 516 661 516 661 557.5 617 c 128,-1,13
 599 573 599 573 623 507 c 128,-1,14
 647 441 647 441 647 353 c 0,15,16
 647 280 647 280 627.5 214 c 128,-1,17
 608 148 608 148 568.5 98.5 c 128,-1,18
 529 49 529 49 469 19.5 c 128,-1,19
 409 -10 409 -10 328 -10 c 0,0,1
330 84 m 0,20,21
 385 84 385 84 426 106.5 c 128,-1,22
 467 129 467 129 494 166 c 128,-1,23
 521 203 521 203 534 251.5 c 128,-1,24
 547 300 547 300 547 351 c 0,25,26
 547 413 547 413 530.5 461.5 c 128,-1,27
 514 510 514 510 486 543 c 128,-1,28
 458 576 458 576 421 593.5 c 128,-1,29
 384 611 384 611 342 611 c 0,30,31
 292 611 292 611 254.5 590 c 128,-1,32
 217 569 217 569 191.5 533 c 128,-1,33
 166 497 166 497 153 448.5 c 128,-1,34
 140 400 140 400 140 345 c 0,35,36
 140 286 140 286 155 237.5 c 128,-1,37
 170 189 170 189 195.5 155 c 128,-1,38
 221 121 221 121 256 102.5 c 128,-1,39
 291 84 291 84 330 84 c 0,20,21
281 777 m 0,40,41
 270 779 270 779 259.5 784.5 c 128,-1,42
 249 790 249 790 249 805 c 0,43,44
 250 817 250 817 263.5 833 c 128,-1,45
 277 849 277 849 297 865.5 c 128,-1,46
 317 882 317 882 342 897.5 c 128,-1,47
 367 913 367 913 391.5 925 c 128,-1,48
 416 937 416 937 437 944.5 c 128,-1,49
 458 952 458 952 471 952 c 0,50,51
 488 952 488 952 500.5 942 c 128,-1,52
 513 932 513 932 513 913 c 0,53,54
 513 901 513 901 500 886.5 c 128,-1,55
 487 872 487 872 466 857 c 128,-1,56
 445 842 445 842 419 827.5 c 128,-1,57
 393 813 393 813 367.5 802 c 128,-1,58
 342 791 342 791 319 784 c 128,-1,59
 296 777 296 777 281 777 c 0,40,41
EndSplineSet
Validated: 1
EndChar

StartChar: Ocircumflex
Encoding: 212 212 39
Width: 687
Flags: W
LayerCount: 2
Fore
SplineSet
328 -10 m 0,0,1
 268 -10 268 -10 215.5 14 c 128,-1,2
 163 38 163 38 124 83.5 c 128,-1,3
 85 129 85 129 62.5 195 c 128,-1,4
 40 261 40 261 40 345 c 0,5,6
 40 424 40 424 59.5 490 c 128,-1,7
 79 556 79 556 117.5 604 c 128,-1,8
 156 652 156 652 213 678.5 c 128,-1,9
 270 705 270 705 345 705 c 0,10,11
 406 705 406 705 461 683 c 128,-1,12
 516 661 516 661 557.5 617 c 128,-1,13
 599 573 599 573 623 507 c 128,-1,14
 647 441 647 441 647 353 c 0,15,16
 647 280 647 280 627.5 214 c 128,-1,17
 608 148 608 148 568.5 98.5 c 128,-1,18
 529 49 529 49 469 19.5 c 128,-1,19
 409 -10 409 -10 328 -10 c 0,0,1
330 84 m 0,20,21
 385 84 385 84 426 106.5 c 128,-1,22
 467 129 467 129 494 166 c 128,-1,23
 521 203 521 203 534 251.5 c 128,-1,24
 547 300 547 300 547 351 c 0,25,26
 547 413 547 413 530.5 461.5 c 128,-1,27
 514 510 514 510 486 543 c 128,-1,28
 458 576 458 576 421 593.5 c 128,-1,29
 384 611 384 611 342 611 c 0,30,31
 292 611 292 611 254.5 590 c 128,-1,32
 217 569 217 569 191.5 533 c 128,-1,33
 166 497 166 497 153 448.5 c 128,-1,34
 140 400 140 400 140 345 c 0,35,36
 140 286 140 286 155 237.5 c 128,-1,37
 170 189 170 189 195.5 155 c 128,-1,38
 221 121 221 121 256 102.5 c 128,-1,39
 291 84 291 84 330 84 c 0,20,21
334 942 m 0,40,41
 344 942 344 942 361.5 933.5 c 128,-1,42
 379 925 379 925 398 912.5 c 128,-1,43
 417 900 417 900 435.5 884.5 c 128,-1,44
 454 869 454 869 467 856 c 0,45,46
 478 844 478 844 484.5 832.5 c 128,-1,47
 491 821 491 821 491 808 c 0,48,49
 491 791 491 791 480.5 778 c 128,-1,50
 470 765 470 765 450 765 c 0,51,52
 433 765 433 765 411.5 780 c 128,-1,53
 390 795 390 795 355 827 c 2,54,-1
 334 846 l 1,55,-1
 313 827 l 2,56,57
 278 795 278 795 255.5 780.5 c 128,-1,58
 233 766 233 766 216 766 c 0,59,60
 198 766 198 766 186.5 777.5 c 128,-1,61
 175 789 175 789 175 806 c 0,62,63
 175 815 175 815 180.5 827.5 c 128,-1,64
 186 840 186 840 201 856 c 0,65,66
 214 869 214 869 232.5 884.5 c 128,-1,67
 251 900 251 900 270 912.5 c 128,-1,68
 289 925 289 925 306 933.5 c 128,-1,69
 323 942 323 942 334 942 c 0,40,41
EndSplineSet
Validated: 1
EndChar

StartChar: Odieresis
Encoding: 214 214 40
Width: 687
Flags: W
LayerCount: 2
Fore
SplineSet
328 -10 m 0,0,1
 268 -10 268 -10 215.5 14 c 128,-1,2
 163 38 163 38 124 83.5 c 128,-1,3
 85 129 85 129 62.5 195 c 128,-1,4
 40 261 40 261 40 345 c 0,5,6
 40 424 40 424 59.5 490 c 128,-1,7
 79 556 79 556 117.5 604 c 128,-1,8
 156 652 156 652 213 678.5 c 128,-1,9
 270 705 270 705 345 705 c 0,10,11
 406 705 406 705 461 683 c 128,-1,12
 516 661 516 661 557.5 617 c 128,-1,13
 599 573 599 573 623 507 c 128,-1,14
 647 441 647 441 647 353 c 0,15,16
 647 280 647 280 627.5 214 c 128,-1,17
 608 148 608 148 568.5 98.5 c 128,-1,18
 529 49 529 49 469 19.5 c 128,-1,19
 409 -10 409 -10 328 -10 c 0,0,1
330 84 m 0,20,21
 385 84 385 84 426 106.5 c 128,-1,22
 467 129 467 129 494 166 c 128,-1,23
 521 203 521 203 534 251.5 c 128,-1,24
 547 300 547 300 547 351 c 0,25,26
 547 413 547 413 530.5 461.5 c 128,-1,27
 514 510 514 510 486 543 c 128,-1,28
 458 576 458 576 421 593.5 c 128,-1,29
 384 611 384 611 342 611 c 0,30,31
 292 611 292 611 254.5 590 c 128,-1,32
 217 569 217 569 191.5 533 c 128,-1,33
 166 497 166 497 153 448.5 c 128,-1,34
 140 400 140 400 140 345 c 0,35,36
 140 286 140 286 155 237.5 c 128,-1,37
 170 189 170 189 195.5 155 c 128,-1,38
 221 121 221 121 256 102.5 c 128,-1,39
 291 84 291 84 330 84 c 0,20,21
248 922 m 0,40,41
 271 922 271 922 290.5 904 c 128,-1,42
 310 886 310 886 310 861 c 0,43,44
 310 837 310 837 290 819.5 c 128,-1,45
 270 802 270 802 245 802 c 0,46,47
 224 802 224 802 205.5 819.5 c 128,-1,48
 187 837 187 837 187 863 c 0,49,50
 187 887 187 887 205.5 904.5 c 128,-1,51
 224 922 224 922 248 922 c 0,40,41
428 922 m 0,52,53
 451 922 451 922 470.5 904 c 128,-1,54
 490 886 490 886 490 861 c 0,55,56
 490 837 490 837 470 819.5 c 128,-1,57
 450 802 450 802 425 802 c 0,58,59
 404 802 404 802 385.5 819.5 c 128,-1,60
 367 837 367 837 367 863 c 0,61,62
 367 887 367 887 385.5 904.5 c 128,-1,63
 404 922 404 922 428 922 c 0,52,53
EndSplineSet
Validated: 1
EndChar

StartChar: Ograve
Encoding: 210 210 41
Width: 687
Flags: W
LayerCount: 2
Fore
SplineSet
328 -10 m 0,0,1
 268 -10 268 -10 215.5 14 c 128,-1,2
 163 38 163 38 124 83.5 c 128,-1,3
 85 129 85 129 62.5 195 c 128,-1,4
 40 261 40 261 40 345 c 0,5,6
 40 424 40 424 59.5 490 c 128,-1,7
 79 556 79 556 117.5 604 c 128,-1,8
 156 652 156 652 213 678.5 c 128,-1,9
 270 705 270 705 345 705 c 0,10,11
 406 705 406 705 461 683 c 128,-1,12
 516 661 516 661 557.5 617 c 128,-1,13
 599 573 599 573 623 507 c 128,-1,14
 647 441 647 441 647 353 c 0,15,16
 647 280 647 280 627.5 214 c 128,-1,17
 608 148 608 148 568.5 98.5 c 128,-1,18
 529 49 529 49 469 19.5 c 128,-1,19
 409 -10 409 -10 328 -10 c 0,0,1
330 84 m 0,20,21
 385 84 385 84 426 106.5 c 128,-1,22
 467 129 467 129 494 166 c 128,-1,23
 521 203 521 203 534 251.5 c 128,-1,24
 547 300 547 300 547 351 c 0,25,26
 547 413 547 413 530.5 461.5 c 128,-1,27
 514 510 514 510 486 543 c 128,-1,28
 458 576 458 576 421 593.5 c 128,-1,29
 384 611 384 611 342 611 c 0,30,31
 292 611 292 611 254.5 590 c 128,-1,32
 217 569 217 569 191.5 533 c 128,-1,33
 166 497 166 497 153 448.5 c 128,-1,34
 140 400 140 400 140 345 c 0,35,36
 140 286 140 286 155 237.5 c 128,-1,37
 170 189 170 189 195.5 155 c 128,-1,38
 221 121 221 121 256 102.5 c 128,-1,39
 291 84 291 84 330 84 c 0,20,21
375 779 m 0,40,41
 360 779 360 779 337 786 c 128,-1,42
 314 793 314 793 288.5 804 c 128,-1,43
 263 815 263 815 237 829.5 c 128,-1,44
 211 844 211 844 190 859 c 128,-1,45
 169 874 169 874 156 888.5 c 128,-1,46
 143 903 143 903 143 915 c 0,47,48
 143 934 143 934 155 943 c 128,-1,49
 167 952 167 952 184 952 c 0,50,51
 203 952 203 952 239.5 936 c 128,-1,52
 276 920 276 920 312.5 897 c 128,-1,53
 349 874 349 874 376.5 849 c 128,-1,54
 404 824 404 824 406 805 c 0,55,56
 406 790 406 790 396 785.5 c 128,-1,57
 386 781 386 781 375 779 c 0,40,41
EndSplineSet
Validated: 1
EndChar

StartChar: Oslash
Encoding: 216 216 42
Width: 687
Flags: W
LayerCount: 2
Fore
SplineSet
328 -10 m 0,0,1
 222 -10 222 -10 146 60 c 1,2,3
 132 46 132 46 119 33 c 128,-1,4
 106 20 106 20 93 9 c 0,5,6
 75 -8 75 -8 62.5 -14.5 c 128,-1,7
 50 -21 50 -21 40 -21 c 0,8,9
 25 -21 25 -21 13 -8.5 c 128,-1,10
 1 4 1 4 1 19 c 0,11,12
 1 32 1 32 7 43 c 128,-1,13
 13 54 13 54 29 72 c 2,14,-1
 87 136 l 1,15,16
 64 178 64 178 52 230 c 128,-1,17
 40 282 40 282 40 345 c 0,18,19
 40 424 40 424 59.5 490 c 128,-1,20
 79 556 79 556 117.5 604 c 128,-1,21
 156 652 156 652 213 678.5 c 128,-1,22
 270 705 270 705 345 705 c 0,23,24
 402 705 402 705 453.5 685.5 c 128,-1,25
 505 666 505 666 546 628 c 1,26,27
 578 662 578 662 602.5 682.5 c 128,-1,28
 627 703 627 703 644 703 c 0,29,30
 658 703 658 703 669.5 691 c 128,-1,31
 681 679 681 679 681 664 c 0,32,33
 681 644 681 644 657 617 c 2,34,-1
 601 555 l 1,35,36
 623 515 623 515 635 464.5 c 128,-1,37
 647 414 647 414 647 353 c 0,38,39
 647 280 647 280 627.5 214 c 128,-1,40
 608 148 608 148 568.5 98.5 c 128,-1,41
 529 49 529 49 469 19.5 c 128,-1,42
 409 -10 409 -10 328 -10 c 0,0,1
478 552 m 1,43,44
 421 611 421 611 342 611 c 0,45,46
 292 611 292 611 254.5 590 c 128,-1,47
 217 569 217 569 191.5 533 c 128,-1,48
 166 497 166 497 153 448.5 c 128,-1,49
 140 400 140 400 140 345 c 0,50,51
 140 274 140 274 162 216 c 1,52,53
 228 287 228 287 293 356 c 128,-1,54
 358 425 358 425 429 499 c 2,55,-1
 478 552 l 1,43,44
330 84 m 0,56,57
 385 84 385 84 426 106.5 c 128,-1,58
 467 129 467 129 494 166 c 128,-1,59
 521 203 521 203 534 251.5 c 128,-1,60
 547 300 547 300 547 351 c 0,61,62
 547 417 547 417 527 471 c 1,63,64
 453 387 453 387 373.5 298.5 c 128,-1,65
 294 210 294 210 217 131 c 1,66,67
 264 84 264 84 330 84 c 0,56,57
EndSplineSet
Validated: 1
EndChar

StartChar: Otilde
Encoding: 213 213 43
Width: 687
Flags: W
LayerCount: 2
Fore
SplineSet
328 -10 m 0,0,1
 268 -10 268 -10 215.5 14 c 128,-1,2
 163 38 163 38 124 83.5 c 128,-1,3
 85 129 85 129 62.5 195 c 128,-1,4
 40 261 40 261 40 345 c 0,5,6
 40 424 40 424 59.5 490 c 128,-1,7
 79 556 79 556 117.5 604 c 128,-1,8
 156 652 156 652 213 678.5 c 128,-1,9
 270 705 270 705 345 705 c 0,10,11
 406 705 406 705 461 683 c 128,-1,12
 516 661 516 661 557.5 617 c 128,-1,13
 599 573 599 573 623 507 c 128,-1,14
 647 441 647 441 647 353 c 0,15,16
 647 280 647 280 627.5 214 c 128,-1,17
 608 148 608 148 568.5 98.5 c 128,-1,18
 529 49 529 49 469 19.5 c 128,-1,19
 409 -10 409 -10 328 -10 c 0,0,1
330 84 m 0,20,21
 385 84 385 84 426 106.5 c 128,-1,22
 467 129 467 129 494 166 c 128,-1,23
 521 203 521 203 534 251.5 c 128,-1,24
 547 300 547 300 547 351 c 0,25,26
 547 413 547 413 530.5 461.5 c 128,-1,27
 514 510 514 510 486 543 c 128,-1,28
 458 576 458 576 421 593.5 c 128,-1,29
 384 611 384 611 342 611 c 0,30,31
 292 611 292 611 254.5 590 c 128,-1,32
 217 569 217 569 191.5 533 c 128,-1,33
 166 497 166 497 153 448.5 c 128,-1,34
 140 400 140 400 140 345 c 0,35,36
 140 286 140 286 155 237.5 c 128,-1,37
 170 189 170 189 195.5 155 c 128,-1,38
 221 121 221 121 256 102.5 c 128,-1,39
 291 84 291 84 330 84 c 0,20,21
261 852 m 0,40,41
 245 852 245 852 233 845 c 128,-1,42
 221 838 221 838 210.5 829 c 128,-1,43
 200 820 200 820 189.5 813 c 128,-1,44
 179 806 179 806 167 806 c 0,45,46
 154 806 154 806 145.5 816.5 c 128,-1,47
 137 827 137 827 137 844 c 256,48,49
 137 861 137 861 144 880 c 128,-1,50
 151 899 151 899 165.5 914.5 c 128,-1,51
 180 930 180 930 201 940.5 c 128,-1,52
 222 951 222 951 250 951 c 0,53,54
 279 951 279 951 299 943.5 c 128,-1,55
 319 936 319 936 334.5 926.5 c 128,-1,56
 350 917 350 917 365 909.5 c 128,-1,57
 380 902 380 902 400 902 c 0,58,59
 430 902 430 902 444.5 909 c 128,-1,60
 459 916 459 916 466.5 925 c 128,-1,61
 474 934 474 934 479 941 c 128,-1,62
 484 948 484 948 495 948 c 0,63,64
 509 948 509 948 521 940 c 128,-1,65
 533 932 533 932 533 917 c 0,66,67
 533 894 533 894 524.5 873.5 c 128,-1,68
 516 853 516 853 499 837 c 128,-1,69
 482 821 482 821 456.5 811.5 c 128,-1,70
 431 802 431 802 398 802 c 0,71,72
 377 802 377 802 360 810 c 128,-1,73
 343 818 343 818 327 827 c 128,-1,74
 311 836 311 836 295 844 c 128,-1,75
 279 852 279 852 261 852 c 0,40,41
EndSplineSet
Validated: 1
EndChar

StartChar: P
Encoding: 80 80 44
Width: 568
Flags: W
LayerCount: 2
Fore
SplineSet
160 63 m 2,0,1
 160 39 160 39 155.5 26 c 128,-1,2
 151 13 151 13 144.5 6 c 128,-1,3
 138 -1 138 -1 129.5 -2.5 c 128,-1,4
 121 -4 121 -4 113 -4 c 0,5,6
 86 -4 86 -4 77.5 8 c 128,-1,7
 69 20 69 20 66 62 c 0,8,9
 64 84 64 84 63 126 c 128,-1,10
 62 168 62 168 61.5 226 c 128,-1,11
 61 284 61 284 60.5 354 c 128,-1,12
 60 424 60 424 60 502 c 0,13,14
 60 539 60 539 69 577 c 128,-1,15
 78 615 78 615 103.5 646 c 128,-1,16
 129 677 129 677 174.5 696 c 128,-1,17
 220 715 220 715 293 715 c 0,18,19
 344 715 344 715 390 704 c 128,-1,20
 436 693 436 693 471 666 c 128,-1,21
 506 639 506 639 527 594 c 128,-1,22
 548 549 548 549 548 482 c 0,23,24
 548 412 548 412 525 366 c 128,-1,25
 502 320 502 320 460 293 c 128,-1,26
 418 266 418 266 360 255 c 128,-1,27
 302 244 302 244 233 244 c 0,28,29
 216 244 216 244 199 244 c 128,-1,30
 182 244 182 244 161 246 c 1,31,-1
 160 63 l 2,0,1
448 484 m 0,32,33
 448 551 448 551 410.5 585 c 128,-1,34
 373 619 373 619 286 619 c 0,35,36
 253 619 253 619 229.5 613.5 c 128,-1,37
 206 608 206 608 191 594.5 c 128,-1,38
 176 581 176 581 168.5 558 c 128,-1,39
 161 535 161 535 161 500 c 0,40,41
 161 466 161 466 161 422.5 c 128,-1,42
 161 379 161 379 162 341 c 1,43,44
 185 340 185 340 213.5 340 c 128,-1,45
 242 340 242 340 267 340 c 0,46,47
 297 340 297 340 329.5 344 c 128,-1,48
 362 348 362 348 388 362.5 c 128,-1,49
 414 377 414 377 431 405.5 c 128,-1,50
 448 434 448 434 448 484 c 0,32,33
EndSplineSet
Validated: 1
EndChar

StartChar: Q
Encoding: 81 81 45
Width: 687
Flags: W
LayerCount: 2
Fore
SplineSet
328 -10 m 0,0,1
 268 -10 268 -10 215.5 14 c 128,-1,2
 163 38 163 38 124 83.5 c 128,-1,3
 85 129 85 129 62.5 195 c 128,-1,4
 40 261 40 261 40 345 c 0,5,6
 40 424 40 424 59.5 490 c 128,-1,7
 79 556 79 556 117.5 604 c 128,-1,8
 156 652 156 652 213 678.5 c 128,-1,9
 270 705 270 705 345 705 c 0,10,11
 406 705 406 705 461 683 c 128,-1,12
 516 661 516 661 557.5 617 c 128,-1,13
 599 573 599 573 623 507 c 128,-1,14
 647 441 647 441 647 353 c 0,15,16
 647 281 647 281 628.5 217 c 128,-1,17
 610 153 610 153 572 103 c 1,18,-1
 629 56 l 2,19,20
 640 47 640 47 649.5 33.5 c 128,-1,21
 659 20 659 20 659 3 c 0,22,23
 659 -17 659 -17 643 -29 c 128,-1,24
 627 -41 627 -41 605 -41 c 0,25,26
 577 -41 577 -41 546 -13 c 2,27,-1
 494 32 l 1,28,29
 460 12 460 12 419 1 c 128,-1,30
 378 -10 378 -10 328 -10 c 0,0,1
330 84 m 0,31,32
 385 84 385 84 426 106.5 c 128,-1,33
 467 129 467 129 494 166 c 128,-1,34
 521 203 521 203 534 251.5 c 128,-1,35
 547 300 547 300 547 351 c 0,36,37
 547 413 547 413 530.5 461.5 c 128,-1,38
 514 510 514 510 486 543 c 128,-1,39
 458 576 458 576 421 593.5 c 128,-1,40
 384 611 384 611 342 611 c 0,41,42
 292 611 292 611 254.5 590 c 128,-1,43
 217 569 217 569 191.5 533 c 128,-1,44
 166 497 166 497 153 448.5 c 128,-1,45
 140 400 140 400 140 345 c 0,46,47
 140 286 140 286 155 237.5 c 128,-1,48
 170 189 170 189 195.5 155 c 128,-1,49
 221 121 221 121 256 102.5 c 128,-1,50
 291 84 291 84 330 84 c 0,31,32
EndSplineSet
Validated: 1
EndChar

StartChar: R
Encoding: 82 82 46
Width: 577
Flags: W
LayerCount: 2
Fore
SplineSet
291 246 m 1,0,1
 277 245 277 245 262.5 244.5 c 128,-1,2
 248 244 248 244 233 244 c 0,3,4
 216 244 216 244 199 244 c 128,-1,5
 182 244 182 244 161 246 c 1,6,-1
 161 43 l 2,7,8
 161 11 161 11 145.5 3.5 c 128,-1,9
 130 -4 130 -4 107 -4 c 0,10,11
 95 -4 95 -4 88 -2.5 c 128,-1,12
 81 -1 81 -1 76.5 3.5 c 128,-1,13
 72 8 72 8 69.5 17 c 128,-1,14
 67 26 67 26 66 42 c 0,15,16
 64 60 64 60 63 94.5 c 128,-1,17
 62 129 62 129 61.5 184 c 128,-1,18
 61 239 61 239 60.5 317.5 c 128,-1,19
 60 396 60 396 60 502 c 0,20,21
 60 543 60 543 70 581.5 c 128,-1,22
 80 620 80 620 106 649.5 c 128,-1,23
 132 679 132 679 176.5 697 c 128,-1,24
 221 715 221 715 290 715 c 0,25,26
 339 715 339 715 385.5 704 c 128,-1,27
 432 693 432 693 468 666 c 128,-1,28
 504 639 504 639 526 593 c 128,-1,29
 548 547 548 547 548 478 c 0,30,31
 548 386 548 386 508.5 335.5 c 128,-1,32
 469 285 469 285 400 264 c 1,33,-1
 534 80 l 2,34,35
 552 56 552 56 552 31 c 0,36,37
 552 11 552 11 538.5 -0.5 c 128,-1,38
 525 -12 525 -12 505 -12 c 0,39,40
 483 -12 483 -12 467 0.5 c 128,-1,41
 451 13 451 13 437 33 c 2,42,-1
 291 246 l 1,0,1
448 479 m 0,43,44
 448 548 448 548 406.5 581.5 c 128,-1,45
 365 615 365 615 275 615 c 0,46,47
 242 615 242 615 220 609.5 c 128,-1,48
 198 604 198 604 185 589 c 128,-1,49
 172 574 172 574 166.5 547.5 c 128,-1,50
 161 521 161 521 161 480 c 0,51,52
 161 451 161 451 161 412 c 128,-1,53
 161 373 161 373 162 341 c 1,54,55
 185 340 185 340 213.5 340 c 128,-1,56
 242 340 242 340 267 340 c 0,57,58
 295 340 295 340 326.5 343.5 c 128,-1,59
 358 347 358 347 385 361.5 c 128,-1,60
 412 376 412 376 430 403.5 c 128,-1,61
 448 431 448 431 448 479 c 0,43,44
EndSplineSet
Validated: 1
EndChar

StartChar: S
Encoding: 83 83 47
Width: 582
Flags: W
LayerCount: 2
Fore
SplineSet
304 706 m 0,0,1
 332 706 332 706 368.5 701.5 c 128,-1,2
 405 697 405 697 437 685.5 c 128,-1,3
 469 674 469 674 491 655.5 c 128,-1,4
 513 637 513 637 513 610 c 0,5,6
 513 594 513 594 504 583 c 128,-1,7
 495 572 495 572 475 572 c 0,8,9
 460 572 460 572 444.5 578 c 128,-1,10
 429 584 429 584 409.5 590.5 c 128,-1,11
 390 597 390 597 364.5 603 c 128,-1,12
 339 609 339 609 305 609 c 0,13,14
 239 609 239 609 207.5 585.5 c 128,-1,15
 176 562 176 562 176 521 c 0,16,17
 176 493 176 493 190 474 c 128,-1,18
 204 455 204 455 227.5 441.5 c 128,-1,19
 251 428 251 428 280.5 419 c 128,-1,20
 310 410 310 410 341 402 c 0,21,22
 376 393 376 393 410.5 380 c 128,-1,23
 445 367 445 367 472 346 c 128,-1,24
 499 325 499 325 515.5 293 c 128,-1,25
 532 261 532 261 532 212 c 0,26,27
 532 161 532 161 513 120.5 c 128,-1,28
 494 80 494 80 461 51.5 c 128,-1,29
 428 23 428 23 382 7.5 c 128,-1,30
 336 -8 336 -8 282 -8 c 0,31,32
 252 -8 252 -8 212 -2.5 c 128,-1,33
 172 3 172 3 136 16.5 c 128,-1,34
 100 30 100 30 75 52.5 c 128,-1,35
 50 75 50 75 50 108 c 0,36,37
 50 128 50 128 60.5 140 c 128,-1,38
 71 152 71 152 92 152 c 0,39,40
 109 152 109 152 120 145.5 c 128,-1,41
 131 139 131 139 139 131 c 0,42,43
 169 105 169 105 207 96 c 128,-1,44
 245 87 245 87 285 87 c 0,45,46
 308 87 308 87 333.5 90.5 c 128,-1,47
 359 94 359 94 380 105 c 128,-1,48
 401 116 401 116 415 136.5 c 128,-1,49
 429 157 429 157 429 192 c 0,50,51
 429 224 429 224 416.5 244.5 c 128,-1,52
 404 265 404 265 383 279 c 128,-1,53
 362 293 362 293 333.5 302 c 128,-1,54
 305 311 305 311 272 320 c 0,55,56
 235 330 235 330 199 342 c 128,-1,57
 163 354 163 354 135 374.5 c 128,-1,58
 107 395 107 395 89.5 426.5 c 128,-1,59
 72 458 72 458 72 507 c 256,60,61
 72 556 72 556 90 593 c 128,-1,62
 108 630 108 630 139 655 c 128,-1,63
 170 680 170 680 212.5 693 c 128,-1,64
 255 706 255 706 304 706 c 0,0,1
EndSplineSet
Validated: 1
EndChar

StartChar: Scaron
Encoding: 352 352 48
Width: 582
Flags: W
LayerCount: 2
Fore
SplineSet
304 706 m 0,0,1
 332 706 332 706 368.5 701.5 c 128,-1,2
 405 697 405 697 437 685.5 c 128,-1,3
 469 674 469 674 491 655.5 c 128,-1,4
 513 637 513 637 513 610 c 0,5,6
 513 594 513 594 504 583 c 128,-1,7
 495 572 495 572 475 572 c 0,8,9
 460 572 460 572 444.5 578 c 128,-1,10
 429 584 429 584 409.5 590.5 c 128,-1,11
 390 597 390 597 364.5 603 c 128,-1,12
 339 609 339 609 305 609 c 0,13,14
 239 609 239 609 207.5 585.5 c 128,-1,15
 176 562 176 562 176 521 c 0,16,17
 176 493 176 493 190 474 c 128,-1,18
 204 455 204 455 227.5 441.5 c 128,-1,19
 251 428 251 428 280.5 419 c 128,-1,20
 310 410 310 410 341 402 c 0,21,22
 376 393 376 393 410.5 380 c 128,-1,23
 445 367 445 367 472 346 c 128,-1,24
 499 325 499 325 515.5 293 c 128,-1,25
 532 261 532 261 532 212 c 0,26,27
 532 161 532 161 513 120.5 c 128,-1,28
 494 80 494 80 461 51.5 c 128,-1,29
 428 23 428 23 382 7.5 c 128,-1,30
 336 -8 336 -8 282 -8 c 0,31,32
 252 -8 252 -8 212 -2.5 c 128,-1,33
 172 3 172 3 136 16.5 c 128,-1,34
 100 30 100 30 75 52.5 c 128,-1,35
 50 75 50 75 50 108 c 0,36,37
 50 128 50 128 60.5 140 c 128,-1,38
 71 152 71 152 92 152 c 0,39,40
 109 152 109 152 120 145.5 c 128,-1,41
 131 139 131 139 139 131 c 0,42,43
 169 105 169 105 207 96 c 128,-1,44
 245 87 245 87 285 87 c 0,45,46
 308 87 308 87 333.5 90.5 c 128,-1,47
 359 94 359 94 380 105 c 128,-1,48
 401 116 401 116 415 136.5 c 128,-1,49
 429 157 429 157 429 192 c 0,50,51
 429 224 429 224 416.5 244.5 c 128,-1,52
 404 265 404 265 383 279 c 128,-1,53
 362 293 362 293 333.5 302 c 128,-1,54
 305 311 305 311 272 320 c 0,55,56
 235 330 235 330 199 342 c 128,-1,57
 163 354 163 354 135 374.5 c 128,-1,58
 107 395 107 395 89.5 426.5 c 128,-1,59
 72 458 72 458 72 507 c 256,60,61
 72 556 72 556 90 593 c 128,-1,62
 108 630 108 630 139 655 c 128,-1,63
 170 680 170 680 212.5 693 c 128,-1,64
 255 706 255 706 304 706 c 0,0,1
286 774 m 0,65,66
 275 774 275 774 258 782.5 c 128,-1,67
 241 791 241 791 222 803.5 c 128,-1,68
 203 816 203 816 184.5 831 c 128,-1,69
 166 846 166 846 153 860 c 0,70,71
 138 876 138 876 132.5 888.5 c 128,-1,72
 127 901 127 901 127 910 c 0,73,74
 127 927 127 927 138.5 938.5 c 128,-1,75
 150 950 150 950 168 950 c 0,76,77
 185 950 185 950 207.5 935.5 c 128,-1,78
 230 921 230 921 265 889 c 2,79,-1
 286 870 l 1,80,-1
 307 889 l 2,81,82
 342 921 342 921 363.5 936 c 128,-1,83
 385 951 385 951 402 951 c 0,84,85
 422 951 422 951 432.5 938 c 128,-1,86
 443 925 443 925 443 908 c 0,87,88
 443 895 443 895 436.5 883.5 c 128,-1,89
 430 872 430 872 419 860 c 0,90,91
 406 846 406 846 387.5 831 c 128,-1,92
 369 816 369 816 350 803.5 c 128,-1,93
 331 791 331 791 313.5 782.5 c 128,-1,94
 296 774 296 774 286 774 c 0,65,66
EndSplineSet
Validated: 1
EndChar

StartChar: T
Encoding: 84 84 49
Width: 545
Flags: W
LayerCount: 2
Fore
SplineSet
449 608 m 0,0,1
 421 606 421 606 389.5 605 c 128,-1,2
 358 604 358 604 320 603 c 1,3,4
 321 576 321 576 322 552.5 c 128,-1,5
 323 529 323 529 324 505 c 128,-1,6
 325 481 325 481 325.5 455 c 128,-1,7
 326 429 326 429 326 397 c 0,8,9
 326 352 326 352 326 310.5 c 128,-1,10
 326 269 326 269 325 227.5 c 128,-1,11
 324 186 324 186 323 144 c 128,-1,12
 322 102 322 102 320 57 c 0,13,14
 319 33 319 33 315.5 20 c 128,-1,15
 312 7 312 7 306 0 c 128,-1,16
 300 -7 300 -7 292 -8.5 c 128,-1,17
 284 -10 284 -10 274 -10 c 0,18,19
 256 -10 256 -10 243.5 2.5 c 128,-1,20
 231 15 231 15 229 56 c 0,21,22
 227 92 227 92 226.5 132 c 128,-1,23
 226 172 226 172 225 218 c 128,-1,24
 224 264 224 264 224 317.5 c 128,-1,25
 224 371 224 371 224 436 c 0,26,27
 224 491 224 491 224.5 532 c 128,-1,28
 225 573 225 573 227 603 c 1,29,-1
 186 603 l 2,30,31
 144 603 144 603 114.5 604 c 128,-1,32
 85 605 85 605 66 609.5 c 128,-1,33
 47 614 47 614 38.5 624 c 128,-1,34
 30 634 30 634 30 652 c 0,35,36
 30 661 30 661 32 668.5 c 128,-1,37
 34 676 34 676 41 682.5 c 128,-1,38
 48 689 48 689 60.5 693 c 128,-1,39
 73 697 73 697 93 699 c 0,40,41
 112 700 112 700 127 701 c 128,-1,42
 142 702 142 702 157 703 c 128,-1,43
 172 704 172 704 188 704 c 128,-1,44
 204 704 204 704 225 704 c 0,45,46
 284 704 284 704 336.5 703 c 128,-1,47
 389 702 389 702 448 699 c 0,48,49
 472 697 472 697 485 693.5 c 128,-1,50
 498 690 498 690 505 684 c 128,-1,51
 512 678 512 678 513.5 670 c 128,-1,52
 515 662 515 662 515 652 c 0,53,54
 515 634 515 634 502.5 622 c 128,-1,55
 490 610 490 610 449 608 c 0,0,1
EndSplineSet
Validated: 1
EndChar

StartChar: Thorn
Encoding: 222 222 50
Width: 538
Flags: W
LayerCount: 2
Fore
SplineSet
35 49 m 0,0,1
 33 85 33 85 32.5 134.5 c 128,-1,2
 32 184 32 184 31.5 242 c 128,-1,3
 31 300 31 300 31 363 c 128,-1,4
 31 426 31 426 31 491 c 0,5,6
 31 562 31 562 32 604 c 128,-1,7
 33 646 33 646 37.5 668.5 c 128,-1,8
 42 691 42 691 52 697.5 c 128,-1,9
 62 704 62 704 80 704 c 0,10,11
 87 704 87 704 95 702 c 128,-1,12
 103 700 103 700 109 693.5 c 128,-1,13
 115 687 115 687 119.5 674.5 c 128,-1,14
 124 662 124 662 125 642 c 2,15,-1
 129 553 l 1,16,17
 156 567 156 567 193 574.5 c 128,-1,18
 230 582 230 582 281 582 c 0,19,20
 319 582 319 582 361 570.5 c 128,-1,21
 403 559 403 559 438.5 534 c 128,-1,22
 474 509 474 509 497 469 c 128,-1,23
 520 429 520 429 520 372 c 0,24,25
 520 307 520 307 499.5 264.5 c 128,-1,26
 479 222 479 222 439.5 197 c 128,-1,27
 400 172 400 172 341 161.5 c 128,-1,28
 282 151 282 151 205 151 c 0,29,30
 188 151 188 151 171 151 c 128,-1,31
 154 151 154 151 133 153 c 1,32,33
 133 91 133 91 128.5 56.5 c 128,-1,34
 124 22 124 22 117 5.5 c 128,-1,35
 110 -11 110 -11 100.5 -14 c 128,-1,36
 91 -17 91 -17 80 -17 c 0,37,38
 71 -17 71 -17 63.5 -15 c 128,-1,39
 56 -13 56 -13 50 -6 c 128,-1,40
 44 1 44 1 40 14 c 128,-1,41
 36 27 36 27 35 49 c 0,0,1
420 362 m 0,42,43
 420 396 420 396 407 419 c 128,-1,44
 394 442 394 442 374 456 c 128,-1,45
 354 470 354 470 328.5 476 c 128,-1,46
 303 482 303 482 279 482 c 0,47,48
 238 482 238 482 210 477.5 c 128,-1,49
 182 473 182 473 165 460.5 c 128,-1,50
 148 448 148 448 140.5 425.5 c 128,-1,51
 133 403 133 403 133 367 c 0,52,53
 133 338 133 338 133 309 c 128,-1,54
 133 280 133 280 134 248 c 1,55,56
 157 247 157 247 185.5 247 c 128,-1,57
 214 247 214 247 239 247 c 0,58,59
 270 247 270 247 302.5 250.5 c 128,-1,60
 335 254 335 254 361 265.5 c 128,-1,61
 387 277 387 277 403.5 300 c 128,-1,62
 420 323 420 323 420 362 c 0,42,43
EndSplineSet
Validated: 1
EndChar

StartChar: U
Encoding: 85 85 51
Width: 612
Flags: W
LayerCount: 2
Fore
SplineSet
301 -17 m 0,0,1
 187 -17 187 -17 134 45 c 0,2,3
 113 69 113 69 98.5 106.5 c 128,-1,4
 84 144 84 144 75.5 204 c 128,-1,5
 67 264 67 264 63.5 352.5 c 128,-1,6
 60 441 60 441 60 568 c 0,7,8
 60 609 60 609 62 635.5 c 128,-1,9
 64 662 64 662 70 677.5 c 128,-1,10
 76 693 76 693 85.5 699 c 128,-1,11
 95 705 95 705 110 705 c 0,12,13
 139 705 139 705 151 679 c 128,-1,14
 163 653 163 653 163 589 c 0,15,16
 163 567 163 567 162.5 550 c 128,-1,17
 162 533 162 533 162 515.5 c 128,-1,18
 162 498 162 498 161.5 477 c 128,-1,19
 161 456 161 456 161 426 c 0,20,21
 161 326 161 326 167.5 260 c 128,-1,22
 174 194 174 194 190 154.5 c 128,-1,23
 206 115 206 115 233.5 99 c 128,-1,24
 261 83 261 83 302 83 c 0,25,26
 345 83 345 83 373.5 100.5 c 128,-1,27
 402 118 402 118 419 159.5 c 128,-1,28
 436 201 436 201 443.5 270 c 128,-1,29
 451 339 451 339 451 442 c 0,30,31
 451 487 451 487 450.5 519 c 128,-1,32
 450 551 450 551 450 577 c 0,33,34
 450 614 450 614 452.5 639 c 128,-1,35
 455 664 455 664 460.5 678.5 c 128,-1,36
 466 693 466 693 476 699 c 128,-1,37
 486 705 486 705 501 705 c 256,38,39
 516 705 516 705 526 699 c 128,-1,40
 536 693 536 693 542 678 c 128,-1,41
 548 663 548 663 550 636.5 c 128,-1,42
 552 610 552 610 552 568 c 0,43,44
 552 392 552 392 541 278.5 c 128,-1,45
 530 165 530 165 502 99.5 c 128,-1,46
 474 34 474 34 425.5 8.5 c 128,-1,47
 377 -17 377 -17 301 -17 c 0,0,1
EndSplineSet
Validated: 1
EndChar

StartChar: Uacute
Encoding: 218 218 52
Width: 612
Flags: W
LayerCount: 2
Fore
SplineSet
301 -17 m 0,0,1
 187 -17 187 -17 134 45 c 0,2,3
 113 69 113 69 98.5 106.5 c 128,-1,4
 84 144 84 144 75.5 204 c 128,-1,5
 67 264 67 264 63.5 352.5 c 128,-1,6
 60 441 60 441 60 568 c 0,7,8
 60 609 60 609 62 635.5 c 128,-1,9
 64 662 64 662 70 677.5 c 128,-1,10
 76 693 76 693 85.5 699 c 128,-1,11
 95 705 95 705 110 705 c 0,12,13
 139 705 139 705 151 679 c 128,-1,14
 163 653 163 653 163 589 c 0,15,16
 163 567 163 567 162.5 550 c 128,-1,17
 162 533 162 533 162 515.5 c 128,-1,18
 162 498 162 498 161.5 477 c 128,-1,19
 161 456 161 456 161 426 c 0,20,21
 161 326 161 326 167.5 260 c 128,-1,22
 174 194 174 194 190 154.5 c 128,-1,23
 206 115 206 115 233.5 99 c 128,-1,24
 261 83 261 83 302 83 c 0,25,26
 345 83 345 83 373.5 100.5 c 128,-1,27
 402 118 402 118 419 159.5 c 128,-1,28
 436 201 436 201 443.5 270 c 128,-1,29
 451 339 451 339 451 442 c 0,30,31
 451 487 451 487 450.5 519 c 128,-1,32
 450 551 450 551 450 577 c 0,33,34
 450 614 450 614 452.5 639 c 128,-1,35
 455 664 455 664 460.5 678.5 c 128,-1,36
 466 693 466 693 476 699 c 128,-1,37
 486 705 486 705 501 705 c 256,38,39
 516 705 516 705 526 699 c 128,-1,40
 536 693 536 693 542 678 c 128,-1,41
 548 663 548 663 550 636.5 c 128,-1,42
 552 610 552 610 552 568 c 0,43,44
 552 392 552 392 541 278.5 c 128,-1,45
 530 165 530 165 502 99.5 c 128,-1,46
 474 34 474 34 425.5 8.5 c 128,-1,47
 377 -17 377 -17 301 -17 c 0,0,1
239 777 m 0,48,49
 228 779 228 779 217.5 784.5 c 128,-1,50
 207 790 207 790 207 805 c 0,51,52
 208 817 208 817 221.5 833 c 128,-1,53
 235 849 235 849 255 865.5 c 128,-1,54
 275 882 275 882 300 897.5 c 128,-1,55
 325 913 325 913 349.5 925 c 128,-1,56
 374 937 374 937 395 944.5 c 128,-1,57
 416 952 416 952 429 952 c 0,58,59
 446 952 446 952 458.5 942 c 128,-1,60
 471 932 471 932 471 913 c 0,61,62
 471 901 471 901 458 886.5 c 128,-1,63
 445 872 445 872 424 857 c 128,-1,64
 403 842 403 842 377 827.5 c 128,-1,65
 351 813 351 813 325.5 802 c 128,-1,66
 300 791 300 791 277 784 c 128,-1,67
 254 777 254 777 239 777 c 0,48,49
EndSplineSet
Validated: 1
EndChar

StartChar: Ucircumflex
Encoding: 219 219 53
Width: 612
Flags: W
LayerCount: 2
Fore
SplineSet
301 -17 m 0,0,1
 187 -17 187 -17 134 45 c 0,2,3
 113 69 113 69 98.5 106.5 c 128,-1,4
 84 144 84 144 75.5 204 c 128,-1,5
 67 264 67 264 63.5 352.5 c 128,-1,6
 60 441 60 441 60 568 c 0,7,8
 60 609 60 609 62 635.5 c 128,-1,9
 64 662 64 662 70 677.5 c 128,-1,10
 76 693 76 693 85.5 699 c 128,-1,11
 95 705 95 705 110 705 c 0,12,13
 139 705 139 705 151 679 c 128,-1,14
 163 653 163 653 163 589 c 0,15,16
 163 567 163 567 162.5 550 c 128,-1,17
 162 533 162 533 162 515.5 c 128,-1,18
 162 498 162 498 161.5 477 c 128,-1,19
 161 456 161 456 161 426 c 0,20,21
 161 326 161 326 167.5 260 c 128,-1,22
 174 194 174 194 190 154.5 c 128,-1,23
 206 115 206 115 233.5 99 c 128,-1,24
 261 83 261 83 302 83 c 0,25,26
 345 83 345 83 373.5 100.5 c 128,-1,27
 402 118 402 118 419 159.5 c 128,-1,28
 436 201 436 201 443.5 270 c 128,-1,29
 451 339 451 339 451 442 c 0,30,31
 451 487 451 487 450.5 519 c 128,-1,32
 450 551 450 551 450 577 c 0,33,34
 450 614 450 614 452.5 639 c 128,-1,35
 455 664 455 664 460.5 678.5 c 128,-1,36
 466 693 466 693 476 699 c 128,-1,37
 486 705 486 705 501 705 c 256,38,39
 516 705 516 705 526 699 c 128,-1,40
 536 693 536 693 542 678 c 128,-1,41
 548 663 548 663 550 636.5 c 128,-1,42
 552 610 552 610 552 568 c 0,43,44
 552 392 552 392 541 278.5 c 128,-1,45
 530 165 530 165 502 99.5 c 128,-1,46
 474 34 474 34 425.5 8.5 c 128,-1,47
 377 -17 377 -17 301 -17 c 0,0,1
308 951 m 0,48,49
 318 951 318 951 335.5 942.5 c 128,-1,50
 353 934 353 934 372 921.5 c 128,-1,51
 391 909 391 909 409.5 893.5 c 128,-1,52
 428 878 428 878 441 865 c 0,53,54
 452 853 452 853 458.5 841.5 c 128,-1,55
 465 830 465 830 465 817 c 0,56,57
 465 800 465 800 454.5 787 c 128,-1,58
 444 774 444 774 424 774 c 0,59,60
 407 774 407 774 385.5 789 c 128,-1,61
 364 804 364 804 329 836 c 2,62,-1
 308 855 l 1,63,-1
 287 836 l 2,64,65
 252 804 252 804 229.5 789.5 c 128,-1,66
 207 775 207 775 190 775 c 0,67,68
 172 775 172 775 160.5 786.5 c 128,-1,69
 149 798 149 798 149 815 c 0,70,71
 149 824 149 824 154.5 836.5 c 128,-1,72
 160 849 160 849 175 865 c 0,73,74
 188 878 188 878 206.5 893.5 c 128,-1,75
 225 909 225 909 244 921.5 c 128,-1,76
 263 934 263 934 280 942.5 c 128,-1,77
 297 951 297 951 308 951 c 0,48,49
EndSplineSet
Validated: 1
EndChar

StartChar: Udieresis
Encoding: 220 220 54
Width: 612
Flags: W
LayerCount: 2
Fore
SplineSet
301 -17 m 0,0,1
 187 -17 187 -17 134 45 c 0,2,3
 113 69 113 69 98.5 106.5 c 128,-1,4
 84 144 84 144 75.5 204 c 128,-1,5
 67 264 67 264 63.5 352.5 c 128,-1,6
 60 441 60 441 60 568 c 0,7,8
 60 609 60 609 62 635.5 c 128,-1,9
 64 662 64 662 70 677.5 c 128,-1,10
 76 693 76 693 85.5 699 c 128,-1,11
 95 705 95 705 110 705 c 0,12,13
 139 705 139 705 151 679 c 128,-1,14
 163 653 163 653 163 589 c 0,15,16
 163 567 163 567 162.5 550 c 128,-1,17
 162 533 162 533 162 515.5 c 128,-1,18
 162 498 162 498 161.5 477 c 128,-1,19
 161 456 161 456 161 426 c 0,20,21
 161 326 161 326 167.5 260 c 128,-1,22
 174 194 174 194 190 154.5 c 128,-1,23
 206 115 206 115 233.5 99 c 128,-1,24
 261 83 261 83 302 83 c 0,25,26
 345 83 345 83 373.5 100.5 c 128,-1,27
 402 118 402 118 419 159.5 c 128,-1,28
 436 201 436 201 443.5 270 c 128,-1,29
 451 339 451 339 451 442 c 0,30,31
 451 487 451 487 450.5 519 c 128,-1,32
 450 551 450 551 450 577 c 0,33,34
 450 614 450 614 452.5 639 c 128,-1,35
 455 664 455 664 460.5 678.5 c 128,-1,36
 466 693 466 693 476 699 c 128,-1,37
 486 705 486 705 501 705 c 256,38,39
 516 705 516 705 526 699 c 128,-1,40
 536 693 536 693 542 678 c 128,-1,41
 548 663 548 663 550 636.5 c 128,-1,42
 552 610 552 610 552 568 c 0,43,44
 552 392 552 392 541 278.5 c 128,-1,45
 530 165 530 165 502 99.5 c 128,-1,46
 474 34 474 34 425.5 8.5 c 128,-1,47
 377 -17 377 -17 301 -17 c 0,0,1
215 905 m 0,48,49
 238 905 238 905 257.5 887 c 128,-1,50
 277 869 277 869 277 844 c 0,51,52
 277 820 277 820 257 802.5 c 128,-1,53
 237 785 237 785 212 785 c 0,54,55
 191 785 191 785 172.5 802.5 c 128,-1,56
 154 820 154 820 154 846 c 0,57,58
 154 870 154 870 172.5 887.5 c 128,-1,59
 191 905 191 905 215 905 c 0,48,49
395 905 m 0,60,61
 418 905 418 905 437.5 887 c 128,-1,62
 457 869 457 869 457 844 c 0,63,64
 457 820 457 820 437 802.5 c 128,-1,65
 417 785 417 785 392 785 c 0,66,67
 371 785 371 785 352.5 802.5 c 128,-1,68
 334 820 334 820 334 846 c 0,69,70
 334 870 334 870 352.5 887.5 c 128,-1,71
 371 905 371 905 395 905 c 0,60,61
EndSplineSet
Validated: 1
EndChar

StartChar: Ugrave
Encoding: 217 217 55
Width: 612
Flags: W
LayerCount: 2
Fore
SplineSet
301 -17 m 0,0,1
 187 -17 187 -17 134 45 c 0,2,3
 113 69 113 69 98.5 106.5 c 128,-1,4
 84 144 84 144 75.5 204 c 128,-1,5
 67 264 67 264 63.5 352.5 c 128,-1,6
 60 441 60 441 60 568 c 0,7,8
 60 609 60 609 62 635.5 c 128,-1,9
 64 662 64 662 70 677.5 c 128,-1,10
 76 693 76 693 85.5 699 c 128,-1,11
 95 705 95 705 110 705 c 0,12,13
 139 705 139 705 151 679 c 128,-1,14
 163 653 163 653 163 589 c 0,15,16
 163 567 163 567 162.5 550 c 128,-1,17
 162 533 162 533 162 515.5 c 128,-1,18
 162 498 162 498 161.5 477 c 128,-1,19
 161 456 161 456 161 426 c 0,20,21
 161 326 161 326 167.5 260 c 128,-1,22
 174 194 174 194 190 154.5 c 128,-1,23
 206 115 206 115 233.5 99 c 128,-1,24
 261 83 261 83 302 83 c 0,25,26
 345 83 345 83 373.5 100.5 c 128,-1,27
 402 118 402 118 419 159.5 c 128,-1,28
 436 201 436 201 443.5 270 c 128,-1,29
 451 339 451 339 451 442 c 0,30,31
 451 487 451 487 450.5 519 c 128,-1,32
 450 551 450 551 450 577 c 0,33,34
 450 614 450 614 452.5 639 c 128,-1,35
 455 664 455 664 460.5 678.5 c 128,-1,36
 466 693 466 693 476 699 c 128,-1,37
 486 705 486 705 501 705 c 256,38,39
 516 705 516 705 526 699 c 128,-1,40
 536 693 536 693 542 678 c 128,-1,41
 548 663 548 663 550 636.5 c 128,-1,42
 552 610 552 610 552 568 c 0,43,44
 552 392 552 392 541 278.5 c 128,-1,45
 530 165 530 165 502 99.5 c 128,-1,46
 474 34 474 34 425.5 8.5 c 128,-1,47
 377 -17 377 -17 301 -17 c 0,0,1
309 779 m 0,48,49
 294 779 294 779 271 786 c 128,-1,50
 248 793 248 793 222.5 804 c 128,-1,51
 197 815 197 815 171 829.5 c 128,-1,52
 145 844 145 844 124 859 c 128,-1,53
 103 874 103 874 90 888.5 c 128,-1,54
 77 903 77 903 77 915 c 0,55,56
 77 934 77 934 89 943 c 128,-1,57
 101 952 101 952 118 952 c 0,58,59
 137 952 137 952 173.5 936 c 128,-1,60
 210 920 210 920 246.5 897 c 128,-1,61
 283 874 283 874 310.5 849 c 128,-1,62
 338 824 338 824 340 805 c 0,63,64
 340 790 340 790 330 785.5 c 128,-1,65
 320 781 320 781 309 779 c 0,48,49
EndSplineSet
Validated: 1
EndChar

StartChar: V
Encoding: 86 86 56
Width: 564
Flags: W
LayerCount: 2
Fore
SplineSet
333 40 m 0,0,1
 320 16 320 16 309.5 5 c 128,-1,2
 299 -6 299 -6 283 -6 c 256,3,4
 267 -6 267 -6 255 5 c 128,-1,5
 243 16 243 16 229 39 c 0,6,7
 211 69 211 69 188.5 122 c 128,-1,8
 166 175 166 175 143 237.5 c 128,-1,9
 120 300 120 300 98 367 c 128,-1,10
 76 434 76 434 58.5 493 c 128,-1,11
 41 552 41 552 30.5 596.5 c 128,-1,12
 20 641 20 641 20 660 c 0,13,14
 20 680 20 680 28 690 c 128,-1,15
 36 700 36 700 59 700 c 0,16,17
 72 700 72 700 81.5 693.5 c 128,-1,18
 91 687 91 687 106 657 c 0,19,20
 118 634 118 634 132 597 c 128,-1,21
 146 560 146 560 161.5 515 c 128,-1,22
 177 470 177 470 193 420.5 c 128,-1,23
 209 371 209 371 225 322 c 128,-1,24
 241 273 241 273 255 228 c 128,-1,25
 269 183 269 183 281 147 c 1,26,27
 293 184 293 184 308 229.5 c 128,-1,28
 323 275 323 275 339 323.5 c 128,-1,29
 355 372 355 372 371 421.5 c 128,-1,30
 387 471 387 471 403 515 c 128,-1,31
 419 559 419 559 433 596 c 128,-1,32
 447 633 447 633 458 657 c 0,33,34
 472 686 472 686 482.5 693 c 128,-1,35
 493 700 493 700 504 700 c 0,36,37
 527 700 527 700 535.5 688.5 c 128,-1,38
 544 677 544 677 544 655 c 0,39,40
 544 635 544 635 538 607 c 128,-1,41
 532 579 532 579 517.5 532.5 c 128,-1,42
 503 486 503 486 479 417 c 128,-1,43
 455 348 455 348 420 248 c 0,44,45
 411 221 411 221 399.5 192 c 128,-1,46
 388 163 388 163 376.5 135.5 c 128,-1,47
 365 108 365 108 354 83 c 128,-1,48
 343 58 343 58 333 40 c 0,0,1
EndSplineSet
Validated: 1
EndChar

StartChar: W
Encoding: 87 87 57
Width: 760
Flags: W
LayerCount: 2
Fore
SplineSet
334 510 m 0,0,1
 340 524 340 524 352.5 533 c 128,-1,2
 365 542 365 542 379 542 c 0,3,4
 392 542 392 542 404 533.5 c 128,-1,5
 416 525 416 525 423 511 c 0,6,7
 461 433 461 433 498 342.5 c 128,-1,8
 535 252 535 252 565 171 c 1,9,10
 582 295 582 295 602 421 c 128,-1,11
 622 547 622 547 647 662 c 0,12,13
 650 675 650 675 656 683.5 c 128,-1,14
 662 692 662 692 669 696.5 c 128,-1,15
 676 701 676 701 683.5 703 c 128,-1,16
 691 705 691 705 696 705 c 0,17,18
 713 705 713 705 724 695.5 c 128,-1,19
 735 686 735 686 735 670 c 0,20,21
 735 652 735 652 729 606.5 c 128,-1,22
 723 561 723 561 713 500.5 c 128,-1,23
 703 440 703 440 690.5 372 c 128,-1,24
 678 304 678 304 666 241 c 128,-1,25
 654 178 654 178 643 126 c 128,-1,26
 632 74 632 74 625 47 c 0,27,28
 619 24 619 24 607 12.5 c 128,-1,29
 595 1 595 1 572 1 c 0,30,31
 548 1 548 1 531.5 22.5 c 128,-1,32
 515 44 515 44 495.5 90 c 128,-1,33
 476 136 476 136 449 207.5 c 128,-1,34
 422 279 422 279 379 379 c 1,35,36
 335 279 335 279 307.5 207 c 128,-1,37
 280 135 280 135 260.5 89 c 128,-1,38
 241 43 241 43 224 21.5 c 128,-1,39
 207 0 207 0 184 0 c 0,40,41
 144 0 144 0 131 46 c 0,42,43
 123 73 123 73 112 124.5 c 128,-1,44
 101 176 101 176 89.5 239 c 128,-1,45
 78 302 78 302 66 369.5 c 128,-1,46
 54 437 54 437 45 497 c 128,-1,47
 36 557 36 557 30.5 602.5 c 128,-1,48
 25 648 25 648 25 666 c 0,49,50
 25 683 25 683 36 694 c 128,-1,51
 47 705 47 705 67 705 c 0,52,53
 81 705 81 705 94 696.5 c 128,-1,54
 107 688 107 688 113 662 c 0,55,56
 137 547 137 547 155.5 421 c 128,-1,57
 174 295 174 295 195 171 c 1,58,59
 226 244 226 244 257 326 c 128,-1,60
 288 408 288 408 334 510 c 0,0,1
EndSplineSet
Validated: 1
EndChar

StartChar: X
Encoding: 88 88 58
Width: 588
Flags: W
LayerCount: 2
Fore
SplineSet
294 263 m 1,0,-1
 145 32 l 2,1,2
 131 10 131 10 114.5 -1.5 c 128,-1,3
 98 -13 98 -13 77 -13 c 0,4,5
 51 -13 51 -13 40.5 -0.5 c 128,-1,6
 30 12 30 12 30 31 c 0,7,8
 30 42 30 42 34.5 54 c 128,-1,9
 39 66 39 66 47 77 c 2,10,-1
 233 343 l 1,11,-1
 47 609 l 2,12,13
 39 620 39 620 34.5 632 c 128,-1,14
 30 644 30 644 30 655 c 0,15,16
 30 674 30 674 40.5 686.5 c 128,-1,17
 51 699 51 699 77 699 c 0,18,19
 98 699 98 699 114.5 687.5 c 128,-1,20
 131 676 131 676 145 654 c 2,21,-1
 294 423 l 1,22,-1
 443 654 l 2,23,24
 457 676 457 676 473.5 687.5 c 128,-1,25
 490 699 490 699 511 699 c 0,26,27
 537 699 537 699 547.5 686.5 c 128,-1,28
 558 674 558 674 558 655 c 0,29,30
 558 644 558 644 553.5 632 c 128,-1,31
 549 620 549 620 541 609 c 2,32,-1
 355 343 l 1,33,-1
 541 77 l 2,34,35
 549 66 549 66 553.5 54 c 128,-1,36
 558 42 558 42 558 31 c 0,37,38
 558 12 558 12 547.5 -0.5 c 128,-1,39
 537 -13 537 -13 511 -13 c 0,40,41
 490 -13 490 -13 473.5 -1.5 c 128,-1,42
 457 10 457 10 443 32 c 2,43,-1
 294 263 l 1,0,-1
EndSplineSet
Validated: 1
EndChar

StartChar: Y
Encoding: 89 89 59
Width: 568
Flags: W
LayerCount: 2
Fore
SplineSet
241 62 m 0,0,1
 239 117 239 117 237.5 179.5 c 128,-1,2
 236 242 236 242 236 324 c 1,3,-1
 37 609 l 2,4,5
 29 620 29 620 24.5 632 c 128,-1,6
 20 644 20 644 20 655 c 0,7,8
 20 674 20 674 30.5 686.5 c 128,-1,9
 41 699 41 699 67 699 c 0,10,11
 88 699 88 699 104.5 687.5 c 128,-1,12
 121 676 121 676 135 654 c 2,13,-1
 284 417 l 1,14,-1
 433 654 l 2,15,16
 447 676 447 676 463.5 687.5 c 128,-1,17
 480 699 480 699 501 699 c 0,18,19
 527 699 527 699 537.5 686.5 c 128,-1,20
 548 674 548 674 548 655 c 0,21,22
 548 644 548 644 543.5 632 c 128,-1,23
 539 620 539 620 531 609 c 2,24,-1
 336 330 l 1,25,26
 336 262 336 262 334.5 199.5 c 128,-1,27
 333 137 333 137 330 63 c 0,28,29
 329 39 329 39 325.5 26 c 128,-1,30
 322 13 322 13 316 6 c 128,-1,31
 310 -1 310 -1 302.5 -2.5 c 128,-1,32
 295 -4 295 -4 285 -4 c 0,33,34
 267 -4 267 -4 255 8.5 c 128,-1,35
 243 21 243 21 241 62 c 0,0,1
EndSplineSet
Validated: 1
EndChar

StartChar: Yacute
Encoding: 221 221 60
Width: 568
Flags: W
LayerCount: 2
Fore
SplineSet
241 62 m 0,0,1
 239 117 239 117 237.5 179.5 c 128,-1,2
 236 242 236 242 236 324 c 1,3,-1
 37 609 l 2,4,5
 29 620 29 620 24.5 632 c 128,-1,6
 20 644 20 644 20 655 c 0,7,8
 20 674 20 674 30.5 686.5 c 128,-1,9
 41 699 41 699 67 699 c 0,10,11
 88 699 88 699 104.5 687.5 c 128,-1,12
 121 676 121 676 135 654 c 2,13,-1
 284 417 l 1,14,-1
 433 654 l 2,15,16
 447 676 447 676 463.5 687.5 c 128,-1,17
 480 699 480 699 501 699 c 0,18,19
 527 699 527 699 537.5 686.5 c 128,-1,20
 548 674 548 674 548 655 c 0,21,22
 548 644 548 644 543.5 632 c 128,-1,23
 539 620 539 620 531 609 c 2,24,-1
 336 330 l 1,25,26
 336 262 336 262 334.5 199.5 c 128,-1,27
 333 137 333 137 330 63 c 0,28,29
 329 39 329 39 325.5 26 c 128,-1,30
 322 13 322 13 316 6 c 128,-1,31
 310 -1 310 -1 302.5 -2.5 c 128,-1,32
 295 -4 295 -4 285 -4 c 0,33,34
 267 -4 267 -4 255 8.5 c 128,-1,35
 243 21 243 21 241 62 c 0,0,1
235 776 m 0,36,37
 224 778 224 778 213.5 783.5 c 128,-1,38
 203 789 203 789 203 804 c 0,39,40
 204 816 204 816 217.5 832 c 128,-1,41
 231 848 231 848 251 864.5 c 128,-1,42
 271 881 271 881 296 896.5 c 128,-1,43
 321 912 321 912 345.5 924 c 128,-1,44
 370 936 370 936 391 943.5 c 128,-1,45
 412 951 412 951 425 951 c 0,46,47
 442 951 442 951 454.5 941 c 128,-1,48
 467 931 467 931 467 912 c 0,49,50
 467 900 467 900 454 885.5 c 128,-1,51
 441 871 441 871 420 856 c 128,-1,52
 399 841 399 841 373 826.5 c 128,-1,53
 347 812 347 812 321.5 801 c 128,-1,54
 296 790 296 790 273 783 c 128,-1,55
 250 776 250 776 235 776 c 0,36,37
EndSplineSet
Validated: 1
EndChar

StartChar: Ydieresis
Encoding: 376 376 61
Width: 568
Flags: W
LayerCount: 2
Fore
SplineSet
241 62 m 0,0,1
 239 117 239 117 237.5 179.5 c 128,-1,2
 236 242 236 242 236 324 c 1,3,-1
 37 609 l 2,4,5
 29 620 29 620 24.5 632 c 128,-1,6
 20 644 20 644 20 655 c 0,7,8
 20 674 20 674 30.5 686.5 c 128,-1,9
 41 699 41 699 67 699 c 0,10,11
 88 699 88 699 104.5 687.5 c 128,-1,12
 121 676 121 676 135 654 c 2,13,-1
 284 417 l 1,14,-1
 433 654 l 2,15,16
 447 676 447 676 463.5 687.5 c 128,-1,17
 480 699 480 699 501 699 c 0,18,19
 527 699 527 699 537.5 686.5 c 128,-1,20
 548 674 548 674 548 655 c 0,21,22
 548 644 548 644 543.5 632 c 128,-1,23
 539 620 539 620 531 609 c 2,24,-1
 336 330 l 1,25,26
 336 262 336 262 334.5 199.5 c 128,-1,27
 333 137 333 137 330 63 c 0,28,29
 329 39 329 39 325.5 26 c 128,-1,30
 322 13 322 13 316 6 c 128,-1,31
 310 -1 310 -1 302.5 -2.5 c 128,-1,32
 295 -4 295 -4 285 -4 c 0,33,34
 267 -4 267 -4 255 8.5 c 128,-1,35
 243 21 243 21 241 62 c 0,0,1
194 931 m 0,36,37
 217 931 217 931 236.5 913 c 128,-1,38
 256 895 256 895 256 870 c 0,39,40
 256 846 256 846 236 828.5 c 128,-1,41
 216 811 216 811 191 811 c 0,42,43
 170 811 170 811 151.5 828.5 c 128,-1,44
 133 846 133 846 133 872 c 0,45,46
 133 896 133 896 151.5 913.5 c 128,-1,47
 170 931 170 931 194 931 c 0,36,37
374 931 m 0,48,49
 397 931 397 931 416.5 913 c 128,-1,50
 436 895 436 895 436 870 c 0,51,52
 436 846 436 846 416 828.5 c 128,-1,53
 396 811 396 811 371 811 c 0,54,55
 350 811 350 811 331.5 828.5 c 128,-1,56
 313 846 313 846 313 872 c 0,57,58
 313 896 313 896 331.5 913.5 c 128,-1,59
 350 931 350 931 374 931 c 0,48,49
EndSplineSet
Validated: 1
EndChar

StartChar: Z
Encoding: 90 90 62
Width: 527
Flags: W
LayerCount: 2
Fore
SplineSet
431 2 m 0,0,1
 413 0 413 0 386.5 -1.5 c 128,-1,2
 360 -3 360 -3 329.5 -4 c 128,-1,3
 299 -5 299 -5 265.5 -6 c 128,-1,4
 232 -7 232 -7 201 -7 c 0,5,6
 147 -7 147 -7 113.5 -6 c 128,-1,7
 80 -5 80 -5 61.5 -1.5 c 128,-1,8
 43 2 43 2 36.5 9 c 128,-1,9
 30 16 30 16 30 28 c 0,10,11
 30 50 30 50 42 79.5 c 128,-1,12
 54 109 54 109 70.5 139 c 128,-1,13
 87 169 87 169 104 195.5 c 128,-1,14
 121 222 121 222 130 237 c 2,15,-1
 352 598 l 1,16,17
 333 598 333 598 326.5 597.5 c 128,-1,18
 320 597 320 597 310.5 596.5 c 128,-1,19
 301 596 301 596 281.5 596 c 128,-1,20
 262 596 262 596 219 596 c 0,21,22
 157 596 157 596 120.5 597.5 c 128,-1,23
 84 599 84 599 65.5 604 c 128,-1,24
 47 609 47 609 41.5 618 c 128,-1,25
 36 627 36 627 36 643 c 0,26,27
 36 668 36 668 48 678.5 c 128,-1,28
 60 689 60 689 99 693 c 0,29,30
 115 694 115 694 135 695.5 c 128,-1,31
 155 697 155 697 176.5 697.5 c 128,-1,32
 198 698 198 698 219 698.5 c 128,-1,33
 240 699 240 699 258 699 c 256,34,35
 276 699 276 699 292.5 698.5 c 128,-1,36
 309 698 309 698 326.5 697.5 c 128,-1,37
 344 697 344 697 364 696 c 128,-1,38
 384 695 384 695 410 694 c 0,39,40
 418 694 418 694 430.5 692.5 c 128,-1,41
 443 691 443 691 454.5 688 c 128,-1,42
 466 685 466 685 474 678.5 c 128,-1,43
 482 672 482 672 482 661 c 0,44,45
 482 643 482 643 465.5 606.5 c 128,-1,46
 449 570 449 570 421.5 522.5 c 128,-1,47
 394 475 394 475 358.5 419.5 c 128,-1,48
 323 364 323 364 286 306.5 c 128,-1,49
 249 249 249 249 213 193 c 128,-1,50
 177 137 177 137 148 89 c 1,51,52
 166 90 166 90 200.5 90.5 c 128,-1,53
 235 91 235 91 265 91 c 0,54,55
 294 91 294 91 338.5 90 c 128,-1,56
 383 89 383 89 430 85 c 0,57,58
 454 83 454 83 467 80 c 128,-1,59
 480 77 480 77 487 71.5 c 128,-1,60
 494 66 494 66 495.5 58 c 128,-1,61
 497 50 497 50 497 38 c 0,62,63
 497 30 497 30 496 24 c 128,-1,64
 495 18 495 18 489 13.5 c 128,-1,65
 483 9 483 9 469.5 6.5 c 128,-1,66
 456 4 456 4 431 2 c 0,0,1
EndSplineSet
Validated: 1
EndChar

StartChar: Zcaron
Encoding: 381 381 63
Width: 527
Flags: W
LayerCount: 2
Fore
SplineSet
431 2 m 0,0,1
 413 0 413 0 386.5 -1.5 c 128,-1,2
 360 -3 360 -3 329.5 -4 c 128,-1,3
 299 -5 299 -5 265.5 -6 c 128,-1,4
 232 -7 232 -7 201 -7 c 0,5,6
 147 -7 147 -7 113.5 -6 c 128,-1,7
 80 -5 80 -5 61.5 -1.5 c 128,-1,8
 43 2 43 2 36.5 9 c 128,-1,9
 30 16 30 16 30 28 c 0,10,11
 30 50 30 50 42 79.5 c 128,-1,12
 54 109 54 109 70.5 139 c 128,-1,13
 87 169 87 169 104 195.5 c 128,-1,14
 121 222 121 222 130 237 c 2,15,-1
 352 598 l 1,16,17
 333 598 333 598 326.5 597.5 c 128,-1,18
 320 597 320 597 310.5 596.5 c 128,-1,19
 301 596 301 596 281.5 596 c 128,-1,20
 262 596 262 596 219 596 c 0,21,22
 157 596 157 596 120.5 597.5 c 128,-1,23
 84 599 84 599 65.5 604 c 128,-1,24
 47 609 47 609 41.5 618 c 128,-1,25
 36 627 36 627 36 643 c 0,26,27
 36 668 36 668 48 678.5 c 128,-1,28
 60 689 60 689 99 693 c 0,29,30
 115 694 115 694 135 695.5 c 128,-1,31
 155 697 155 697 176.5 697.5 c 128,-1,32
 198 698 198 698 219 698.5 c 128,-1,33
 240 699 240 699 258 699 c 256,34,35
 276 699 276 699 292.5 698.5 c 128,-1,36
 309 698 309 698 326.5 697.5 c 128,-1,37
 344 697 344 697 364 696 c 128,-1,38
 384 695 384 695 410 694 c 0,39,40
 418 694 418 694 430.5 692.5 c 128,-1,41
 443 691 443 691 454.5 688 c 128,-1,42
 466 685 466 685 474 678.5 c 128,-1,43
 482 672 482 672 482 661 c 0,44,45
 482 643 482 643 465.5 606.5 c 128,-1,46
 449 570 449 570 421.5 522.5 c 128,-1,47
 394 475 394 475 358.5 419.5 c 128,-1,48
 323 364 323 364 286 306.5 c 128,-1,49
 249 249 249 249 213 193 c 128,-1,50
 177 137 177 137 148 89 c 1,51,52
 166 90 166 90 200.5 90.5 c 128,-1,53
 235 91 235 91 265 91 c 0,54,55
 294 91 294 91 338.5 90 c 128,-1,56
 383 89 383 89 430 85 c 0,57,58
 454 83 454 83 467 80 c 128,-1,59
 480 77 480 77 487 71.5 c 128,-1,60
 494 66 494 66 495.5 58 c 128,-1,61
 497 50 497 50 497 38 c 0,62,63
 497 30 497 30 496 24 c 128,-1,64
 495 18 495 18 489 13.5 c 128,-1,65
 483 9 483 9 469.5 6.5 c 128,-1,66
 456 4 456 4 431 2 c 0,0,1
271 775 m 0,67,68
 260 775 260 775 243 783.5 c 128,-1,69
 226 792 226 792 207 804.5 c 128,-1,70
 188 817 188 817 169.5 832 c 128,-1,71
 151 847 151 847 138 861 c 0,72,73
 123 877 123 877 117.5 889.5 c 128,-1,74
 112 902 112 902 112 911 c 0,75,76
 112 928 112 928 123.5 939.5 c 128,-1,77
 135 951 135 951 153 951 c 0,78,79
 170 951 170 951 192.5 936.5 c 128,-1,80
 215 922 215 922 250 890 c 2,81,-1
 271 871 l 1,82,-1
 292 890 l 2,83,84
 327 922 327 922 348.5 937 c 128,-1,85
 370 952 370 952 387 952 c 0,86,87
 407 952 407 952 417.5 939 c 128,-1,88
 428 926 428 926 428 909 c 0,89,90
 428 896 428 896 421.5 884.5 c 128,-1,91
 415 873 415 873 404 861 c 0,92,93
 391 847 391 847 372.5 832 c 128,-1,94
 354 817 354 817 335 804.5 c 128,-1,95
 316 792 316 792 298.5 783.5 c 128,-1,96
 281 775 281 775 271 775 c 0,67,68
EndSplineSet
Validated: 1
EndChar

StartChar: a
Encoding: 97 97 64
Width: 573
Flags: W
LayerCount: 2
Fore
SplineSet
471 -4 m 0,0,1
 455 -4 455 -4 445.5 1.5 c 128,-1,2
 436 7 436 7 431 16 c 128,-1,3
 426 25 426 25 424 37.5 c 128,-1,4
 422 50 422 50 421 64 c 1,5,6
 396 33 396 33 356.5 12 c 128,-1,7
 317 -9 317 -9 256 -9 c 0,8,9
 217 -9 217 -9 176.5 2.5 c 128,-1,10
 136 14 136 14 103 42.5 c 128,-1,11
 70 71 70 71 49 119 c 128,-1,12
 28 167 28 167 28 240 c 0,13,14
 28 297 28 297 42 347 c 128,-1,15
 56 397 56 397 84.5 434.5 c 128,-1,16
 113 472 113 472 156 494 c 128,-1,17
 199 516 199 516 257 516 c 0,18,19
 308 516 308 516 348 497.5 c 128,-1,20
 388 479 388 479 420 437 c 1,21,22
 420 449 420 449 421 461.5 c 128,-1,23
 422 474 422 474 426.5 484.5 c 128,-1,24
 431 495 431 495 441 501.5 c 128,-1,25
 451 508 451 508 468 508 c 0,26,27
 483 508 483 508 496 496 c 128,-1,28
 509 484 509 484 511 444 c 0,29,30
 514 391 514 391 515.5 349 c 128,-1,31
 517 307 517 307 517 262 c 0,32,33
 517 207 517 207 516 161 c 128,-1,34
 515 115 515 115 511 63 c 0,35,36
 509 40 509 40 505.5 26.5 c 128,-1,37
 502 13 502 13 497 6.5 c 128,-1,38
 492 0 492 0 485 -2 c 128,-1,39
 478 -4 478 -4 471 -4 c 0,0,1
417 250 m 0,40,41
 417 302 417 302 401.5 335 c 128,-1,42
 386 368 386 368 362.5 386.5 c 128,-1,43
 339 405 339 405 312 412 c 128,-1,44
 285 419 285 419 262 419 c 0,45,46
 226 419 226 419 200.5 406 c 128,-1,47
 175 393 175 393 159 370.5 c 128,-1,48
 143 348 143 348 135.5 317.5 c 128,-1,49
 128 287 128 287 128 251 c 0,50,51
 128 163 128 163 166.5 121 c 128,-1,52
 205 79 205 79 271 79 c 0,53,54
 310 79 310 79 337.5 92.5 c 128,-1,55
 365 106 365 106 382.5 129 c 128,-1,56
 400 152 400 152 408.5 183.5 c 128,-1,57
 417 215 417 215 417 250 c 0,40,41
EndSplineSet
Validated: 1
EndChar

StartChar: aacute
Encoding: 225 225 65
Width: 573
Flags: W
LayerCount: 2
Fore
SplineSet
471 -4 m 0,0,1
 455 -4 455 -4 445.5 1.5 c 128,-1,2
 436 7 436 7 431 16 c 128,-1,3
 426 25 426 25 424 37.5 c 128,-1,4
 422 50 422 50 421 64 c 1,5,6
 396 33 396 33 356.5 12 c 128,-1,7
 317 -9 317 -9 256 -9 c 0,8,9
 217 -9 217 -9 176.5 2.5 c 128,-1,10
 136 14 136 14 103 42.5 c 128,-1,11
 70 71 70 71 49 119 c 128,-1,12
 28 167 28 167 28 240 c 0,13,14
 28 297 28 297 42 347 c 128,-1,15
 56 397 56 397 84.5 434.5 c 128,-1,16
 113 472 113 472 156 494 c 128,-1,17
 199 516 199 516 257 516 c 0,18,19
 308 516 308 516 348 497.5 c 128,-1,20
 388 479 388 479 420 437 c 1,21,22
 420 449 420 449 421 461.5 c 128,-1,23
 422 474 422 474 426.5 484.5 c 128,-1,24
 431 495 431 495 441 501.5 c 128,-1,25
 451 508 451 508 468 508 c 0,26,27
 483 508 483 508 496 496 c 128,-1,28
 509 484 509 484 511 444 c 0,29,30
 514 391 514 391 515.5 349 c 128,-1,31
 517 307 517 307 517 262 c 0,32,33
 517 207 517 207 516 161 c 128,-1,34
 515 115 515 115 511 63 c 0,35,36
 509 40 509 40 505.5 26.5 c 128,-1,37
 502 13 502 13 497 6.5 c 128,-1,38
 492 0 492 0 485 -2 c 128,-1,39
 478 -4 478 -4 471 -4 c 0,0,1
417 250 m 0,40,41
 417 302 417 302 401.5 335 c 128,-1,42
 386 368 386 368 362.5 386.5 c 128,-1,43
 339 405 339 405 312 412 c 128,-1,44
 285 419 285 419 262 419 c 0,45,46
 226 419 226 419 200.5 406 c 128,-1,47
 175 393 175 393 159 370.5 c 128,-1,48
 143 348 143 348 135.5 317.5 c 128,-1,49
 128 287 128 287 128 251 c 0,50,51
 128 163 128 163 166.5 121 c 128,-1,52
 205 79 205 79 271 79 c 0,53,54
 310 79 310 79 337.5 92.5 c 128,-1,55
 365 106 365 106 382.5 129 c 128,-1,56
 400 152 400 152 408.5 183.5 c 128,-1,57
 417 215 417 215 417 250 c 0,40,41
194 585 m 0,58,59
 183 587 183 587 172.5 592.5 c 128,-1,60
 162 598 162 598 162 613 c 0,61,62
 163 625 163 625 176.5 641 c 128,-1,63
 190 657 190 657 210 673.5 c 128,-1,64
 230 690 230 690 255 705.5 c 128,-1,65
 280 721 280 721 304.5 733 c 128,-1,66
 329 745 329 745 350 752.5 c 128,-1,67
 371 760 371 760 384 760 c 0,68,69
 401 760 401 760 413.5 750 c 128,-1,70
 426 740 426 740 426 721 c 0,71,72
 426 709 426 709 413 694.5 c 128,-1,73
 400 680 400 680 379 665 c 128,-1,74
 358 650 358 650 332 635.5 c 128,-1,75
 306 621 306 621 280.5 610 c 128,-1,76
 255 599 255 599 232 592 c 128,-1,77
 209 585 209 585 194 585 c 0,58,59
EndSplineSet
Validated: 1
EndChar

StartChar: acircumflex
Encoding: 226 226 66
Width: 573
Flags: W
LayerCount: 2
Fore
SplineSet
471 -4 m 0,0,1
 455 -4 455 -4 445.5 1.5 c 128,-1,2
 436 7 436 7 431 16 c 128,-1,3
 426 25 426 25 424 37.5 c 128,-1,4
 422 50 422 50 421 64 c 1,5,6
 396 33 396 33 356.5 12 c 128,-1,7
 317 -9 317 -9 256 -9 c 0,8,9
 217 -9 217 -9 176.5 2.5 c 128,-1,10
 136 14 136 14 103 42.5 c 128,-1,11
 70 71 70 71 49 119 c 128,-1,12
 28 167 28 167 28 240 c 0,13,14
 28 297 28 297 42 347 c 128,-1,15
 56 397 56 397 84.5 434.5 c 128,-1,16
 113 472 113 472 156 494 c 128,-1,17
 199 516 199 516 257 516 c 0,18,19
 308 516 308 516 348 497.5 c 128,-1,20
 388 479 388 479 420 437 c 1,21,22
 420 449 420 449 421 461.5 c 128,-1,23
 422 474 422 474 426.5 484.5 c 128,-1,24
 431 495 431 495 441 501.5 c 128,-1,25
 451 508 451 508 468 508 c 0,26,27
 483 508 483 508 496 496 c 128,-1,28
 509 484 509 484 511 444 c 0,29,30
 514 391 514 391 515.5 349 c 128,-1,31
 517 307 517 307 517 262 c 0,32,33
 517 207 517 207 516 161 c 128,-1,34
 515 115 515 115 511 63 c 0,35,36
 509 40 509 40 505.5 26.5 c 128,-1,37
 502 13 502 13 497 6.5 c 128,-1,38
 492 0 492 0 485 -2 c 128,-1,39
 478 -4 478 -4 471 -4 c 0,0,1
417 250 m 0,40,41
 417 302 417 302 401.5 335 c 128,-1,42
 386 368 386 368 362.5 386.5 c 128,-1,43
 339 405 339 405 312 412 c 128,-1,44
 285 419 285 419 262 419 c 0,45,46
 226 419 226 419 200.5 406 c 128,-1,47
 175 393 175 393 159 370.5 c 128,-1,48
 143 348 143 348 135.5 317.5 c 128,-1,49
 128 287 128 287 128 251 c 0,50,51
 128 163 128 163 166.5 121 c 128,-1,52
 205 79 205 79 271 79 c 0,53,54
 310 79 310 79 337.5 92.5 c 128,-1,55
 365 106 365 106 382.5 129 c 128,-1,56
 400 152 400 152 408.5 183.5 c 128,-1,57
 417 215 417 215 417 250 c 0,40,41
281 760 m 0,58,59
 291 760 291 760 308.5 751.5 c 128,-1,60
 326 743 326 743 345 730.5 c 128,-1,61
 364 718 364 718 382.5 702.5 c 128,-1,62
 401 687 401 687 414 674 c 0,63,64
 425 662 425 662 431.5 650.5 c 128,-1,65
 438 639 438 639 438 626 c 0,66,67
 438 609 438 609 427.5 596 c 128,-1,68
 417 583 417 583 397 583 c 0,69,70
 380 583 380 583 358.5 598 c 128,-1,71
 337 613 337 613 302 645 c 2,72,-1
 281 664 l 1,73,-1
 260 645 l 2,74,75
 225 613 225 613 202.5 598.5 c 128,-1,76
 180 584 180 584 163 584 c 0,77,78
 145 584 145 584 133.5 595.5 c 128,-1,79
 122 607 122 607 122 624 c 0,80,81
 122 633 122 633 127.5 645.5 c 128,-1,82
 133 658 133 658 148 674 c 0,83,84
 161 687 161 687 179.5 702.5 c 128,-1,85
 198 718 198 718 217 730.5 c 128,-1,86
 236 743 236 743 253 751.5 c 128,-1,87
 270 760 270 760 281 760 c 0,58,59
EndSplineSet
Validated: 1
EndChar

StartChar: acute
Encoding: 180 180 67
Width: 324
Flags: W
LayerCount: 2
Fore
SplineSet
63 575 m 0,0,1
 52 577 52 577 41.5 582.5 c 128,-1,2
 31 588 31 588 31 603 c 0,3,4
 32 615 32 615 45.5 631 c 128,-1,5
 59 647 59 647 79 663.5 c 128,-1,6
 99 680 99 680 124 695.5 c 128,-1,7
 149 711 149 711 173.5 723 c 128,-1,8
 198 735 198 735 219 742.5 c 128,-1,9
 240 750 240 750 253 750 c 0,10,11
 270 750 270 750 282.5 740 c 128,-1,12
 295 730 295 730 295 711 c 0,13,14
 295 699 295 699 282 684.5 c 128,-1,15
 269 670 269 670 248 655 c 128,-1,16
 227 640 227 640 201 625.5 c 128,-1,17
 175 611 175 611 149.5 600 c 128,-1,18
 124 589 124 589 101 582 c 128,-1,19
 78 575 78 575 63 575 c 0,0,1
EndSplineSet
Validated: 1
EndChar

StartChar: adieresis
Encoding: 228 228 68
Width: 573
Flags: W
LayerCount: 2
Fore
SplineSet
471 -4 m 0,0,1
 455 -4 455 -4 445.5 1.5 c 128,-1,2
 436 7 436 7 431 16 c 128,-1,3
 426 25 426 25 424 37.5 c 128,-1,4
 422 50 422 50 421 64 c 1,5,6
 396 33 396 33 356.5 12 c 128,-1,7
 317 -9 317 -9 256 -9 c 0,8,9
 217 -9 217 -9 176.5 2.5 c 128,-1,10
 136 14 136 14 103 42.5 c 128,-1,11
 70 71 70 71 49 119 c 128,-1,12
 28 167 28 167 28 240 c 0,13,14
 28 297 28 297 42 347 c 128,-1,15
 56 397 56 397 84.5 434.5 c 128,-1,16
 113 472 113 472 156 494 c 128,-1,17
 199 516 199 516 257 516 c 0,18,19
 308 516 308 516 348 497.5 c 128,-1,20
 388 479 388 479 420 437 c 1,21,22
 420 449 420 449 421 461.5 c 128,-1,23
 422 474 422 474 426.5 484.5 c 128,-1,24
 431 495 431 495 441 501.5 c 128,-1,25
 451 508 451 508 468 508 c 0,26,27
 483 508 483 508 496 496 c 128,-1,28
 509 484 509 484 511 444 c 0,29,30
 514 391 514 391 515.5 349 c 128,-1,31
 517 307 517 307 517 262 c 0,32,33
 517 207 517 207 516 161 c 128,-1,34
 515 115 515 115 511 63 c 0,35,36
 509 40 509 40 505.5 26.5 c 128,-1,37
 502 13 502 13 497 6.5 c 128,-1,38
 492 0 492 0 485 -2 c 128,-1,39
 478 -4 478 -4 471 -4 c 0,0,1
417 250 m 0,40,41
 417 302 417 302 401.5 335 c 128,-1,42
 386 368 386 368 362.5 386.5 c 128,-1,43
 339 405 339 405 312 412 c 128,-1,44
 285 419 285 419 262 419 c 0,45,46
 226 419 226 419 200.5 406 c 128,-1,47
 175 393 175 393 159 370.5 c 128,-1,48
 143 348 143 348 135.5 317.5 c 128,-1,49
 128 287 128 287 128 251 c 0,50,51
 128 163 128 163 166.5 121 c 128,-1,52
 205 79 205 79 271 79 c 0,53,54
 310 79 310 79 337.5 92.5 c 128,-1,55
 365 106 365 106 382.5 129 c 128,-1,56
 400 152 400 152 408.5 183.5 c 128,-1,57
 417 215 417 215 417 250 c 0,40,41
198 751 m 0,58,59
 221 751 221 751 240.5 733 c 128,-1,60
 260 715 260 715 260 690 c 0,61,62
 260 666 260 666 240 648.5 c 128,-1,63
 220 631 220 631 195 631 c 0,64,65
 174 631 174 631 155.5 648.5 c 128,-1,66
 137 666 137 666 137 692 c 0,67,68
 137 716 137 716 155.5 733.5 c 128,-1,69
 174 751 174 751 198 751 c 0,58,59
378 751 m 0,70,71
 401 751 401 751 420.5 733 c 128,-1,72
 440 715 440 715 440 690 c 0,73,74
 440 666 440 666 420 648.5 c 128,-1,75
 400 631 400 631 375 631 c 0,76,77
 354 631 354 631 335.5 648.5 c 128,-1,78
 317 666 317 666 317 692 c 0,79,80
 317 716 317 716 335.5 733.5 c 128,-1,81
 354 751 354 751 378 751 c 0,70,71
EndSplineSet
Validated: 1
EndChar

StartChar: agrave
Encoding: 224 224 69
Width: 573
Flags: W
LayerCount: 2
Fore
SplineSet
471 -4 m 0,0,1
 455 -4 455 -4 445.5 1.5 c 128,-1,2
 436 7 436 7 431 16 c 128,-1,3
 426 25 426 25 424 37.5 c 128,-1,4
 422 50 422 50 421 64 c 1,5,6
 396 33 396 33 356.5 12 c 128,-1,7
 317 -9 317 -9 256 -9 c 0,8,9
 217 -9 217 -9 176.5 2.5 c 128,-1,10
 136 14 136 14 103 42.5 c 128,-1,11
 70 71 70 71 49 119 c 128,-1,12
 28 167 28 167 28 240 c 0,13,14
 28 297 28 297 42 347 c 128,-1,15
 56 397 56 397 84.5 434.5 c 128,-1,16
 113 472 113 472 156 494 c 128,-1,17
 199 516 199 516 257 516 c 0,18,19
 308 516 308 516 348 497.5 c 128,-1,20
 388 479 388 479 420 437 c 1,21,22
 420 449 420 449 421 461.5 c 128,-1,23
 422 474 422 474 426.5 484.5 c 128,-1,24
 431 495 431 495 441 501.5 c 128,-1,25
 451 508 451 508 468 508 c 0,26,27
 483 508 483 508 496 496 c 128,-1,28
 509 484 509 484 511 444 c 0,29,30
 514 391 514 391 515.5 349 c 128,-1,31
 517 307 517 307 517 262 c 0,32,33
 517 207 517 207 516 161 c 128,-1,34
 515 115 515 115 511 63 c 0,35,36
 509 40 509 40 505.5 26.5 c 128,-1,37
 502 13 502 13 497 6.5 c 128,-1,38
 492 0 492 0 485 -2 c 128,-1,39
 478 -4 478 -4 471 -4 c 0,0,1
417 250 m 0,40,41
 417 302 417 302 401.5 335 c 128,-1,42
 386 368 386 368 362.5 386.5 c 128,-1,43
 339 405 339 405 312 412 c 128,-1,44
 285 419 285 419 262 419 c 0,45,46
 226 419 226 419 200.5 406 c 128,-1,47
 175 393 175 393 159 370.5 c 128,-1,48
 143 348 143 348 135.5 317.5 c 128,-1,49
 128 287 128 287 128 251 c 0,50,51
 128 163 128 163 166.5 121 c 128,-1,52
 205 79 205 79 271 79 c 0,53,54
 310 79 310 79 337.5 92.5 c 128,-1,55
 365 106 365 106 382.5 129 c 128,-1,56
 400 152 400 152 408.5 183.5 c 128,-1,57
 417 215 417 215 417 250 c 0,40,41
342 584 m 0,58,59
 327 584 327 584 304 591 c 128,-1,60
 281 598 281 598 255.5 609 c 128,-1,61
 230 620 230 620 204 634.5 c 128,-1,62
 178 649 178 649 157 664 c 128,-1,63
 136 679 136 679 123 693.5 c 128,-1,64
 110 708 110 708 110 720 c 0,65,66
 110 739 110 739 122 748 c 128,-1,67
 134 757 134 757 151 757 c 0,68,69
 170 757 170 757 206.5 741 c 128,-1,70
 243 725 243 725 279.5 702 c 128,-1,71
 316 679 316 679 343.5 654 c 128,-1,72
 371 629 371 629 373 610 c 0,73,74
 373 595 373 595 363 590.5 c 128,-1,75
 353 586 353 586 342 584 c 0,58,59
EndSplineSet
Validated: 1
EndChar

StartChar: ampersand
Encoding: 38 38 70
Width: 636
Flags: W
LayerCount: 2
Fore
SplineSet
190 425 m 1,0,1
 163 464 163 464 142.5 507.5 c 128,-1,2
 122 551 122 551 122 603 c 0,3,4
 122 641 122 641 135 669.5 c 128,-1,5
 148 698 148 698 171 717.5 c 128,-1,6
 194 737 194 737 225.5 747 c 128,-1,7
 257 757 257 757 293 757 c 0,8,9
 339 757 339 757 368.5 742.5 c 128,-1,10
 398 728 398 728 414.5 704.5 c 128,-1,11
 431 681 431 681 437.5 652 c 128,-1,12
 444 623 444 623 444 595 c 0,13,14
 444 560 444 560 435 534 c 128,-1,15
 426 508 426 508 410 487 c 128,-1,16
 394 466 394 466 370.5 447 c 128,-1,17
 347 428 347 428 319 408 c 1,18,-1
 460 173 l 1,19,-1
 510 232 l 2,20,21
 516 240 516 240 523.5 249.5 c 128,-1,22
 531 259 531 259 539.5 267.5 c 128,-1,23
 548 276 548 276 557.5 282 c 128,-1,24
 567 288 567 288 579 288 c 0,25,26
 594 288 594 288 606.5 277.5 c 128,-1,27
 619 267 619 267 619 249 c 0,28,29
 619 230 619 230 606 214.5 c 128,-1,30
 593 199 593 199 581 184 c 0,31,32
 572 173 572 173 550.5 147.5 c 128,-1,33
 529 122 529 122 506 96 c 1,34,-1
 551 25 l 2,35,36
 558 14 558 14 562.5 2 c 128,-1,37
 567 -10 567 -10 567 -21 c 0,38,39
 567 -39 567 -39 553.5 -51.5 c 128,-1,40
 540 -64 540 -64 526 -64 c 0,41,42
 515 -64 515 -64 503 -55 c 128,-1,43
 491 -46 491 -46 474 -21 c 2,44,-1
 439 30 l 1,45,46
 391 -11 391 -11 344.5 -32.5 c 128,-1,47
 298 -54 298 -54 243 -54 c 0,48,49
 206 -54 206 -54 167.5 -43 c 128,-1,50
 129 -32 129 -32 98 -6.5 c 128,-1,51
 67 19 67 19 47 59.5 c 128,-1,52
 27 100 27 100 27 160 c 0,53,54
 27 209 27 209 40.5 248 c 128,-1,55
 54 287 54 287 76.5 318.5 c 128,-1,56
 99 350 99 350 128.5 376 c 128,-1,57
 158 402 158 402 190 425 c 1,0,1
246 39 m 0,58,59
 290 39 290 39 323.5 57 c 128,-1,60
 357 75 357 75 391 103 c 1,61,62
 352 163 352 163 313 225 c 128,-1,63
 274 287 274 287 237 347 c 1,64,65
 187 306 187 306 153 262 c 128,-1,66
 119 218 119 218 119 159 c 0,67,68
 119 126 119 126 129.5 103.5 c 128,-1,69
 140 81 140 81 158 66.5 c 128,-1,70
 176 52 176 52 199 45.5 c 128,-1,71
 222 39 222 39 246 39 c 0,58,59
222 597 m 0,72,73
 222 574 222 574 234.5 548.5 c 128,-1,74
 247 523 247 523 274 481 c 1,75,76
 303 502 303 502 325.5 534 c 128,-1,77
 348 566 348 566 348 604 c 0,78,79
 348 638 348 638 329.5 656 c 128,-1,80
 311 674 311 674 287 674 c 0,81,82
 257 674 257 674 239.5 650 c 128,-1,83
 222 626 222 626 222 597 c 0,72,73
EndSplineSet
Validated: 1
EndChar

StartChar: aring
Encoding: 229 229 71
Width: 573
Flags: W
LayerCount: 2
Fore
SplineSet
471 -4 m 0,0,1
 455 -4 455 -4 445.5 1.5 c 128,-1,2
 436 7 436 7 431 16 c 128,-1,3
 426 25 426 25 424 37.5 c 128,-1,4
 422 50 422 50 421 64 c 1,5,6
 396 33 396 33 356.5 12 c 128,-1,7
 317 -9 317 -9 256 -9 c 0,8,9
 217 -9 217 -9 176.5 2.5 c 128,-1,10
 136 14 136 14 103 42.5 c 128,-1,11
 70 71 70 71 49 119 c 128,-1,12
 28 167 28 167 28 240 c 0,13,14
 28 297 28 297 42 347 c 128,-1,15
 56 397 56 397 84.5 434.5 c 128,-1,16
 113 472 113 472 156 494 c 128,-1,17
 199 516 199 516 257 516 c 0,18,19
 308 516 308 516 348 497.5 c 128,-1,20
 388 479 388 479 420 437 c 1,21,22
 420 449 420 449 421 461.5 c 128,-1,23
 422 474 422 474 426.5 484.5 c 128,-1,24
 431 495 431 495 441 501.5 c 128,-1,25
 451 508 451 508 468 508 c 0,26,27
 483 508 483 508 496 496 c 128,-1,28
 509 484 509 484 511 444 c 0,29,30
 514 391 514 391 515.5 349 c 128,-1,31
 517 307 517 307 517 262 c 0,32,33
 517 207 517 207 516 161 c 128,-1,34
 515 115 515 115 511 63 c 0,35,36
 509 40 509 40 505.5 26.5 c 128,-1,37
 502 13 502 13 497 6.5 c 128,-1,38
 492 0 492 0 485 -2 c 128,-1,39
 478 -4 478 -4 471 -4 c 0,0,1
417 250 m 0,40,41
 417 302 417 302 401.5 335 c 128,-1,42
 386 368 386 368 362.5 386.5 c 128,-1,43
 339 405 339 405 312 412 c 128,-1,44
 285 419 285 419 262 419 c 0,45,46
 226 419 226 419 200.5 406 c 128,-1,47
 175 393 175 393 159 370.5 c 128,-1,48
 143 348 143 348 135.5 317.5 c 128,-1,49
 128 287 128 287 128 251 c 0,50,51
 128 163 128 163 166.5 121 c 128,-1,52
 205 79 205 79 271 79 c 0,53,54
 310 79 310 79 337.5 92.5 c 128,-1,55
 365 106 365 106 382.5 129 c 128,-1,56
 400 152 400 152 408.5 183.5 c 128,-1,57
 417 215 417 215 417 250 c 0,40,41
386 660 m 256,58,59
 386 636 386 636 376.5 615 c 128,-1,60
 367 594 367 594 350.5 578.5 c 128,-1,61
 334 563 334 563 311.5 554 c 128,-1,62
 289 545 289 545 264 545 c 256,63,64
 239 545 239 545 217 554 c 128,-1,65
 195 563 195 563 178 578.5 c 128,-1,66
 161 594 161 594 151 615 c 128,-1,67
 141 636 141 636 141 660 c 0,68,69
 141 685 141 685 151.5 706 c 128,-1,70
 162 727 162 727 179 742.5 c 128,-1,71
 196 758 196 758 218.5 766.5 c 128,-1,72
 241 775 241 775 264 775 c 0,73,74
 288 775 288 775 310.5 766 c 128,-1,75
 333 757 333 757 349.5 741.5 c 128,-1,76
 366 726 366 726 376 705 c 128,-1,77
 386 684 386 684 386 660 c 256,58,59
198 659 m 0,78,79
 198 629 198 629 217.5 614 c 128,-1,80
 237 599 237 599 263 599 c 0,81,82
 293 599 293 599 310 616.5 c 128,-1,83
 327 634 327 634 327 661 c 0,84,85
 327 687 327 687 310.5 706 c 128,-1,86
 294 725 294 725 268 725 c 0,87,88
 234 725 234 725 216 706.5 c 128,-1,89
 198 688 198 688 198 659 c 0,78,79
EndSplineSet
Validated: 1
EndChar

StartChar: asciicircum
Encoding: 94 94 72
Width: 626
Flags: W
LayerCount: 2
Fore
SplineSet
315 751 m 256,0,1
 322 751 322 751 341 736 c 128,-1,2
 360 721 360 721 385 698 c 128,-1,3
 410 675 410 675 438.5 647 c 128,-1,4
 467 619 467 619 492.5 593 c 128,-1,5
 518 567 518 567 538 546 c 128,-1,6
 558 525 558 525 567 516 c 0,7,8
 578 504 578 504 584.5 492.5 c 128,-1,9
 591 481 591 481 591 468 c 0,10,11
 591 451 591 451 580.5 438 c 128,-1,12
 570 425 570 425 550 425 c 0,13,14
 545 425 545 425 530 437.5 c 128,-1,15
 515 450 515 450 495 470 c 128,-1,16
 475 490 475 490 451.5 514.5 c 128,-1,17
 428 539 428 539 406 562.5 c 128,-1,18
 384 586 384 586 365 605.5 c 128,-1,19
 346 625 346 625 335 636 c 2,20,-1
 315 655 l 1,21,-1
 295 636 l 2,22,23
 283 625 283 625 264.5 605.5 c 128,-1,24
 246 586 246 586 224.5 562.5 c 128,-1,25
 203 539 203 539 180 514.5 c 128,-1,26
 157 490 157 490 137 470 c 128,-1,27
 117 450 117 450 102.5 437.5 c 128,-1,28
 88 425 88 425 82 425 c 0,29,30
 64 425 64 425 52.5 436.5 c 128,-1,31
 41 448 41 448 41 465 c 256,32,33
 41 482 41 482 52 497 c 128,-1,34
 63 512 63 512 76 525 c 0,35,36
 88 538 88 538 109 560 c 128,-1,37
 130 582 130 582 154.5 607 c 128,-1,38
 179 632 179 632 204.5 657.5 c 128,-1,39
 230 683 230 683 252.5 704 c 128,-1,40
 275 725 275 725 291.5 738 c 128,-1,41
 308 751 308 751 315 751 c 256,0,1
EndSplineSet
Validated: 1
EndChar

StartChar: asciitilde
Encoding: 126 126 73
Width: 440
Flags: W
LayerCount: 2
Fore
SplineSet
158 223 m 0,0,1
 142 223 142 223 130 216 c 128,-1,2
 118 209 118 209 107.5 200 c 128,-1,3
 97 191 97 191 86.5 184 c 128,-1,4
 76 177 76 177 64 177 c 0,5,6
 51 177 51 177 42.5 187.5 c 128,-1,7
 34 198 34 198 34 215 c 0,8,9
 34 226 34 226 42.5 244 c 128,-1,10
 51 262 51 262 66.5 279.5 c 128,-1,11
 82 297 82 297 102.5 309.5 c 128,-1,12
 123 322 123 322 147 322 c 0,13,14
 176 322 176 322 194 314.5 c 128,-1,15
 212 307 212 307 226 297.5 c 128,-1,16
 240 288 240 288 253.5 280.5 c 128,-1,17
 267 273 267 273 287 273 c 0,18,19
 317 273 317 273 333 281 c 128,-1,20
 349 289 349 289 359 299 c 128,-1,21
 369 309 369 309 375.5 317 c 128,-1,22
 382 325 382 325 393 325 c 0,23,24
 407 325 407 325 419 317 c 128,-1,25
 431 309 431 309 431 294 c 0,26,27
 431 271 431 271 420.5 249.5 c 128,-1,28
 410 228 410 228 391 211 c 128,-1,29
 372 194 372 194 345 183.5 c 128,-1,30
 318 173 318 173 285 173 c 0,31,32
 264 173 264 173 247 181 c 128,-1,33
 230 189 230 189 215 198 c 128,-1,34
 200 207 200 207 186.5 215 c 128,-1,35
 173 223 173 223 158 223 c 0,0,1
EndSplineSet
Validated: 1
EndChar

StartChar: asterisk
Encoding: 42 42 74
Width: 469
Flags: W
LayerCount: 2
Fore
SplineSet
150 556 m 1,0,1
 93 585 93 585 66.5 605 c 128,-1,2
 40 625 40 625 40 645 c 0,3,4
 40 660 40 660 53 674 c 128,-1,5
 66 688 66 688 82 688 c 0,6,7
 103 688 103 688 133.5 668.5 c 128,-1,8
 164 649 164 649 193 624 c 1,9,10
 192 632 192 632 191.5 643 c 128,-1,11
 191 654 191 654 191 667 c 0,12,13
 191 684 191 684 193 702 c 128,-1,14
 195 720 195 720 201 735 c 128,-1,15
 207 750 207 750 217.5 760 c 128,-1,16
 228 770 228 770 245 770 c 0,17,18
 263 770 263 770 276 755.5 c 128,-1,19
 289 741 289 741 289 709 c 0,20,21
 289 689 289 689 282.5 665 c 128,-1,22
 276 641 276 641 268 608 c 1,23,24
 296 620 296 620 314.5 627 c 128,-1,25
 333 634 333 634 344.5 637.5 c 128,-1,26
 356 641 356 641 363 642 c 128,-1,27
 370 643 370 643 377 643 c 0,28,29
 401 643 401 643 415 629 c 128,-1,30
 429 615 429 615 429 598 c 0,31,32
 429 574 429 574 398.5 559.5 c 128,-1,33
 368 545 368 545 291 535 c 1,34,35
 307 508 307 508 317.5 489.5 c 128,-1,36
 328 471 328 471 333.5 458 c 128,-1,37
 339 445 339 445 341 436.5 c 128,-1,38
 343 428 343 428 343 421 c 0,39,40
 343 403 343 403 328 390 c 128,-1,41
 313 377 313 377 299 377 c 0,42,43
 250 377 250 377 215 508 c 1,44,45
 202 490 202 490 187.5 473.5 c 128,-1,46
 173 457 173 457 158.5 443.5 c 128,-1,47
 144 430 144 430 130.5 422 c 128,-1,48
 117 414 117 414 107 414 c 0,49,50
 89 414 89 414 77 427 c 128,-1,51
 65 440 65 440 65 455 c 0,52,53
 65 468 65 468 73 481.5 c 128,-1,54
 81 495 81 495 94 507.5 c 128,-1,55
 107 520 107 520 121.5 532 c 128,-1,56
 136 544 136 544 150 556 c 1,0,1
EndSplineSet
Validated: 1
EndChar

StartChar: atilde
Encoding: 227 227 75
Width: 573
Flags: W
LayerCount: 2
Fore
SplineSet
471 -4 m 0,0,1
 455 -4 455 -4 445.5 1.5 c 128,-1,2
 436 7 436 7 431 16 c 128,-1,3
 426 25 426 25 424 37.5 c 128,-1,4
 422 50 422 50 421 64 c 1,5,6
 396 33 396 33 356.5 12 c 128,-1,7
 317 -9 317 -9 256 -9 c 0,8,9
 217 -9 217 -9 176.5 2.5 c 128,-1,10
 136 14 136 14 103 42.5 c 128,-1,11
 70 71 70 71 49 119 c 128,-1,12
 28 167 28 167 28 240 c 0,13,14
 28 297 28 297 42 347 c 128,-1,15
 56 397 56 397 84.5 434.5 c 128,-1,16
 113 472 113 472 156 494 c 128,-1,17
 199 516 199 516 257 516 c 0,18,19
 308 516 308 516 348 497.5 c 128,-1,20
 388 479 388 479 420 437 c 1,21,22
 420 449 420 449 421 461.5 c 128,-1,23
 422 474 422 474 426.5 484.5 c 128,-1,24
 431 495 431 495 441 501.5 c 128,-1,25
 451 508 451 508 468 508 c 0,26,27
 483 508 483 508 496 496 c 128,-1,28
 509 484 509 484 511 444 c 0,29,30
 514 391 514 391 515.5 349 c 128,-1,31
 517 307 517 307 517 262 c 0,32,33
 517 207 517 207 516 161 c 128,-1,34
 515 115 515 115 511 63 c 0,35,36
 509 40 509 40 505.5 26.5 c 128,-1,37
 502 13 502 13 497 6.5 c 128,-1,38
 492 0 492 0 485 -2 c 128,-1,39
 478 -4 478 -4 471 -4 c 0,0,1
417 250 m 0,40,41
 417 302 417 302 401.5 335 c 128,-1,42
 386 368 386 368 362.5 386.5 c 128,-1,43
 339 405 339 405 312 412 c 128,-1,44
 285 419 285 419 262 419 c 0,45,46
 226 419 226 419 200.5 406 c 128,-1,47
 175 393 175 393 159 370.5 c 128,-1,48
 143 348 143 348 135.5 317.5 c 128,-1,49
 128 287 128 287 128 251 c 0,50,51
 128 163 128 163 166.5 121 c 128,-1,52
 205 79 205 79 271 79 c 0,53,54
 310 79 310 79 337.5 92.5 c 128,-1,55
 365 106 365 106 382.5 129 c 128,-1,56
 400 152 400 152 408.5 183.5 c 128,-1,57
 417 215 417 215 417 250 c 0,40,41
213 661 m 0,58,59
 197 661 197 661 185 654 c 128,-1,60
 173 647 173 647 162.5 638 c 128,-1,61
 152 629 152 629 141.5 622 c 128,-1,62
 131 615 131 615 119 615 c 0,63,64
 106 615 106 615 97.5 625.5 c 128,-1,65
 89 636 89 636 89 653 c 256,66,67
 89 670 89 670 96 689 c 128,-1,68
 103 708 103 708 117.5 723.5 c 128,-1,69
 132 739 132 739 153 749.5 c 128,-1,70
 174 760 174 760 202 760 c 0,71,72
 231 760 231 760 251 752.5 c 128,-1,73
 271 745 271 745 286.5 735.5 c 128,-1,74
 302 726 302 726 317 718.5 c 128,-1,75
 332 711 332 711 352 711 c 0,76,77
 382 711 382 711 396.5 718 c 128,-1,78
 411 725 411 725 418.5 734 c 128,-1,79
 426 743 426 743 431 750 c 128,-1,80
 436 757 436 757 447 757 c 0,81,82
 461 757 461 757 473 749 c 128,-1,83
 485 741 485 741 485 726 c 0,84,85
 485 703 485 703 476.5 682.5 c 128,-1,86
 468 662 468 662 451 646 c 128,-1,87
 434 630 434 630 408.5 620.5 c 128,-1,88
 383 611 383 611 350 611 c 0,89,90
 329 611 329 611 312 619 c 128,-1,91
 295 627 295 627 279 636 c 128,-1,92
 263 645 263 645 247 653 c 128,-1,93
 231 661 231 661 213 661 c 0,58,59
EndSplineSet
Validated: 1
EndChar

StartChar: b
Encoding: 98 98 76
Width: 591
Flags: W
LayerCount: 2
Fore
SplineSet
171 654 m 0,0,1
 171 594 171 594 167.5 528.5 c 128,-1,2
 164 463 164 463 159 401 c 1,3,4
 172 428 172 428 193 447.5 c 128,-1,5
 214 467 214 467 239.5 479 c 128,-1,6
 265 491 265 491 293 497 c 128,-1,7
 321 503 321 503 347 503 c 0,8,9
 392 503 392 503 431.5 486.5 c 128,-1,10
 471 470 471 470 500.5 438.5 c 128,-1,11
 530 407 530 407 546.5 360.5 c 128,-1,12
 563 314 563 314 563 254 c 0,13,14
 563 196 563 196 546 148 c 128,-1,15
 529 100 529 100 495.5 65.5 c 128,-1,16
 462 31 462 31 412.5 12 c 128,-1,17
 363 -7 363 -7 299 -7 c 0,18,19
 212 -7 212 -7 162.5 28 c 128,-1,20
 113 63 113 63 89 121.5 c 128,-1,21
 65 180 65 180 59.5 256 c 128,-1,22
 54 332 54 332 54 415 c 0,23,24
 54 499 54 499 57 567 c 128,-1,25
 60 635 60 635 66 677 c 0,26,27
 72 715 72 715 86 731 c 128,-1,28
 100 747 100 747 123 747 c 0,29,30
 140 747 140 747 150 739.5 c 128,-1,31
 160 732 160 732 164.5 719 c 128,-1,32
 169 706 169 706 170 689.5 c 128,-1,33
 171 673 171 673 171 654 c 0,0,1
319 404 m 0,34,35
 290 404 290 404 263.5 394.5 c 128,-1,36
 237 385 237 385 216.5 365 c 128,-1,37
 196 345 196 345 184 314.5 c 128,-1,38
 172 284 172 284 172 241 c 0,39,40
 172 165 172 165 209.5 125.5 c 128,-1,41
 247 86 247 86 310 86 c 0,42,43
 336 86 336 86 363 93.5 c 128,-1,44
 390 101 390 101 412 119.5 c 128,-1,45
 434 138 434 138 448 169 c 128,-1,46
 462 200 462 200 462 246 c 0,47,48
 462 287 462 287 450.5 317 c 128,-1,49
 439 347 439 347 419 366.5 c 128,-1,50
 399 386 399 386 373 395 c 128,-1,51
 347 404 347 404 319 404 c 0,34,35
EndSplineSet
Validated: 1
EndChar

StartChar: backslash
Encoding: 92 92 77
Width: 441
Flags: W
LayerCount: 2
Fore
SplineSet
372 61 m 0,0,1
 378 37 378 37 378 23 c 0,2,3
 378 0 378 0 364 -10 c 128,-1,4
 350 -20 350 -20 332 -20 c 0,5,6
 321 -20 321 -20 310 -9 c 128,-1,7
 299 2 299 2 287 34 c 0,8,9
 225 202 225 202 170 371.5 c 128,-1,10
 115 541 115 541 68 707 c 0,11,12
 65 718 65 718 64 726 c 128,-1,13
 63 734 63 734 63 741 c 0,14,15
 63 762 63 762 75.5 772 c 128,-1,16
 88 782 88 782 103 782 c 256,17,18
 118 782 118 782 130.5 767.5 c 128,-1,19
 143 753 143 753 156.5 724 c 128,-1,20
 170 695 170 695 185.5 649.5 c 128,-1,21
 201 604 201 604 221 543 c 0,22,23
 244 471 244 471 266.5 402 c 128,-1,24
 289 333 289 333 308.5 270.5 c 128,-1,25
 328 208 328 208 344 154.5 c 128,-1,26
 360 101 360 101 372 61 c 0,0,1
EndSplineSet
Validated: 1
EndChar

StartChar: bar
Encoding: 124 124 78
Width: 220
Flags: W
LayerCount: 2
Fore
SplineSet
65 3 m 0,0,1
 64 45 64 45 63 101 c 128,-1,2
 62 157 62 157 61.5 222.5 c 128,-1,3
 61 288 61 288 60.5 360.5 c 128,-1,4
 60 433 60 433 60 508 c 0,5,6
 60 579 60 579 61 629.5 c 128,-1,7
 62 680 62 680 66.5 712 c 128,-1,8
 71 744 71 744 81 759 c 128,-1,9
 91 774 91 774 109 774 c 0,10,11
 126 774 126 774 139 763 c 128,-1,12
 152 752 152 752 154 712 c 0,13,14
 158 636 158 636 159 556.5 c 128,-1,15
 160 477 160 477 160 397 c 0,16,17
 160 296 160 296 159 201 c 128,-1,18
 158 106 158 106 154 4 c 0,19,20
 153 -20 153 -20 149.5 -33 c 128,-1,21
 146 -46 146 -46 140 -53 c 128,-1,22
 134 -60 134 -60 126.5 -61.5 c 128,-1,23
 119 -63 119 -63 109 -63 c 0,24,25
 91 -63 91 -63 79 -50.5 c 128,-1,26
 67 -38 67 -38 65 3 c 0,0,1
EndSplineSet
Validated: 1
EndChar

StartChar: braceleft
Encoding: 123 123 79
Width: 333
Flags: W
LayerCount: 2
Fore
SplineSet
249 458 m 0,0,1
 249 434 249 434 243.5 402.5 c 128,-1,2
 238 371 238 371 222 345 c 1,3,4
 238 318 238 318 243.5 285.5 c 128,-1,5
 249 253 249 253 249 230 c 256,6,7
 249 207 249 207 245 186.5 c 128,-1,8
 241 166 241 166 236 145 c 128,-1,9
 231 124 231 124 227 101 c 128,-1,10
 223 78 223 78 223 51 c 0,11,12
 223 39 223 39 226.5 29.5 c 128,-1,13
 230 20 230 20 238 15 c 1,14,15
 245 24 245 24 254.5 28.5 c 128,-1,16
 264 33 264 33 274 33 c 0,17,18
 291 33 291 33 307 19 c 128,-1,19
 323 5 323 5 323 -24 c 0,20,21
 323 -58 323 -58 297.5 -74 c 128,-1,22
 272 -90 272 -90 241 -90 c 0,23,24
 209 -90 209 -90 187 -76.5 c 128,-1,25
 165 -63 165 -63 151.5 -42.5 c 128,-1,26
 138 -22 138 -22 132 2.5 c 128,-1,27
 126 27 126 27 126 49 c 0,28,29
 126 91 126 91 136 133 c 128,-1,30
 146 175 146 175 152 213 c 0,31,32
 153 217 153 217 153 225 c 0,33,34
 153 229 153 229 152.5 237.5 c 128,-1,35
 152 246 152 246 150.5 255.5 c 128,-1,36
 149 265 149 265 147.5 273.5 c 128,-1,37
 146 282 146 282 143 285 c 1,38,39
 126 274 126 274 108 274 c 0,40,41
 73 274 73 274 56.5 296.5 c 128,-1,42
 40 319 40 319 40 345 c 256,43,44
 40 371 40 371 56 393 c 128,-1,45
 72 415 72 415 104 415 c 0,46,47
 121 415 121 415 143 405 c 0,48,49
 146 408 146 408 147.5 416 c 128,-1,50
 149 424 149 424 150.5 433 c 128,-1,51
 152 442 152 442 152.5 450.5 c 128,-1,52
 153 459 153 459 153 463 c 0,53,54
 153 471 153 471 152 475 c 0,55,56
 146 513 146 513 136 555 c 128,-1,57
 126 597 126 597 126 639 c 0,58,59
 126 661 126 661 132 685.5 c 128,-1,60
 138 710 138 710 151.5 730.5 c 128,-1,61
 165 751 165 751 187 764.5 c 128,-1,62
 209 778 209 778 241 778 c 0,63,64
 272 778 272 778 297.5 762 c 128,-1,65
 323 746 323 746 323 712 c 0,66,67
 323 683 323 683 307 669 c 128,-1,68
 291 655 291 655 274 655 c 0,69,70
 264 655 264 655 254.5 659.5 c 128,-1,71
 245 664 245 664 238 673 c 1,72,73
 230 668 230 668 226.5 658.5 c 128,-1,74
 223 649 223 649 223 637 c 0,75,76
 223 610 223 610 227 587 c 128,-1,77
 231 564 231 564 236 543 c 128,-1,78
 241 522 241 522 245 501.5 c 128,-1,79
 249 481 249 481 249 458 c 0,0,1
EndSplineSet
Validated: 1
EndChar

StartChar: braceright
Encoding: 125 125 80
Width: 333
Flags: W
LayerCount: 2
Fore
SplineSet
84 458 m 0,0,1
 84 481 84 481 88 501.5 c 128,-1,2
 92 522 92 522 97 543 c 128,-1,3
 102 564 102 564 106 587 c 128,-1,4
 110 610 110 610 110 637 c 0,5,6
 110 649 110 649 106.5 658.5 c 128,-1,7
 103 668 103 668 95 673 c 1,8,9
 81 655 81 655 59 655 c 0,10,11
 42 655 42 655 26 669 c 128,-1,12
 10 683 10 683 10 712 c 0,13,14
 10 746 10 746 35.5 762 c 128,-1,15
 61 778 61 778 92 778 c 0,16,17
 124 778 124 778 146 764.5 c 128,-1,18
 168 751 168 751 181.5 730.5 c 128,-1,19
 195 710 195 710 201 685.5 c 128,-1,20
 207 661 207 661 207 639 c 0,21,22
 207 597 207 597 197 555 c 128,-1,23
 187 513 187 513 181 475 c 0,24,25
 180 471 180 471 180 463 c 0,26,27
 180 459 180 459 180.5 450.5 c 128,-1,28
 181 442 181 442 182.5 433 c 128,-1,29
 184 424 184 424 185.5 416 c 128,-1,30
 187 408 187 408 190 405 c 0,31,32
 212 415 212 415 229 415 c 0,33,34
 261 415 261 415 277 393 c 128,-1,35
 293 371 293 371 293 345 c 256,36,37
 293 319 293 319 276.5 296.5 c 128,-1,38
 260 274 260 274 225 274 c 0,39,40
 207 274 207 274 190 285 c 1,41,42
 187 282 187 282 185.5 273.5 c 128,-1,43
 184 265 184 265 182.5 255.5 c 128,-1,44
 181 246 181 246 180.5 237.5 c 128,-1,45
 180 229 180 229 180 225 c 0,46,47
 180 217 180 217 181 213 c 0,48,49
 187 175 187 175 197 133 c 128,-1,50
 207 91 207 91 207 49 c 0,51,52
 207 27 207 27 201 2.5 c 128,-1,53
 195 -22 195 -22 181.5 -42.5 c 128,-1,54
 168 -63 168 -63 146 -76.5 c 128,-1,55
 124 -90 124 -90 92 -90 c 0,56,57
 61 -90 61 -90 35.5 -74 c 128,-1,58
 10 -58 10 -58 10 -24 c 0,59,60
 10 5 10 5 26 19 c 128,-1,61
 42 33 42 33 59 33 c 0,62,63
 81 33 81 33 95 15 c 1,64,65
 103 20 103 20 106.5 29.5 c 128,-1,66
 110 39 110 39 110 51 c 0,67,68
 110 78 110 78 106 101 c 128,-1,69
 102 124 102 124 97 145 c 128,-1,70
 92 166 92 166 88 186.5 c 128,-1,71
 84 207 84 207 84 230 c 256,72,73
 84 253 84 253 89.5 285.5 c 128,-1,74
 95 318 95 318 111 345 c 1,75,76
 95 371 95 371 89.5 402.5 c 128,-1,77
 84 434 84 434 84 458 c 0,0,1
EndSplineSet
Validated: 1
EndChar

StartChar: bracketleft
Encoding: 91 91 81
Width: 409
Flags: W
LayerCount: 2
Fore
SplineSet
145 771 m 1,0,1
 146 720 146 720 147.5 663.5 c 128,-1,2
 149 607 149 607 150 550 c 128,-1,3
 151 493 151 493 151.5 436.5 c 128,-1,4
 152 380 152 380 152 328 c 0,5,6
 152 234 152 234 150.5 141 c 128,-1,7
 149 48 149 48 145 -48 c 1,8,9
 182 -48 182 -48 210.5 -48.5 c 128,-1,10
 239 -49 239 -49 261 -49.5 c 128,-1,11
 283 -50 283 -50 300.5 -51 c 128,-1,12
 318 -52 318 -52 333 -53 c 0,13,14
 374 -55 374 -55 386.5 -67 c 128,-1,15
 399 -79 399 -79 399 -97 c 0,16,17
 399 -107 399 -107 397.5 -114.5 c 128,-1,18
 396 -122 396 -122 389 -128 c 128,-1,19
 382 -134 382 -134 369 -138 c 128,-1,20
 356 -142 356 -142 332 -144 c 0,21,22
 303 -146 303 -146 278 -147 c 128,-1,23
 253 -148 253 -148 224 -148 c 0,24,25
 159 -148 159 -148 123.5 -135 c 128,-1,26
 88 -122 88 -122 71.5 -90.5 c 128,-1,27
 55 -59 55 -59 52.5 -6.5 c 128,-1,28
 50 46 50 46 50 125 c 2,29,-1
 50 598 l 2,30,31
 50 677 50 677 52.5 729.5 c 128,-1,32
 55 782 55 782 71.5 813.5 c 128,-1,33
 88 845 88 845 123.5 858 c 128,-1,34
 159 871 159 871 224 871 c 0,35,36
 253 871 253 871 278 870 c 128,-1,37
 303 869 303 869 332 867 c 0,38,39
 356 865 356 865 369 861 c 128,-1,40
 382 857 382 857 389 851 c 128,-1,41
 396 845 396 845 397.5 837.5 c 128,-1,42
 399 830 399 830 399 820 c 0,43,44
 399 802 399 802 386.5 790 c 128,-1,45
 374 778 374 778 333 776 c 0,46,47
 318 775 318 775 300.5 774 c 128,-1,48
 283 773 283 773 261 772.5 c 128,-1,49
 239 772 239 772 210.5 771.5 c 128,-1,50
 182 771 182 771 145 771 c 1,0,1
EndSplineSet
Validated: 1
EndChar

StartChar: bracketright
Encoding: 93 93 82
Width: 409
Flags: W
LayerCount: 2
Fore
SplineSet
264 771 m 1,0,1
 227 771 227 771 198.5 771.5 c 128,-1,2
 170 772 170 772 148 772.5 c 128,-1,3
 126 773 126 773 108.5 774 c 128,-1,4
 91 775 91 775 76 776 c 0,5,6
 35 778 35 778 22.5 790 c 128,-1,7
 10 802 10 802 10 820 c 0,8,9
 10 830 10 830 11.5 837.5 c 128,-1,10
 13 845 13 845 20 851 c 128,-1,11
 27 857 27 857 40 861 c 128,-1,12
 53 865 53 865 77 867 c 0,13,14
 106 869 106 869 131 870 c 128,-1,15
 156 871 156 871 185 871 c 0,16,17
 250 871 250 871 285.5 858 c 128,-1,18
 321 845 321 845 337.5 813.5 c 128,-1,19
 354 782 354 782 356.5 729.5 c 128,-1,20
 359 677 359 677 359 598 c 2,21,-1
 359 125 l 2,22,23
 359 46 359 46 356.5 -6.5 c 128,-1,24
 354 -59 354 -59 337.5 -90.5 c 128,-1,25
 321 -122 321 -122 285.5 -135 c 128,-1,26
 250 -148 250 -148 185 -148 c 0,27,28
 156 -148 156 -148 131 -147 c 128,-1,29
 106 -146 106 -146 77 -144 c 0,30,31
 53 -142 53 -142 40 -138 c 128,-1,32
 27 -134 27 -134 20 -128 c 128,-1,33
 13 -122 13 -122 11.5 -114.5 c 128,-1,34
 10 -107 10 -107 10 -97 c 0,35,36
 10 -79 10 -79 22.5 -67 c 128,-1,37
 35 -55 35 -55 76 -53 c 0,38,39
 91 -52 91 -52 108.5 -51 c 128,-1,40
 126 -50 126 -50 148 -49.5 c 128,-1,41
 170 -49 170 -49 198.5 -48.5 c 128,-1,42
 227 -48 227 -48 264 -48 c 1,43,44
 260 48 260 48 258.5 141 c 128,-1,45
 257 234 257 234 257 328 c 0,46,47
 257 380 257 380 257.5 436.5 c 128,-1,48
 258 493 258 493 259 550 c 128,-1,49
 260 607 260 607 261 663.5 c 128,-1,50
 262 720 262 720 264 771 c 1,0,1
EndSplineSet
Validated: 1
EndChar

StartChar: bullet
Encoding: 8226 8226 83
Width: 259
Flags: W
LayerCount: 2
Fore
SplineSet
209 357 m 0,0,1
 209 317 209 317 187.5 292.5 c 128,-1,2
 166 268 166 268 130 268 c 0,3,4
 99 268 99 268 74.5 289.5 c 128,-1,5
 50 311 50 311 50 354 c 0,6,7
 50 374 50 374 57 389.5 c 128,-1,8
 64 405 64 405 75 415.5 c 128,-1,9
 86 426 86 426 100 431 c 128,-1,10
 114 436 114 436 129 436 c 0,11,12
 156 436 156 436 180.5 416.5 c 128,-1,13
 205 397 205 397 209 357 c 0,0,1
EndSplineSet
Validated: 1
EndChar

StartChar: c
Encoding: 99 99 84
Width: 497
Flags: W
LayerCount: 2
Fore
SplineSet
289 510 m 0,0,1
 318 510 318 510 347.5 505 c 128,-1,2
 377 500 377 500 401 491 c 128,-1,3
 425 482 425 482 440 469 c 128,-1,4
 455 456 455 456 455 439 c 0,5,6
 455 395 455 395 405 395 c 0,7,8
 393 395 393 395 382.5 398.5 c 128,-1,9
 372 402 372 402 358 405.5 c 128,-1,10
 344 409 344 409 323 412.5 c 128,-1,11
 302 416 302 416 271 416 c 0,12,13
 205 416 205 416 169 371 c 128,-1,14
 133 326 133 326 133 254 c 0,15,16
 133 175 133 175 169.5 127 c 128,-1,17
 206 79 206 79 273 79 c 0,18,19
 315 79 315 79 341 86 c 128,-1,20
 367 93 367 93 383.5 102 c 128,-1,21
 400 111 400 111 410.5 118 c 128,-1,22
 421 125 421 125 434 125 c 0,23,24
 452 125 452 125 462.5 117.5 c 128,-1,25
 473 110 473 110 473 87 c 0,26,27
 473 63 473 63 454.5 45 c 128,-1,28
 436 27 436 27 408 15 c 128,-1,29
 380 3 380 3 347.5 -3 c 128,-1,30
 315 -9 315 -9 288 -9 c 0,31,32
 167 -9 167 -9 98 58 c 128,-1,33
 29 125 29 125 29 248 c 0,34,35
 29 301 29 301 45.5 348.5 c 128,-1,36
 62 396 62 396 95 432 c 128,-1,37
 128 468 128 468 176.5 489 c 128,-1,38
 225 510 225 510 289 510 c 0,0,1
EndSplineSet
Validated: 1
EndChar

StartChar: caron
Encoding: 711 711 85
Width: 349
Flags: W
LayerCount: 2
Fore
SplineSet
169 534 m 0,0,1
 158 534 158 534 141 542.5 c 128,-1,2
 124 551 124 551 105 563.5 c 128,-1,3
 86 576 86 576 67.5 591 c 128,-1,4
 49 606 49 606 36 620 c 0,5,6
 21 636 21 636 15.5 648.5 c 128,-1,7
 10 661 10 661 10 670 c 0,8,9
 10 687 10 687 21.5 698.5 c 128,-1,10
 33 710 33 710 51 710 c 0,11,12
 68 710 68 710 90.5 695.5 c 128,-1,13
 113 681 113 681 148 649 c 2,14,-1
 169 630 l 1,15,-1
 190 649 l 2,16,17
 225 681 225 681 246.5 696 c 128,-1,18
 268 711 268 711 285 711 c 0,19,20
 305 711 305 711 315.5 698 c 128,-1,21
 326 685 326 685 326 668 c 0,22,23
 326 655 326 655 319.5 643.5 c 128,-1,24
 313 632 313 632 302 620 c 0,25,26
 289 606 289 606 270.5 591 c 128,-1,27
 252 576 252 576 233 563.5 c 128,-1,28
 214 551 214 551 196.5 542.5 c 128,-1,29
 179 534 179 534 169 534 c 0,0,1
EndSplineSet
Validated: 1
EndChar

StartChar: ccedilla
Encoding: 231 231 86
Width: 497
Flags: W
LayerCount: 2
Fore
SplineSet
289 510 m 0,0,1
 318 510 318 510 347.5 505 c 128,-1,2
 377 500 377 500 401 491 c 128,-1,3
 425 482 425 482 440 469 c 128,-1,4
 455 456 455 456 455 439 c 0,5,6
 455 395 455 395 405 395 c 0,7,8
 393 395 393 395 382.5 398.5 c 128,-1,9
 372 402 372 402 358 405.5 c 128,-1,10
 344 409 344 409 323 412.5 c 128,-1,11
 302 416 302 416 271 416 c 0,12,13
 205 416 205 416 169 371 c 128,-1,14
 133 326 133 326 133 254 c 0,15,16
 133 175 133 175 169.5 127 c 128,-1,17
 206 79 206 79 273 79 c 0,18,19
 315 79 315 79 341 86 c 128,-1,20
 367 93 367 93 383.5 102 c 128,-1,21
 400 111 400 111 410.5 118 c 128,-1,22
 421 125 421 125 434 125 c 0,23,24
 452 125 452 125 462.5 117.5 c 128,-1,25
 473 110 473 110 473 87 c 256,26,27
 473 64 473 64 456.5 47 c 128,-1,28
 440 30 440 30 415 18.5 c 128,-1,29
 390 7 390 7 360 0 c 128,-1,30
 330 -7 330 -7 303 -8 c 1,31,-1
 303 -15 l 2,32,33
 303 -36 303 -36 310.5 -42.5 c 128,-1,34
 318 -49 318 -49 342 -58 c 0,35,36
 371 -69 371 -69 386 -87.5 c 128,-1,37
 401 -106 401 -106 401 -141 c 0,38,39
 401 -155 401 -155 397.5 -172.5 c 128,-1,40
 394 -190 394 -190 381 -205 c 128,-1,41
 368 -220 368 -220 344 -230.5 c 128,-1,42
 320 -241 320 -241 280 -241 c 0,43,44
 251 -241 251 -241 229.5 -233 c 128,-1,45
 208 -225 208 -225 208 -201 c 0,46,47
 208 -181 208 -181 221.5 -173.5 c 128,-1,48
 235 -166 235 -166 250 -166 c 0,49,50
 259 -166 259 -166 273.5 -167.5 c 128,-1,51
 288 -169 288 -169 297 -169 c 0,52,53
 309 -169 309 -169 318.5 -164 c 128,-1,54
 328 -159 328 -159 328 -145 c 0,55,56
 328 -127 328 -127 312 -119.5 c 128,-1,57
 296 -112 296 -112 277.5 -103.5 c 128,-1,58
 259 -95 259 -95 243 -81 c 128,-1,59
 227 -67 227 -67 227 -37 c 0,60,61
 227 -34 227 -34 227.5 -27.5 c 128,-1,62
 228 -21 228 -21 230 -4 c 1,63,64
 134 11 134 11 81.5 75.5 c 128,-1,65
 29 140 29 140 29 248 c 0,66,67
 29 301 29 301 45.5 348.5 c 128,-1,68
 62 396 62 396 95 432 c 128,-1,69
 128 468 128 468 176.5 489 c 128,-1,70
 225 510 225 510 289 510 c 0,0,1
EndSplineSet
Validated: 1
EndChar

StartChar: cedilla
Encoding: 184 184 87
Width: 259
Flags: W
LayerCount: 2
Fore
SplineSet
135 17 m 1,0,1
 131 -3 131 -3 130.5 -11 c 128,-1,2
 130 -19 130 -19 130 -23 c 0,3,4
 130 -38 130 -38 139.5 -44 c 128,-1,5
 149 -50 149 -50 169 -58 c 0,6,7
 198 -69 198 -69 213 -87.5 c 128,-1,8
 228 -106 228 -106 228 -141 c 0,9,10
 228 -155 228 -155 224.5 -172.5 c 128,-1,11
 221 -190 221 -190 208 -205 c 128,-1,12
 195 -220 195 -220 171 -230.5 c 128,-1,13
 147 -241 147 -241 107 -241 c 0,14,15
 78 -241 78 -241 56.5 -233 c 128,-1,16
 35 -225 35 -225 35 -201 c 0,17,18
 35 -181 35 -181 48.5 -173.5 c 128,-1,19
 62 -166 62 -166 77 -166 c 0,20,21
 86 -166 86 -166 100.5 -167.5 c 128,-1,22
 115 -169 115 -169 124 -169 c 0,23,24
 136 -169 136 -169 145.5 -164 c 128,-1,25
 155 -159 155 -159 155 -145 c 0,26,27
 155 -127 155 -127 139 -119.5 c 128,-1,28
 123 -112 123 -112 104.5 -103.5 c 128,-1,29
 86 -95 86 -95 70 -81 c 128,-1,30
 54 -67 54 -67 54 -37 c 0,31,32
 54 -35 54 -35 54 -31.5 c 128,-1,33
 54 -28 54 -28 55 -20.5 c 128,-1,34
 56 -13 56 -13 58 0 c 128,-1,35
 60 13 60 13 63 35 c 1,36,-1
 135 17 l 1,0,1
EndSplineSet
Validated: 1
EndChar

StartChar: cent
Encoding: 162 162 88
Width: 497
Flags: W
LayerCount: 2
Fore
SplineSet
322 638 m 1,0,1
 347 636 347 636 371 630 c 128,-1,2
 395 624 395 624 413.5 615.5 c 128,-1,3
 432 607 432 607 443.5 595 c 128,-1,4
 455 583 455 583 455 569 c 0,5,6
 455 525 455 525 405 525 c 0,7,8
 393 525 393 525 382.5 528.5 c 128,-1,9
 372 532 372 532 358 535.5 c 128,-1,10
 344 539 344 539 323 542.5 c 128,-1,11
 302 546 302 546 271 546 c 0,12,13
 205 546 205 546 169 501 c 128,-1,14
 133 456 133 456 133 384 c 0,15,16
 133 305 133 305 169.5 257 c 128,-1,17
 206 209 206 209 273 209 c 0,18,19
 315 209 315 209 341 216 c 128,-1,20
 367 223 367 223 383.5 232 c 128,-1,21
 400 241 400 241 410.5 248 c 128,-1,22
 421 255 421 255 434 255 c 0,23,24
 452 255 452 255 462.5 247.5 c 128,-1,25
 473 240 473 240 473 217 c 0,26,27
 473 196 473 196 459 180 c 128,-1,28
 445 164 445 164 423 152.5 c 128,-1,29
 401 141 401 141 374 133.5 c 128,-1,30
 347 126 347 126 321 123 c 1,31,32
 321 79 321 79 318.5 54.5 c 128,-1,33
 316 30 316 30 310 18 c 128,-1,34
 304 6 304 6 295 3 c 128,-1,35
 286 0 286 0 274 0 c 0,36,37
 265 0 265 0 256.5 2.5 c 128,-1,38
 248 5 248 5 242 12.5 c 128,-1,39
 236 20 236 20 232 33 c 128,-1,40
 228 46 228 46 228 66 c 2,41,-1
 228 126 l 1,42,43
 134 142 134 142 81.5 206.5 c 128,-1,44
 29 271 29 271 29 378 c 0,45,46
 29 424 29 424 41.5 466 c 128,-1,47
 54 508 54 508 78.5 542 c 128,-1,48
 103 576 103 576 140 600 c 128,-1,49
 177 624 177 624 226 634 c 1,50,51
 228 695 228 695 239.5 722.5 c 128,-1,52
 251 750 251 750 276 750 c 0,53,54
 285 750 285 750 293 748 c 128,-1,55
 301 746 301 746 307.5 739.5 c 128,-1,56
 314 733 314 733 318 720.5 c 128,-1,57
 322 708 322 708 322 688 c 2,58,-1
 322 638 l 1,0,1
EndSplineSet
Validated: 1
EndChar

StartChar: circumflex
Encoding: 710 710 89
Width: 372
Flags: W
LayerCount: 2
Fore
SplineSet
196 745 m 0,0,1
 206 745 206 745 223.5 736.5 c 128,-1,2
 241 728 241 728 260 715.5 c 128,-1,3
 279 703 279 703 297.5 687.5 c 128,-1,4
 316 672 316 672 329 659 c 0,5,6
 340 647 340 647 346.5 635.5 c 128,-1,7
 353 624 353 624 353 611 c 0,8,9
 353 594 353 594 342.5 581 c 128,-1,10
 332 568 332 568 312 568 c 0,11,12
 295 568 295 568 273.5 583 c 128,-1,13
 252 598 252 598 217 630 c 2,14,-1
 196 649 l 1,15,-1
 175 630 l 2,16,17
 140 598 140 598 117.5 583.5 c 128,-1,18
 95 569 95 569 78 569 c 0,19,20
 60 569 60 569 48.5 580.5 c 128,-1,21
 37 592 37 592 37 609 c 0,22,23
 37 618 37 618 42.5 630.5 c 128,-1,24
 48 643 48 643 63 659 c 0,25,26
 76 672 76 672 94.5 687.5 c 128,-1,27
 113 703 113 703 132 715.5 c 128,-1,28
 151 728 151 728 168 736.5 c 128,-1,29
 185 745 185 745 196 745 c 0,0,1
EndSplineSet
Validated: 1
EndChar

StartChar: colon
Encoding: 58 58 90
Width: 163
Flags: W
LayerCount: 2
Fore
SplineSet
81 110 m 0,0,1
 104 110 104 110 123.5 92 c 128,-1,2
 143 74 143 74 143 49 c 0,3,4
 143 25 143 25 123 7.5 c 128,-1,5
 103 -10 103 -10 78 -10 c 0,6,7
 57 -10 57 -10 38.5 7.5 c 128,-1,8
 20 25 20 25 20 51 c 0,9,10
 20 75 20 75 38.5 92.5 c 128,-1,11
 57 110 57 110 81 110 c 0,0,1
81 460 m 0,12,13
 104 460 104 460 123.5 442 c 128,-1,14
 143 424 143 424 143 399 c 0,15,16
 143 375 143 375 123 357.5 c 128,-1,17
 103 340 103 340 78 340 c 0,18,19
 57 340 57 340 38.5 357.5 c 128,-1,20
 20 375 20 375 20 401 c 0,21,22
 20 425 20 425 38.5 442.5 c 128,-1,23
 57 460 57 460 81 460 c 0,12,13
EndSplineSet
Validated: 1
EndChar

StartChar: comma
Encoding: 44 44 91
Width: 170
Flags: W
LayerCount: 2
Fore
SplineSet
62 -41 m 0,0,1
 67 -37 67 -37 68.5 -28.5 c 128,-1,2
 70 -20 70 -20 70 -9 c 1,3,4
 51 -6 51 -6 35.5 11 c 128,-1,5
 20 28 20 28 20 51 c 0,6,7
 20 75 20 75 34 92.5 c 128,-1,8
 48 110 48 110 81 110 c 0,9,10
 100 110 100 110 113.5 103 c 128,-1,11
 127 96 127 96 135 84 c 128,-1,12
 143 72 143 72 146.5 57 c 128,-1,13
 150 42 150 42 150 27 c 0,14,15
 150 -31 150 -31 128 -65 c 128,-1,16
 106 -99 106 -99 66 -99 c 0,17,18
 56 -99 56 -99 48.5 -91.5 c 128,-1,19
 41 -84 41 -84 41 -70 c 0,20,21
 41 -52 41 -52 49.5 -48 c 128,-1,22
 58 -44 58 -44 62 -41 c 0,0,1
EndSplineSet
Validated: 1
EndChar

StartChar: d
Encoding: 100 100 92
Width: 564
Flags: W
LayerCount: 2
Fore
SplineSet
478 2 m 0,0,1
 458 2 458 2 444.5 18 c 128,-1,2
 431 34 431 34 426 55 c 1,3,4
 414 44 414 44 398.5 33 c 128,-1,5
 383 22 383 22 363 12.5 c 128,-1,6
 343 3 343 3 319 -3 c 128,-1,7
 295 -9 295 -9 267 -9 c 0,8,9
 233 -9 233 -9 191.5 2.5 c 128,-1,10
 150 14 150 14 113.5 42.5 c 128,-1,11
 77 71 77 71 52.5 120 c 128,-1,12
 28 169 28 169 28 243 c 0,13,14
 28 306 28 306 47 355 c 128,-1,15
 66 404 66 404 100.5 437.5 c 128,-1,16
 135 471 135 471 182.5 488.5 c 128,-1,17
 230 506 230 506 286 506 c 0,18,19
 334 506 334 506 362 495 c 128,-1,20
 390 484 390 484 406 469 c 1,21,22
 406 496 406 496 406 530.5 c 128,-1,23
 406 565 406 565 406.5 597.5 c 128,-1,24
 407 630 407 630 407.5 657 c 128,-1,25
 408 684 408 684 409 698 c 0,26,27
 411 732 411 732 421 744.5 c 128,-1,28
 431 757 431 757 456 757 c 0,29,30
 482 757 482 757 491.5 744.5 c 128,-1,31
 501 732 501 732 503 701 c 0,32,33
 504 688 504 688 504.5 666 c 128,-1,34
 505 644 505 644 505 618 c 128,-1,35
 505 592 505 592 505.5 565.5 c 128,-1,36
 506 539 506 539 506 517.5 c 128,-1,37
 506 496 506 496 506 482 c 128,-1,38
 506 468 506 468 506 468 c 2,39,40
 506 366 506 366 504.5 280 c 128,-1,41
 503 194 503 194 503 143 c 0,42,43
 505 132 505 132 511.5 122 c 128,-1,44
 518 112 518 112 525.5 102 c 128,-1,45
 533 92 533 92 539 81 c 128,-1,46
 545 70 545 70 545 58 c 0,47,48
 545 44 545 44 538 33.5 c 128,-1,49
 531 23 531 23 520.5 16 c 128,-1,50
 510 9 510 9 498.5 5.5 c 128,-1,51
 487 2 487 2 478 2 c 0,0,1
285 90 m 0,52,53
 347 90 347 90 380 127 c 128,-1,54
 413 164 413 164 413 249 c 0,55,56
 413 412 413 412 284 412 c 0,57,58
 254 412 254 412 226 403 c 128,-1,59
 198 394 198 394 176.5 375 c 128,-1,60
 155 356 155 356 141.5 327 c 128,-1,61
 128 298 128 298 128 258 c 0,62,63
 128 225 128 225 137.5 195 c 128,-1,64
 147 165 147 165 166.5 141.5 c 128,-1,65
 186 118 186 118 215.5 104 c 128,-1,66
 245 90 245 90 285 90 c 0,52,53
EndSplineSet
Validated: 1
EndChar

StartChar: degree
Encoding: 176 176 93
Width: 365
Flags: W
LayerCount: 2
Fore
SplineSet
298 626 m 256,0,1
 298 602 298 602 288.5 581 c 128,-1,2
 279 560 279 560 262.5 544.5 c 128,-1,3
 246 529 246 529 223.5 520 c 128,-1,4
 201 511 201 511 176 511 c 256,5,6
 151 511 151 511 129 520 c 128,-1,7
 107 529 107 529 90 544.5 c 128,-1,8
 73 560 73 560 63 581 c 128,-1,9
 53 602 53 602 53 626 c 0,10,11
 53 651 53 651 63.5 672 c 128,-1,12
 74 693 74 693 91 708.5 c 128,-1,13
 108 724 108 724 130.5 732.5 c 128,-1,14
 153 741 153 741 176 741 c 0,15,16
 200 741 200 741 222.5 732 c 128,-1,17
 245 723 245 723 261.5 707.5 c 128,-1,18
 278 692 278 692 288 671 c 128,-1,19
 298 650 298 650 298 626 c 256,0,1
110 625 m 0,20,21
 110 595 110 595 129.5 580 c 128,-1,22
 149 565 149 565 175 565 c 0,23,24
 205 565 205 565 222 582.5 c 128,-1,25
 239 600 239 600 239 627 c 0,26,27
 239 653 239 653 222.5 672 c 128,-1,28
 206 691 206 691 180 691 c 0,29,30
 146 691 146 691 128 672.5 c 128,-1,31
 110 654 110 654 110 625 c 0,20,21
EndSplineSet
Validated: 1
EndChar

StartChar: dieresis
Encoding: 168 168 94
Width: 317
Flags: W
LayerCount: 2
Fore
SplineSet
68 711 m 0,0,1
 91 711 91 711 110.5 693 c 128,-1,2
 130 675 130 675 130 650 c 0,3,4
 130 626 130 626 110 608.5 c 128,-1,5
 90 591 90 591 65 591 c 0,6,7
 44 591 44 591 25.5 608.5 c 128,-1,8
 7 626 7 626 7 652 c 0,9,10
 7 676 7 676 25.5 693.5 c 128,-1,11
 44 711 44 711 68 711 c 0,0,1
248 711 m 0,12,13
 271 711 271 711 290.5 693 c 128,-1,14
 310 675 310 675 310 650 c 0,15,16
 310 626 310 626 290 608.5 c 128,-1,17
 270 591 270 591 245 591 c 0,18,19
 224 591 224 591 205.5 608.5 c 128,-1,20
 187 626 187 626 187 652 c 0,21,22
 187 676 187 676 205.5 693.5 c 128,-1,23
 224 711 224 711 248 711 c 0,12,13
EndSplineSet
Validated: 1
EndChar

StartChar: divide
Encoding: 247 247 95
Width: 459
Flags: W
LayerCount: 2
Fore
SplineSet
384 304 m 0,0,1
 338 302 338 302 278 300.5 c 128,-1,2
 218 299 218 299 136 299 c 0,3,4
 102 299 102 299 78 300 c 128,-1,5
 54 301 54 301 39 305.5 c 128,-1,6
 24 310 24 310 17 320 c 128,-1,7
 10 330 10 330 10 348 c 0,8,9
 10 357 10 357 12 364.5 c 128,-1,10
 14 372 14 372 21 378 c 128,-1,11
 28 384 28 384 40.5 388.5 c 128,-1,12
 53 393 53 393 73 395 c 0,13,14
 88 396 88 396 99.5 397 c 128,-1,15
 111 398 111 398 122 398.5 c 128,-1,16
 133 399 133 399 145.5 399 c 128,-1,17
 158 399 158 399 175 399 c 0,18,19
 229 399 229 399 279 398.5 c 128,-1,20
 329 398 329 398 383 395 c 0,21,22
 407 393 407 393 420 389.5 c 128,-1,23
 433 386 433 386 440 380 c 128,-1,24
 447 374 447 374 448.5 366 c 128,-1,25
 450 358 450 358 450 348 c 0,26,27
 450 330 450 330 437.5 318 c 128,-1,28
 425 306 425 306 384 304 c 0,0,1
237 190 m 0,29,30
 260 190 260 190 279.5 172 c 128,-1,31
 299 154 299 154 299 129 c 0,32,33
 299 105 299 105 279 87.5 c 128,-1,34
 259 70 259 70 234 70 c 0,35,36
 213 70 213 70 194.5 87.5 c 128,-1,37
 176 105 176 105 176 131 c 0,38,39
 176 155 176 155 194.5 172.5 c 128,-1,40
 213 190 213 190 237 190 c 0,29,30
237 630 m 0,41,42
 260 630 260 630 279.5 612 c 128,-1,43
 299 594 299 594 299 569 c 0,44,45
 299 545 299 545 279 527.5 c 128,-1,46
 259 510 259 510 234 510 c 0,47,48
 213 510 213 510 194.5 527.5 c 128,-1,49
 176 545 176 545 176 571 c 0,50,51
 176 595 176 595 194.5 612.5 c 128,-1,52
 213 630 213 630 237 630 c 0,41,42
EndSplineSet
Validated: 1
EndChar

StartChar: dollar
Encoding: 36 36 96
Width: 511
Flags: W
LayerCount: 2
Fore
SplineSet
309 630 m 1,0,1
 332 627 332 627 357 621.5 c 128,-1,2
 382 616 382 616 402.5 606.5 c 128,-1,3
 423 597 423 597 436.5 582.5 c 128,-1,4
 450 568 450 568 450 547 c 0,5,6
 450 532 450 532 441.5 521 c 128,-1,7
 433 510 433 510 415 510 c 0,8,9
 402 510 402 510 385.5 514 c 128,-1,10
 369 518 369 518 349.5 523.5 c 128,-1,11
 330 529 330 529 307.5 533 c 128,-1,12
 285 537 285 537 260 537 c 0,13,14
 218 537 218 537 191.5 524 c 128,-1,15
 165 511 165 511 165 483 c 0,16,17
 165 467 165 467 174.5 456 c 128,-1,18
 184 445 184 445 200.5 436.5 c 128,-1,19
 217 428 217 428 239.5 422 c 128,-1,20
 262 416 262 416 287 410 c 0,21,22
 318 402 318 402 348.5 392 c 128,-1,23
 379 382 379 382 403 364.5 c 128,-1,24
 427 347 427 347 442 320.5 c 128,-1,25
 457 294 457 294 457 255 c 0,26,27
 457 192 457 192 416 150.5 c 128,-1,28
 375 109 375 109 296 98 c 1,29,-1
 296 19 l 2,30,31
 296 -5 296 -5 292.5 -18 c 128,-1,32
 289 -31 289 -31 283 -38 c 128,-1,33
 277 -45 277 -45 269 -46.5 c 128,-1,34
 261 -48 261 -48 251 -48 c 0,35,36
 242 -48 242 -48 234 -45.5 c 128,-1,37
 226 -43 226 -43 220 -35.5 c 128,-1,38
 214 -28 214 -28 210 -15 c 128,-1,39
 206 -2 206 -2 205 18 c 2,40,-1
 205 95 l 1,41,42
 180 96 180 96 152 101 c 128,-1,43
 124 106 124 106 101 116.5 c 128,-1,44
 78 127 78 127 62.5 143.5 c 128,-1,45
 47 160 47 160 47 184 c 0,46,47
 47 204 47 204 56.5 214.5 c 128,-1,48
 66 225 66 225 80 225 c 0,49,50
 91 225 91 225 103 218 c 128,-1,51
 115 211 115 211 132 203 c 128,-1,52
 149 195 149 195 173 188 c 128,-1,53
 197 181 197 181 232 181 c 0,54,55
 245 181 245 181 266 182.5 c 128,-1,56
 287 184 287 184 307.5 191 c 128,-1,57
 328 198 328 198 342.5 210.5 c 128,-1,58
 357 223 357 223 357 246 c 0,59,60
 357 264 357 264 347 276.5 c 128,-1,61
 337 289 337 289 320 298 c 128,-1,62
 303 307 303 307 280.5 313.5 c 128,-1,63
 258 320 258 320 233 327 c 0,64,65
 204 335 204 335 174.5 345 c 128,-1,66
 145 355 145 355 121 371 c 128,-1,67
 97 387 97 387 82 411.5 c 128,-1,68
 67 436 67 436 67 472 c 0,69,70
 67 530 67 530 106 572 c 128,-1,71
 145 614 145 614 212 628 c 1,72,73
 213 712 213 712 222.5 751 c 128,-1,74
 232 790 232 790 261 790 c 0,75,76
 278 790 278 790 291 779 c 128,-1,77
 304 768 304 768 306 728 c 2,78,-1
 309 630 l 1,0,1
EndSplineSet
Validated: 1
EndChar

StartChar: dotlessi
Encoding: 305 305 97
Width: 226
Flags: W
LayerCount: 2
Fore
SplineSet
68 62 m 0,0,1
 66 99 66 99 64.5 146.5 c 128,-1,2
 63 194 63 194 63 251 c 0,3,4
 63 322 63 322 64 372.5 c 128,-1,5
 65 423 65 423 69.5 455.5 c 128,-1,6
 74 488 74 488 84 503.5 c 128,-1,7
 94 519 94 519 112 519 c 0,8,9
 129 519 129 519 142 507 c 128,-1,10
 155 495 155 495 157 455 c 0,11,12
 163 350 163 350 163 252 c 0,13,14
 163 202 163 202 161 158.5 c 128,-1,15
 159 115 159 115 157 63 c 0,16,17
 156 39 156 39 152.5 26 c 128,-1,18
 149 13 149 13 143 6 c 128,-1,19
 137 -1 137 -1 129.5 -2.5 c 128,-1,20
 122 -4 122 -4 112 -4 c 0,21,22
 94 -4 94 -4 82 8.5 c 128,-1,23
 70 21 70 21 68 62 c 0,0,1
EndSplineSet
Validated: 1
EndChar

StartChar: e
Encoding: 101 101 98
Width: 535
Flags: W
LayerCount: 2
Fore
SplineSet
292 184 m 0,0,1
 257 184 257 184 218.5 189.5 c 128,-1,2
 180 195 180 195 135 213 c 1,3,4
 144 152 144 152 185.5 121 c 128,-1,5
 227 90 227 90 305 90 c 0,6,7
 333 90 333 90 355.5 93.5 c 128,-1,8
 378 97 378 97 395 101.5 c 128,-1,9
 412 106 412 106 425 109.5 c 128,-1,10
 438 113 438 113 449 113 c 0,11,12
 463 113 463 113 476 104.5 c 128,-1,13
 489 96 489 96 489 76 c 0,14,15
 489 51 489 51 468.5 35 c 128,-1,16
 448 19 448 19 418.5 9.5 c 128,-1,17
 389 0 389 0 356 -3.5 c 128,-1,18
 323 -7 323 -7 298 -7 c 0,19,20
 239 -7 239 -7 189.5 9 c 128,-1,21
 140 25 140 25 104 57.5 c 128,-1,22
 68 90 68 90 48 138 c 128,-1,23
 28 186 28 186 28 250 c 0,24,25
 28 312 28 312 47.5 360 c 128,-1,26
 67 408 67 408 101 441 c 128,-1,27
 135 474 135 474 181.5 491 c 128,-1,28
 228 508 228 508 282 508 c 0,29,30
 324 508 324 508 363.5 497 c 128,-1,31
 403 486 403 486 433.5 464 c 128,-1,32
 464 442 464 442 482.5 408.5 c 128,-1,33
 501 375 501 375 501 330 c 0,34,35
 501 290 501 290 486 262 c 128,-1,36
 471 234 471 234 443.5 217 c 128,-1,37
 416 200 416 200 377.5 192 c 128,-1,38
 339 184 339 184 292 184 c 0,0,1
285 416 m 0,39,40
 258 416 258 416 233 409.5 c 128,-1,41
 208 403 208 403 187.5 388.5 c 128,-1,42
 167 374 167 374 153 350.5 c 128,-1,43
 139 327 139 327 134 292 c 1,44,45
 172 275 172 275 208 268.5 c 128,-1,46
 244 262 244 262 284 262 c 0,47,48
 343 262 343 262 371.5 276.5 c 128,-1,49
 400 291 400 291 400 329 c 0,50,51
 400 364 400 364 373.5 390 c 128,-1,52
 347 416 347 416 285 416 c 0,39,40
EndSplineSet
Validated: 1
EndChar

StartChar: eacute
Encoding: 233 233 99
Width: 535
Flags: W
LayerCount: 2
Fore
SplineSet
292 184 m 0,0,1
 257 184 257 184 218.5 189.5 c 128,-1,2
 180 195 180 195 135 213 c 1,3,4
 144 152 144 152 185.5 121 c 128,-1,5
 227 90 227 90 305 90 c 0,6,7
 333 90 333 90 355.5 93.5 c 128,-1,8
 378 97 378 97 395 101.5 c 128,-1,9
 412 106 412 106 425 109.5 c 128,-1,10
 438 113 438 113 449 113 c 0,11,12
 463 113 463 113 476 104.5 c 128,-1,13
 489 96 489 96 489 76 c 0,14,15
 489 51 489 51 468.5 35 c 128,-1,16
 448 19 448 19 418.5 9.5 c 128,-1,17
 389 0 389 0 356 -3.5 c 128,-1,18
 323 -7 323 -7 298 -7 c 0,19,20
 239 -7 239 -7 189.5 9 c 128,-1,21
 140 25 140 25 104 57.5 c 128,-1,22
 68 90 68 90 48 138 c 128,-1,23
 28 186 28 186 28 250 c 0,24,25
 28 312 28 312 47.5 360 c 128,-1,26
 67 408 67 408 101 441 c 128,-1,27
 135 474 135 474 181.5 491 c 128,-1,28
 228 508 228 508 282 508 c 0,29,30
 324 508 324 508 363.5 497 c 128,-1,31
 403 486 403 486 433.5 464 c 128,-1,32
 464 442 464 442 482.5 408.5 c 128,-1,33
 501 375 501 375 501 330 c 0,34,35
 501 290 501 290 486 262 c 128,-1,36
 471 234 471 234 443.5 217 c 128,-1,37
 416 200 416 200 377.5 192 c 128,-1,38
 339 184 339 184 292 184 c 0,0,1
285 416 m 0,39,40
 258 416 258 416 233 409.5 c 128,-1,41
 208 403 208 403 187.5 388.5 c 128,-1,42
 167 374 167 374 153 350.5 c 128,-1,43
 139 327 139 327 134 292 c 1,44,45
 172 275 172 275 208 268.5 c 128,-1,46
 244 262 244 262 284 262 c 0,47,48
 343 262 343 262 371.5 276.5 c 128,-1,49
 400 291 400 291 400 329 c 0,50,51
 400 364 400 364 373.5 390 c 128,-1,52
 347 416 347 416 285 416 c 0,39,40
196 588 m 0,53,54
 185 590 185 590 174.5 595.5 c 128,-1,55
 164 601 164 601 164 616 c 0,56,57
 165 628 165 628 178.5 644 c 128,-1,58
 192 660 192 660 212 676.5 c 128,-1,59
 232 693 232 693 257 708.5 c 128,-1,60
 282 724 282 724 306.5 736 c 128,-1,61
 331 748 331 748 352 755.5 c 128,-1,62
 373 763 373 763 386 763 c 0,63,64
 403 763 403 763 415.5 753 c 128,-1,65
 428 743 428 743 428 724 c 0,66,67
 428 712 428 712 415 697.5 c 128,-1,68
 402 683 402 683 381 668 c 128,-1,69
 360 653 360 653 334 638.5 c 128,-1,70
 308 624 308 624 282.5 613 c 128,-1,71
 257 602 257 602 234 595 c 128,-1,72
 211 588 211 588 196 588 c 0,53,54
EndSplineSet
Validated: 1
EndChar

StartChar: ecircumflex
Encoding: 234 234 100
Width: 535
Flags: W
LayerCount: 2
Fore
SplineSet
292 184 m 0,0,1
 257 184 257 184 218.5 189.5 c 128,-1,2
 180 195 180 195 135 213 c 1,3,4
 144 152 144 152 185.5 121 c 128,-1,5
 227 90 227 90 305 90 c 0,6,7
 333 90 333 90 355.5 93.5 c 128,-1,8
 378 97 378 97 395 101.5 c 128,-1,9
 412 106 412 106 425 109.5 c 128,-1,10
 438 113 438 113 449 113 c 0,11,12
 463 113 463 113 476 104.5 c 128,-1,13
 489 96 489 96 489 76 c 0,14,15
 489 51 489 51 468.5 35 c 128,-1,16
 448 19 448 19 418.5 9.5 c 128,-1,17
 389 0 389 0 356 -3.5 c 128,-1,18
 323 -7 323 -7 298 -7 c 0,19,20
 239 -7 239 -7 189.5 9 c 128,-1,21
 140 25 140 25 104 57.5 c 128,-1,22
 68 90 68 90 48 138 c 128,-1,23
 28 186 28 186 28 250 c 0,24,25
 28 312 28 312 47.5 360 c 128,-1,26
 67 408 67 408 101 441 c 128,-1,27
 135 474 135 474 181.5 491 c 128,-1,28
 228 508 228 508 282 508 c 0,29,30
 324 508 324 508 363.5 497 c 128,-1,31
 403 486 403 486 433.5 464 c 128,-1,32
 464 442 464 442 482.5 408.5 c 128,-1,33
 501 375 501 375 501 330 c 0,34,35
 501 290 501 290 486 262 c 128,-1,36
 471 234 471 234 443.5 217 c 128,-1,37
 416 200 416 200 377.5 192 c 128,-1,38
 339 184 339 184 292 184 c 0,0,1
285 416 m 0,39,40
 258 416 258 416 233 409.5 c 128,-1,41
 208 403 208 403 187.5 388.5 c 128,-1,42
 167 374 167 374 153 350.5 c 128,-1,43
 139 327 139 327 134 292 c 1,44,45
 172 275 172 275 208 268.5 c 128,-1,46
 244 262 244 262 284 262 c 0,47,48
 343 262 343 262 371.5 276.5 c 128,-1,49
 400 291 400 291 400 329 c 0,50,51
 400 364 400 364 373.5 390 c 128,-1,52
 347 416 347 416 285 416 c 0,39,40
284 763 m 0,53,54
 294 763 294 763 311.5 754.5 c 128,-1,55
 329 746 329 746 348 733.5 c 128,-1,56
 367 721 367 721 385.5 705.5 c 128,-1,57
 404 690 404 690 417 677 c 0,58,59
 428 665 428 665 434.5 653.5 c 128,-1,60
 441 642 441 642 441 629 c 0,61,62
 441 612 441 612 430.5 599 c 128,-1,63
 420 586 420 586 400 586 c 0,64,65
 383 586 383 586 361.5 601 c 128,-1,66
 340 616 340 616 305 648 c 2,67,-1
 284 667 l 1,68,-1
 263 648 l 2,69,70
 228 616 228 616 205.5 601.5 c 128,-1,71
 183 587 183 587 166 587 c 0,72,73
 148 587 148 587 136.5 598.5 c 128,-1,74
 125 610 125 610 125 627 c 0,75,76
 125 636 125 636 130.5 648.5 c 128,-1,77
 136 661 136 661 151 677 c 0,78,79
 164 690 164 690 182.5 705.5 c 128,-1,80
 201 721 201 721 220 733.5 c 128,-1,81
 239 746 239 746 256 754.5 c 128,-1,82
 273 763 273 763 284 763 c 0,53,54
EndSplineSet
Validated: 1
EndChar

StartChar: edieresis
Encoding: 235 235 101
Width: 535
Flags: W
LayerCount: 2
Fore
SplineSet
292 184 m 0,0,1
 257 184 257 184 218.5 189.5 c 128,-1,2
 180 195 180 195 135 213 c 1,3,4
 144 152 144 152 185.5 121 c 128,-1,5
 227 90 227 90 305 90 c 0,6,7
 333 90 333 90 355.5 93.5 c 128,-1,8
 378 97 378 97 395 101.5 c 128,-1,9
 412 106 412 106 425 109.5 c 128,-1,10
 438 113 438 113 449 113 c 0,11,12
 463 113 463 113 476 104.5 c 128,-1,13
 489 96 489 96 489 76 c 0,14,15
 489 51 489 51 468.5 35 c 128,-1,16
 448 19 448 19 418.5 9.5 c 128,-1,17
 389 0 389 0 356 -3.5 c 128,-1,18
 323 -7 323 -7 298 -7 c 0,19,20
 239 -7 239 -7 189.5 9 c 128,-1,21
 140 25 140 25 104 57.5 c 128,-1,22
 68 90 68 90 48 138 c 128,-1,23
 28 186 28 186 28 250 c 0,24,25
 28 312 28 312 47.5 360 c 128,-1,26
 67 408 67 408 101 441 c 128,-1,27
 135 474 135 474 181.5 491 c 128,-1,28
 228 508 228 508 282 508 c 0,29,30
 324 508 324 508 363.5 497 c 128,-1,31
 403 486 403 486 433.5 464 c 128,-1,32
 464 442 464 442 482.5 408.5 c 128,-1,33
 501 375 501 375 501 330 c 0,34,35
 501 290 501 290 486 262 c 128,-1,36
 471 234 471 234 443.5 217 c 128,-1,37
 416 200 416 200 377.5 192 c 128,-1,38
 339 184 339 184 292 184 c 0,0,1
285 416 m 0,39,40
 258 416 258 416 233 409.5 c 128,-1,41
 208 403 208 403 187.5 388.5 c 128,-1,42
 167 374 167 374 153 350.5 c 128,-1,43
 139 327 139 327 134 292 c 1,44,45
 172 275 172 275 208 268.5 c 128,-1,46
 244 262 244 262 284 262 c 0,47,48
 343 262 343 262 371.5 276.5 c 128,-1,49
 400 291 400 291 400 329 c 0,50,51
 400 364 400 364 373.5 390 c 128,-1,52
 347 416 347 416 285 416 c 0,39,40
166 723 m 0,53,54
 189 723 189 723 208.5 705 c 128,-1,55
 228 687 228 687 228 662 c 0,56,57
 228 638 228 638 208 620.5 c 128,-1,58
 188 603 188 603 163 603 c 0,59,60
 142 603 142 603 123.5 620.5 c 128,-1,61
 105 638 105 638 105 664 c 0,62,63
 105 688 105 688 123.5 705.5 c 128,-1,64
 142 723 142 723 166 723 c 0,53,54
346 723 m 0,65,66
 369 723 369 723 388.5 705 c 128,-1,67
 408 687 408 687 408 662 c 0,68,69
 408 638 408 638 388 620.5 c 128,-1,70
 368 603 368 603 343 603 c 0,71,72
 322 603 322 603 303.5 620.5 c 128,-1,73
 285 638 285 638 285 664 c 0,74,75
 285 688 285 688 303.5 705.5 c 128,-1,76
 322 723 322 723 346 723 c 0,65,66
EndSplineSet
Validated: 1
EndChar

StartChar: egrave
Encoding: 232 232 102
Width: 535
Flags: W
LayerCount: 2
Fore
SplineSet
292 184 m 0,0,1
 257 184 257 184 218.5 189.5 c 128,-1,2
 180 195 180 195 135 213 c 1,3,4
 144 152 144 152 185.5 121 c 128,-1,5
 227 90 227 90 305 90 c 0,6,7
 333 90 333 90 355.5 93.5 c 128,-1,8
 378 97 378 97 395 101.5 c 128,-1,9
 412 106 412 106 425 109.5 c 128,-1,10
 438 113 438 113 449 113 c 0,11,12
 463 113 463 113 476 104.5 c 128,-1,13
 489 96 489 96 489 76 c 0,14,15
 489 51 489 51 468.5 35 c 128,-1,16
 448 19 448 19 418.5 9.5 c 128,-1,17
 389 0 389 0 356 -3.5 c 128,-1,18
 323 -7 323 -7 298 -7 c 0,19,20
 239 -7 239 -7 189.5 9 c 128,-1,21
 140 25 140 25 104 57.5 c 128,-1,22
 68 90 68 90 48 138 c 128,-1,23
 28 186 28 186 28 250 c 0,24,25
 28 312 28 312 47.5 360 c 128,-1,26
 67 408 67 408 101 441 c 128,-1,27
 135 474 135 474 181.5 491 c 128,-1,28
 228 508 228 508 282 508 c 0,29,30
 324 508 324 508 363.5 497 c 128,-1,31
 403 486 403 486 433.5 464 c 128,-1,32
 464 442 464 442 482.5 408.5 c 128,-1,33
 501 375 501 375 501 330 c 0,34,35
 501 290 501 290 486 262 c 128,-1,36
 471 234 471 234 443.5 217 c 128,-1,37
 416 200 416 200 377.5 192 c 128,-1,38
 339 184 339 184 292 184 c 0,0,1
285 416 m 0,39,40
 258 416 258 416 233 409.5 c 128,-1,41
 208 403 208 403 187.5 388.5 c 128,-1,42
 167 374 167 374 153 350.5 c 128,-1,43
 139 327 139 327 134 292 c 1,44,45
 172 275 172 275 208 268.5 c 128,-1,46
 244 262 244 262 284 262 c 0,47,48
 343 262 343 262 371.5 276.5 c 128,-1,49
 400 291 400 291 400 329 c 0,50,51
 400 364 400 364 373.5 390 c 128,-1,52
 347 416 347 416 285 416 c 0,39,40
338 590 m 0,53,54
 323 590 323 590 300 597 c 128,-1,55
 277 604 277 604 251.5 615 c 128,-1,56
 226 626 226 626 200 640.5 c 128,-1,57
 174 655 174 655 153 670 c 128,-1,58
 132 685 132 685 119 699.5 c 128,-1,59
 106 714 106 714 106 726 c 0,60,61
 106 745 106 745 118 754 c 128,-1,62
 130 763 130 763 147 763 c 0,63,64
 166 763 166 763 202.5 747 c 128,-1,65
 239 731 239 731 275.5 708 c 128,-1,66
 312 685 312 685 339.5 660 c 128,-1,67
 367 635 367 635 369 616 c 0,68,69
 369 601 369 601 359 596.5 c 128,-1,70
 349 592 349 592 338 590 c 0,53,54
EndSplineSet
Validated: 1
EndChar

StartChar: eight
Encoding: 56 56 103
Width: 568
Flags: W
LayerCount: 2
Fore
SplineSet
284 712 m 0,0,1
 333 712 333 712 371 696.5 c 128,-1,2
 409 681 409 681 435 654.5 c 128,-1,3
 461 628 461 628 474 594.5 c 128,-1,4
 487 561 487 561 487 525 c 0,5,6
 487 487 487 487 472.5 451.5 c 128,-1,7
 458 416 458 416 429 390 c 1,8,9
 477 365 477 365 502.5 319.5 c 128,-1,10
 528 274 528 274 528 208 c 0,11,12
 528 157 528 157 513 115.5 c 128,-1,13
 498 74 498 74 467 44.5 c 128,-1,14
 436 15 436 15 390 -1.5 c 128,-1,15
 344 -18 344 -18 283 -18 c 0,16,17
 221 -18 221 -18 175 -1.5 c 128,-1,18
 129 15 129 15 99 45 c 128,-1,19
 69 75 69 75 54.5 116 c 128,-1,20
 40 157 40 157 40 206 c 0,21,22
 40 270 40 270 64.5 316.5 c 128,-1,23
 89 363 89 363 140 389 c 1,24,25
 110 415 110 415 95 451 c 128,-1,26
 80 487 80 487 80 525 c 0,27,28
 80 561 80 561 93 594.5 c 128,-1,29
 106 628 106 628 132 654.5 c 128,-1,30
 158 681 158 681 196 696.5 c 128,-1,31
 234 712 234 712 284 712 c 0,0,1
285 74 m 0,32,33
 321 74 321 74 348 84.5 c 128,-1,34
 375 95 375 95 392.5 113 c 128,-1,35
 410 131 410 131 419 155 c 128,-1,36
 428 179 428 179 428 205 c 0,37,38
 428 228 428 228 420.5 252 c 128,-1,39
 413 276 413 276 395.5 295 c 128,-1,40
 378 314 378 314 350 326 c 128,-1,41
 322 338 322 338 282 338 c 0,42,43
 213 338 213 338 176.5 302.5 c 128,-1,44
 140 267 140 267 140 209 c 0,45,46
 140 148 140 148 178 111 c 128,-1,47
 216 74 216 74 285 74 c 0,32,33
286 423 m 0,48,49
 311 423 311 423 330.5 433 c 128,-1,50
 350 443 350 443 363.5 458.5 c 128,-1,51
 377 474 377 474 383.5 492.5 c 128,-1,52
 390 511 390 511 390 528 c 0,53,54
 390 563 390 563 362.5 587.5 c 128,-1,55
 335 612 335 612 284 612 c 256,56,57
 233 612 233 612 207 587.5 c 128,-1,58
 181 563 181 563 181 529 c 0,59,60
 181 512 181 512 187.5 493 c 128,-1,61
 194 474 194 474 207.5 458.5 c 128,-1,62
 221 443 221 443 240.5 433 c 128,-1,63
 260 423 260 423 286 423 c 0,48,49
EndSplineSet
Validated: 1
EndChar

StartChar: emdash
Encoding: 8212 8212 104
Width: 603
Flags: W
LayerCount: 2
Fore
SplineSet
517 250 m 0,0,1
 453 248 453 248 358.5 246.5 c 128,-1,2
 264 245 264 245 146 245 c 0,3,4
 112 245 112 245 88 246 c 128,-1,5
 64 247 64 247 49 251.5 c 128,-1,6
 34 256 34 256 27 266 c 128,-1,7
 20 276 20 276 20 294 c 0,8,9
 20 303 20 303 22 310.5 c 128,-1,10
 24 318 24 318 31 324 c 128,-1,11
 38 330 38 330 50.5 334.5 c 128,-1,12
 63 339 63 339 83 341 c 0,13,14
 100 342 100 342 119 343 c 128,-1,15
 138 344 138 344 163.5 344.5 c 128,-1,16
 189 345 189 345 223.5 345 c 128,-1,17
 258 345 258 345 307 345 c 0,18,19
 361 345 361 345 413 344.5 c 128,-1,20
 465 344 465 344 516 341 c 0,21,22
 540 340 540 340 553 336 c 128,-1,23
 566 332 566 332 573 326 c 128,-1,24
 580 320 580 320 581.5 312 c 128,-1,25
 583 304 583 304 583 294 c 0,26,27
 583 276 583 276 570.5 264 c 128,-1,28
 558 252 558 252 517 250 c 0,0,1
EndSplineSet
Validated: 1
EndChar

StartChar: endash
Encoding: 8211 8211 105
Width: 480
Flags: W
LayerCount: 2
Fore
SplineSet
394 250 m 0,0,1
 348 248 348 248 288 246.5 c 128,-1,2
 228 245 228 245 146 245 c 0,3,4
 112 245 112 245 88 246 c 128,-1,5
 64 247 64 247 49 251.5 c 128,-1,6
 34 256 34 256 27 266 c 128,-1,7
 20 276 20 276 20 294 c 0,8,9
 20 303 20 303 22 310.5 c 128,-1,10
 24 318 24 318 31 324 c 128,-1,11
 38 330 38 330 50.5 334.5 c 128,-1,12
 63 339 63 339 83 341 c 0,13,14
 98 342 98 342 109.5 343 c 128,-1,15
 121 344 121 344 132 344.5 c 128,-1,16
 143 345 143 345 155.5 345 c 128,-1,17
 168 345 168 345 185 345 c 0,18,19
 239 345 239 345 289 344.5 c 128,-1,20
 339 344 339 344 393 341 c 0,21,22
 417 339 417 339 430 335.5 c 128,-1,23
 443 332 443 332 450 326 c 128,-1,24
 457 320 457 320 458.5 312 c 128,-1,25
 460 304 460 304 460 294 c 0,26,27
 460 276 460 276 447.5 264 c 128,-1,28
 435 252 435 252 394 250 c 0,0,1
EndSplineSet
Validated: 1
EndChar

StartChar: equal
Encoding: 61 61 106
Width: 476
Flags: W
LayerCount: 2
Fore
SplineSet
390 389 m 0,0,1
 344 387 344 387 286 385.5 c 128,-1,2
 228 384 228 384 146 384 c 0,3,4
 112 384 112 384 88 385 c 128,-1,5
 64 386 64 386 49 390.5 c 128,-1,6
 34 395 34 395 27 405 c 128,-1,7
 20 415 20 415 20 433 c 0,8,9
 20 442 20 442 22 449.5 c 128,-1,10
 24 457 24 457 31 463 c 128,-1,11
 38 469 38 469 50.5 473.5 c 128,-1,12
 63 478 63 478 83 480 c 0,13,14
 98 481 98 481 109.5 482 c 128,-1,15
 121 483 121 483 132 483.5 c 128,-1,16
 143 484 143 484 155.5 484 c 128,-1,17
 168 484 168 484 185 484 c 0,18,19
 239 484 239 484 287 483.5 c 128,-1,20
 335 483 335 483 389 480 c 0,21,22
 413 478 413 478 426 474.5 c 128,-1,23
 439 471 439 471 446 465 c 128,-1,24
 453 459 453 459 454.5 451 c 128,-1,25
 456 443 456 443 456 433 c 0,26,27
 456 415 456 415 443.5 403 c 128,-1,28
 431 391 431 391 390 389 c 0,0,1
390 167 m 0,29,30
 344 165 344 165 286 163.5 c 128,-1,31
 228 162 228 162 146 162 c 0,32,33
 112 162 112 162 88 163 c 128,-1,34
 64 164 64 164 49 168.5 c 128,-1,35
 34 173 34 173 27 183 c 128,-1,36
 20 193 20 193 20 211 c 0,37,38
 20 220 20 220 22 227.5 c 128,-1,39
 24 235 24 235 31 241 c 128,-1,40
 38 247 38 247 50.5 251.5 c 128,-1,41
 63 256 63 256 83 258 c 0,42,43
 98 259 98 259 109.5 260 c 128,-1,44
 121 261 121 261 132 261.5 c 128,-1,45
 143 262 143 262 155.5 262 c 128,-1,46
 168 262 168 262 185 262 c 0,47,48
 239 262 239 262 287 261.5 c 128,-1,49
 335 261 335 261 389 258 c 0,50,51
 413 256 413 256 426 252.5 c 128,-1,52
 439 249 439 249 446 243 c 128,-1,53
 453 237 453 237 454.5 229 c 128,-1,54
 456 221 456 221 456 211 c 0,55,56
 456 193 456 193 443.5 181 c 128,-1,57
 431 169 431 169 390 167 c 0,29,30
EndSplineSet
Validated: 1
EndChar

StartChar: eth
Encoding: 240 240 107
Width: 597
Flags: W
LayerCount: 2
Fore
SplineSet
280 681 m 0,0,1
 258 685 258 685 247.5 698.5 c 128,-1,2
 237 712 237 712 237 727 c 0,3,4
 237 745 237 745 249.5 757 c 128,-1,5
 262 769 262 769 285 769 c 0,6,7
 341 769 341 769 383 741 c 128,-1,8
 425 713 425 713 456 668 c 1,9,10
 503 679 503 679 526.5 684.5 c 128,-1,11
 550 690 550 690 557 690 c 0,12,13
 583 690 583 690 592.5 674 c 128,-1,14
 602 658 602 658 602 639 c 0,15,16
 602 621 602 621 580 607 c 128,-1,17
 558 593 558 593 502 580 c 1,18,19
 526 520 526 520 537 455 c 128,-1,20
 548 390 548 390 548 334 c 0,21,22
 548 260 548 260 536 196.5 c 128,-1,23
 524 133 524 133 496 86.5 c 128,-1,24
 468 40 468 40 422 13.5 c 128,-1,25
 376 -13 376 -13 308 -13 c 0,26,27
 246 -13 246 -13 198 7 c 128,-1,28
 150 27 150 27 116.5 63 c 128,-1,29
 83 99 83 99 65.5 148.5 c 128,-1,30
 48 198 48 198 48 257 c 0,31,32
 48 318 48 318 66 361.5 c 128,-1,33
 84 405 84 405 114.5 433 c 128,-1,34
 145 461 145 461 186 474 c 128,-1,35
 227 487 227 487 273 487 c 0,36,37
 334 487 334 487 381.5 461.5 c 128,-1,38
 429 436 429 436 447 372 c 1,39,40
 447 480 447 480 413 560 c 1,41,42
 384 553 384 553 352.5 544.5 c 128,-1,43
 321 536 321 536 292 536 c 0,44,45
 273 536 273 536 260 547 c 128,-1,46
 247 558 247 558 247 584 c 0,47,48
 247 597 247 597 259 605.5 c 128,-1,49
 271 614 271 614 288 619.5 c 128,-1,50
 305 625 305 625 323.5 628.5 c 128,-1,51
 342 632 342 632 354 635 c 1,52,53
 340 651 340 651 320 664 c 128,-1,54
 300 677 300 677 280 681 c 0,0,1
283 396 m 0,55,56
 220 396 220 396 184 356 c 128,-1,57
 148 316 148 316 148 243 c 0,58,59
 148 165 148 165 188.5 125 c 128,-1,60
 229 85 229 85 295 85 c 0,61,62
 334 85 334 85 360 98 c 128,-1,63
 386 111 386 111 401 132 c 128,-1,64
 416 153 416 153 422.5 178.5 c 128,-1,65
 429 204 429 204 429 229 c 0,66,67
 429 259 429 259 420.5 289 c 128,-1,68
 412 319 412 319 394.5 343 c 128,-1,69
 377 367 377 367 349.5 381.5 c 128,-1,70
 322 396 322 396 283 396 c 0,55,56
EndSplineSet
Validated: 1
EndChar

StartChar: exclam
Encoding: 33 33 108
Width: 223
Flags: W
LayerCount: 2
Fore
SplineSet
67 688 m 0,0,1
 69 729 69 729 81 741.5 c 128,-1,2
 93 754 93 754 111 754 c 0,3,4
 121 754 121 754 128.5 752.5 c 128,-1,5
 136 751 136 751 142 744 c 128,-1,6
 148 737 148 737 151.5 724 c 128,-1,7
 155 711 155 711 156 687 c 0,8,9
 158 635 158 635 160 585 c 128,-1,10
 162 535 162 535 162 485 c 0,11,12
 162 460 162 460 161.5 440 c 128,-1,13
 161 420 161 420 160.5 400 c 128,-1,14
 160 380 160 380 158.5 359 c 128,-1,15
 157 338 157 338 156 312 c 0,16,17
 155 292 155 292 151 279.5 c 128,-1,18
 147 267 147 267 141 260 c 128,-1,19
 135 253 135 253 127.5 250.5 c 128,-1,20
 120 248 120 248 111 248 c 0,21,22
 93 248 93 248 83 258.5 c 128,-1,23
 73 269 73 269 68.5 296 c 128,-1,24
 64 323 64 323 63 369 c 128,-1,25
 62 415 62 415 62 486 c 0,26,27
 62 543 62 543 63.5 597 c 128,-1,28
 65 651 65 651 67 688 c 0,0,1
111 110 m 0,29,30
 134 110 134 110 153.5 92 c 128,-1,31
 173 74 173 74 173 49 c 0,32,33
 173 25 173 25 153 7.5 c 128,-1,34
 133 -10 133 -10 108 -10 c 0,35,36
 87 -10 87 -10 68.5 7.5 c 128,-1,37
 50 25 50 25 50 51 c 0,38,39
 50 75 50 75 68.5 92.5 c 128,-1,40
 87 110 87 110 111 110 c 0,29,30
EndSplineSet
Validated: 1
EndChar

StartChar: exclamdown
Encoding: 161 161 109
Width: 223
Flags: W
LayerCount: 2
Fore
SplineSet
67 -184 m 0,0,1
 65 -147 65 -147 63.5 -93 c 128,-1,2
 62 -39 62 -39 62 18 c 0,3,4
 62 89 62 89 63 135 c 128,-1,5
 64 181 64 181 68.5 208 c 128,-1,6
 73 235 73 235 83 245.5 c 128,-1,7
 93 256 93 256 111 256 c 0,8,9
 128 256 128 256 141 244 c 128,-1,10
 154 232 154 232 156 192 c 0,11,12
 157 166 157 166 158.5 145 c 128,-1,13
 160 124 160 124 160.5 104 c 128,-1,14
 161 84 161 84 161.5 64 c 128,-1,15
 162 44 162 44 162 19 c 0,16,17
 162 -31 162 -31 160 -81 c 128,-1,18
 158 -131 158 -131 156 -183 c 0,19,20
 155 -207 155 -207 151.5 -220 c 128,-1,21
 148 -233 148 -233 142 -240 c 128,-1,22
 136 -247 136 -247 128.5 -248.5 c 128,-1,23
 121 -250 121 -250 111 -250 c 0,24,25
 93 -250 93 -250 81 -237.5 c 128,-1,26
 69 -225 69 -225 67 -184 c 0,0,1
111 394 m 0,27,28
 87 394 87 394 68.5 411.5 c 128,-1,29
 50 429 50 429 50 453 c 0,30,31
 50 479 50 479 68.5 496.5 c 128,-1,32
 87 514 87 514 108 514 c 0,33,34
 133 514 133 514 153 496.5 c 128,-1,35
 173 479 173 479 173 455 c 0,36,37
 173 430 173 430 153.5 412 c 128,-1,38
 134 394 134 394 111 394 c 0,27,28
EndSplineSet
Validated: 1
EndChar

